<svg width="184" height="40" viewBox="0 0 184 40" fill="none" xmlns="http://www.w3.org/2000/svg">
<g clip-path="url(#clip0_162_5839)">
<path d="M7.57391 39.4955L23.9411 10.9199L40.3083 39.4955H7.57391Z" fill="white"/>
<path d="M0.675232 39.4937L10.042 23.2246H14.5703L5.10156 39.4937H0.675232Z" fill="white"/>
<path d="M27.649 12.0139L34.3357 0.492188L56.6752 39.4922H43.1922L27.649 12.0139Z" fill="white"/>
</g>
<path d="M66.3098 11.4316V3.03164H69.1778C70.1618 3.03164 70.9698 3.20764 71.6018 3.55964C72.2418 3.90364 72.7138 4.39164 73.0178 5.02364C73.3298 5.64764 73.4858 6.38364 73.4858 7.23164C73.4858 8.07964 73.3298 8.81964 73.0178 9.45164C72.7138 10.0756 72.2418 10.5636 71.6018 10.9156C70.9698 11.2596 70.1618 11.4316 69.1778 11.4316H66.3098ZM67.8458 10.1116H69.1058C69.8098 10.1116 70.3658 9.99964 70.7738 9.77564C71.1818 9.54364 71.4738 9.21564 71.6498 8.79164C71.8258 8.35964 71.9138 7.83964 71.9138 7.23164C71.9138 6.63164 71.8258 6.11564 71.6498 5.68364C71.4738 5.25164 71.1818 4.91964 70.7738 4.68764C70.3658 4.45564 69.8098 4.33964 69.1058 4.33964H67.8458V10.1116ZM77.697 11.5756C77.097 11.5756 76.565 11.4476 76.101 11.1916C75.637 10.9356 75.273 10.5756 75.009 10.1116C74.745 9.64764 74.613 9.11164 74.613 8.50364C74.613 7.88764 74.741 7.33964 74.997 6.85964C75.261 6.37964 75.621 6.00764 76.077 5.74364C76.541 5.47164 77.085 5.33564 77.709 5.33564C78.293 5.33564 78.809 5.46364 79.257 5.71964C79.705 5.97564 80.053 6.32764 80.301 6.77564C80.557 7.21564 80.685 7.70764 80.685 8.25164C80.685 8.33964 80.681 8.43164 80.673 8.52764C80.673 8.62364 80.669 8.72364 80.661 8.82764H76.137C76.169 9.29164 76.329 9.65564 76.617 9.91964C76.913 10.1836 77.269 10.3156 77.685 10.3156C77.997 10.3156 78.257 10.2476 78.465 10.1116C78.681 9.96764 78.841 9.78364 78.945 9.55964H80.505C80.393 9.93564 80.205 10.2796 79.941 10.5916C79.685 10.8956 79.365 11.1356 78.981 11.3116C78.605 11.4876 78.177 11.5756 77.697 11.5756ZM77.709 6.58364C77.333 6.58364 77.001 6.69164 76.713 6.90764C76.425 7.11564 76.241 7.43564 76.161 7.86764H79.125C79.101 7.47564 78.957 7.16364 78.693 6.93164C78.429 6.69964 78.101 6.58364 77.709 6.58364ZM81.9769 11.4316V5.47964H83.3329L83.4529 6.48764C83.6369 6.13564 83.9009 5.85564 84.2449 5.64764C84.5969 5.43964 85.0089 5.33564 85.4809 5.33564C86.2169 5.33564 86.7889 5.56764 87.1969 6.03164C87.6049 6.49564 87.8089 7.17564 87.8089 8.07164V11.4316H86.2729V8.21564C86.2729 7.70364 86.1689 7.31164 85.9609 7.03964C85.7529 6.76764 85.4289 6.63164 84.9889 6.63164C84.5569 6.63164 84.2009 6.78364 83.9209 7.08764C83.6489 7.39164 83.5129 7.81564 83.5129 8.35964V11.4316H81.9769ZM90.1057 4.55564C89.8257 4.55564 89.5937 4.47164 89.4097 4.30364C89.2337 4.13564 89.1457 3.92364 89.1457 3.66764C89.1457 3.41164 89.2337 3.20364 89.4097 3.04364C89.5937 2.87564 89.8257 2.79164 90.1057 2.79164C90.3857 2.79164 90.6137 2.87564 90.7897 3.04364C90.9737 3.20364 91.0657 3.41164 91.0657 3.66764C91.0657 3.92364 90.9737 4.13564 90.7897 4.30364C90.6137 4.47164 90.3857 4.55564 90.1057 4.55564ZM89.3377 11.4316V5.47964H90.8737V11.4316H89.3377ZM94.5289 11.5756C94.0169 11.5756 93.5969 11.4956 93.2689 11.3356C92.9409 11.1676 92.6969 10.9476 92.5369 10.6756C92.3769 10.4036 92.2969 10.1036 92.2969 9.77564C92.2969 9.22364 92.5129 8.77564 92.9449 8.43164C93.3769 8.08764 94.0249 7.91564 94.8889 7.91564H96.4009V7.77164C96.4009 7.36364 96.2849 7.06364 96.0529 6.87164C95.8209 6.67964 95.5329 6.58364 95.1889 6.58364C94.8769 6.58364 94.6049 6.65964 94.3729 6.81164C94.1409 6.95564 93.9969 7.17164 93.9409 7.45964H92.4409C92.4809 7.02764 92.6249 6.65164 92.8729 6.33164C93.1289 6.01164 93.4569 5.76764 93.8569 5.59964C94.2569 5.42364 94.7049 5.33564 95.2009 5.33564C96.0489 5.33564 96.7169 5.54764 97.2049 5.97164C97.6929 6.39564 97.9369 6.99564 97.9369 7.77164V11.4316H96.6289L96.4849 10.4716C96.3089 10.7916 96.0609 11.0556 95.7409 11.2636C95.4289 11.4716 95.0249 11.5756 94.5289 11.5756ZM94.8769 10.3756C95.3169 10.3756 95.6569 10.2316 95.8969 9.94364C96.1449 9.65564 96.3009 9.29964 96.3649 8.87564H95.0569C94.6489 8.87564 94.3569 8.95164 94.1809 9.10364C94.0049 9.24764 93.9169 9.42764 93.9169 9.64364C93.9169 9.87564 94.0049 10.0556 94.1809 10.1836C94.3569 10.3116 94.5889 10.3756 94.8769 10.3756ZM102.931 11.5756C102.483 11.5756 102.091 11.4916 101.755 11.3236C101.419 11.1556 101.147 10.9196 100.939 10.6156L100.771 11.4316H99.4027V2.79164H100.939V6.33164C101.131 6.06764 101.383 5.83564 101.695 5.63564C102.015 5.43564 102.427 5.33564 102.931 5.33564C103.491 5.33564 103.991 5.47164 104.431 5.74364C104.871 6.01564 105.219 6.38764 105.475 6.85964C105.731 7.33164 105.859 7.86764 105.859 8.46764C105.859 9.06764 105.731 9.60364 105.475 10.0756C105.219 10.5396 104.871 10.9076 104.431 11.1796C103.991 11.4436 103.491 11.5756 102.931 11.5756ZM102.607 10.2316C103.095 10.2316 103.499 10.0676 103.819 9.73964C104.139 9.41164 104.299 8.98764 104.299 8.46764C104.299 7.94764 104.139 7.51964 103.819 7.18364C103.499 6.84764 103.095 6.67964 102.607 6.67964C102.111 6.67964 101.703 6.84764 101.383 7.18364C101.071 7.51164 100.915 7.93564 100.915 8.45564C100.915 8.97564 101.071 9.40364 101.383 9.73964C101.703 10.0676 102.111 10.2316 102.607 10.2316ZM107.231 11.4316V2.79164H108.767V11.4316H107.231ZM113.228 11.5756C112.628 11.5756 112.096 11.4476 111.632 11.1916C111.168 10.9356 110.804 10.5756 110.54 10.1116C110.276 9.64764 110.144 9.11164 110.144 8.50364C110.144 7.88764 110.272 7.33964 110.528 6.85964C110.792 6.37964 111.152 6.00764 111.608 5.74364C112.072 5.47164 112.616 5.33564 113.24 5.33564C113.824 5.33564 114.34 5.46364 114.788 5.71964C115.236 5.97564 115.584 6.32764 115.832 6.77564C116.088 7.21564 116.216 7.70764 116.216 8.25164C116.216 8.33964 116.212 8.43164 116.204 8.52764C116.204 8.62364 116.2 8.72364 116.192 8.82764H111.668C111.7 9.29164 111.86 9.65564 112.148 9.91964C112.444 10.1836 112.8 10.3156 113.216 10.3156C113.528 10.3156 113.788 10.2476 113.996 10.1116C114.212 9.96764 114.372 9.78364 114.476 9.55964H116.036C115.924 9.93564 115.736 10.2796 115.472 10.5916C115.216 10.8956 114.896 11.1356 114.512 11.3116C114.136 11.4876 113.708 11.5756 113.228 11.5756ZM113.24 6.58364C112.864 6.58364 112.532 6.69164 112.244 6.90764C111.956 7.11564 111.772 7.43564 111.692 7.86764H114.656C114.632 7.47564 114.488 7.16364 114.224 6.93164C113.96 6.69964 113.632 6.58364 113.24 6.58364ZM123.896 11.5756C123.448 11.5756 123.056 11.4916 122.72 11.3236C122.384 11.1556 122.112 10.9196 121.904 10.6156L121.736 11.4316H120.368V2.79164H121.904V6.33164C122.096 6.06764 122.348 5.83564 122.66 5.63564C122.98 5.43564 123.392 5.33564 123.896 5.33564C124.456 5.33564 124.956 5.47164 125.396 5.74364C125.836 6.01564 126.184 6.38764 126.44 6.85964C126.696 7.33164 126.824 7.86764 126.824 8.46764C126.824 9.06764 126.696 9.60364 126.44 10.0756C126.184 10.5396 125.836 10.9076 125.396 11.1796C124.956 11.4436 124.456 11.5756 123.896 11.5756ZM123.572 10.2316C124.06 10.2316 124.464 10.0676 124.784 9.73964C125.104 9.41164 125.264 8.98764 125.264 8.46764C125.264 7.94764 125.104 7.51964 124.784 7.18364C124.464 6.84764 124.06 6.67964 123.572 6.67964C123.076 6.67964 122.668 6.84764 122.348 7.18364C122.036 7.51164 121.88 7.93564 121.88 8.45564C121.88 8.97564 122.036 9.40364 122.348 9.73964C122.668 10.0676 123.076 10.2316 123.572 10.2316ZM128.401 14.0716L129.781 11.0356H129.421L127.105 5.47964H128.773L130.441 9.66764L132.181 5.47964H133.813L130.033 14.0716H128.401Z" fill="white"/>
<path d="M71.3018 39.3996H69.5018L67.1978 31.8876V39.3996H65.4938V23.2476C65.4938 22.7196 65.8538 22.6236 66.0458 22.5996H67.1978V28.7196L69.3098 22.6476H71.1098L68.3978 30.2076L71.3018 39.3996Z" fill="white"/>
<path d="M85.1404 39.3996H83.2444L81.7324 27.8316L80.2204 39.3996H78.3244L80.8684 22.5996H81.8044C82.5244 22.5996 82.6444 23.0556 82.7164 23.5116L85.1404 39.3996Z" fill="white"/>
<path d="M98.1621 39.3996H96.4341V33.2556C96.4341 32.4396 96.0021 32.1756 95.5461 32.1756H94.6341V39.3996H92.9061V22.5996H96.0501C97.2021 22.5996 98.1621 23.5356 98.1621 24.7116V29.8956C98.1621 29.8956 98.2341 31.2156 97.5381 31.3836C98.2101 31.7196 98.1621 32.9676 98.1621 32.9676V39.3996ZM94.6341 30.5436H95.5461C96.0021 30.5436 96.4341 30.3516 96.4341 29.5836V25.0716C96.4341 24.4476 96.0021 24.2076 95.5461 24.2076H94.6341V30.5436Z" fill="white"/>
<path d="M112.961 39.3996H111.065L109.553 27.8316L108.041 39.3996H106.145L108.689 22.5996H109.625C110.345 22.5996 110.465 23.0556 110.537 23.5116L112.961 39.3996Z" fill="white"/>
<path d="M126.942 39.3996H125.142L122.838 31.8876V39.3996H121.134V23.2476C121.134 22.7196 121.494 22.6236 121.686 22.5996H122.838V28.7196L124.95 22.6476H126.75L124.038 30.2076L126.942 39.3996Z" fill="white"/>
<path d="M137.157 22.4316H138.477C139.629 22.4796 140.565 23.4156 140.565 24.5676V37.4556C140.541 38.6076 139.629 39.5196 138.477 39.5676H137.157C135.981 39.5676 135.021 38.6076 134.997 37.4556V24.5676C134.997 23.3916 135.957 22.4316 137.157 22.4316ZM137.637 38.0556H137.901C138.405 38.0556 138.813 37.6476 138.813 37.1196V24.8796C138.813 24.3516 138.405 23.9436 137.901 23.9436H137.637C137.133 23.9676 136.725 24.3756 136.725 24.8796V37.1196C136.725 37.6236 137.133 38.0316 137.637 38.0556Z" fill="white"/>
<path d="M154.764 39.3996H153.036V33.2556C153.036 32.4396 152.604 32.1756 152.148 32.1756H151.236V39.3996H149.508V22.5996H152.652C153.804 22.5996 154.764 23.5356 154.764 24.7116V29.8956C154.764 29.8956 154.836 31.2156 154.14 31.3836C154.812 31.7196 154.764 32.9676 154.764 32.9676V39.3996ZM151.236 30.5436H152.148C152.604 30.5436 153.036 30.3516 153.036 29.5836V25.0716C153.036 24.4476 152.604 24.2076 152.148 24.2076H151.236V30.5436Z" fill="white"/>
<path d="M169.562 39.3996H167.666L166.154 27.8316L164.642 39.3996H162.746L165.29 22.5996H166.226C166.946 22.5996 167.066 23.0556 167.138 23.5116L169.562 39.3996Z" fill="white"/>
<path d="M184 22.5996V39.3996H182.296V30.7356L181 36.4956H180.472C179.464 36.4956 179.272 35.4876 179.176 35.1276L178.168 30.7356V39.3996H176.464V22.5996H177.52C178.192 22.5996 178.288 23.2236 178.288 23.2236L180.28 32.8716L182.176 23.1996C182.2 23.1276 182.32 22.5996 182.944 22.5996H184Z" fill="white"/>
<defs>
<clipPath id="clip0_162_5839">
<rect width="56" height="39" fill="white" transform="translate(0.674683 0.5)"/>
</clipPath>
</defs>
</svg>
