<svg width="131" height="60" viewBox="0 0 131 60" fill="none" xmlns="http://www.w3.org/2000/svg">
<g clip-path="url(#clip0_1002_3641)">
<path d="M4.09898 43.9568C3.96406 43.7667 3.78499 43.6132 3.56667 43.501C3.34836 43.3889 3.1374 43.3329 2.9338 43.3329C2.82832 43.3329 2.72284 43.3426 2.61491 43.3645C2.50697 43.384 2.40885 43.4255 2.323 43.4815C2.23714 43.54 2.16355 43.6156 2.10468 43.7058C2.04581 43.7984 2.01637 43.9154 2.01637 44.0592C2.01637 44.1811 2.03845 44.2835 2.08506 44.3663C2.13166 44.4492 2.1979 44.5199 2.28866 44.5808C2.37942 44.6418 2.4849 44.6978 2.60755 44.749C2.7302 44.8002 2.87002 44.8538 3.02456 44.9074C3.24533 44.9903 3.47837 45.0805 3.71876 45.178C3.95916 45.2779 4.17747 45.4096 4.37617 45.5729C4.57241 45.7362 4.73676 45.9409 4.86677 46.1822C4.99678 46.4235 5.06056 46.7258 5.06056 47.089C5.06056 47.5058 4.99187 47.8665 4.85205 48.1687C4.71223 48.4734 4.5258 48.7245 4.29276 48.9219C4.05728 49.1193 3.7899 49.2656 3.48818 49.3631C3.18646 49.4581 2.87493 49.5069 2.55358 49.5069C2.08506 49.5069 1.63125 49.4167 1.19462 49.2363C0.75798 49.056 0.392482 48.7976 0.103027 48.4637L1.1382 47.2961C1.29764 47.5155 1.5086 47.6983 1.77107 47.8446C2.03354 47.9908 2.29356 48.0639 2.55113 48.0639C2.66887 48.0639 2.78171 48.0493 2.8921 48.0225C3.00248 47.9957 3.1006 47.9518 3.18401 47.8884C3.26741 47.8275 3.33364 47.7446 3.3827 47.6423C3.43176 47.5399 3.45629 47.418 3.45629 47.2742C3.45629 47.1304 3.4244 47.0207 3.36307 46.9256C3.30175 46.8306 3.21344 46.7428 3.1006 46.6648C2.98776 46.5868 2.84549 46.5137 2.67623 46.4503C2.50697 46.3845 2.31319 46.3163 2.09732 46.2407C1.88882 46.1652 1.68276 46.0774 1.48162 45.975C1.28047 45.8727 1.10385 45.7411 0.944409 45.5802C0.787417 45.4193 0.65986 45.2243 0.566646 44.9976C0.470979 44.7685 0.424371 44.4906 0.424371 44.164C0.424371 43.7619 0.497962 43.4157 0.647595 43.1306C0.794776 42.8429 0.988563 42.6089 1.22896 42.4237C1.46935 42.2385 1.73918 42.1044 2.04336 42.0191C2.34508 41.9338 2.64925 41.8923 2.95833 41.8923C3.32873 41.8923 3.7065 41.9679 4.09162 42.1166C4.47674 42.2677 4.81526 42.4895 5.10471 42.782L4.09652 43.9593L4.09898 43.9568Z" fill="white" fill-opacity="0.92"/>
<path d="M7.9085 45.4728V47.4252C7.9085 47.6641 7.9502 47.8445 8.03361 47.9639C8.11701 48.0833 8.26664 48.1443 8.48251 48.1443C8.5561 48.1443 8.63459 48.137 8.71799 48.1248C8.8014 48.1101 8.87008 48.0906 8.9265 48.0638L8.94612 49.2923C8.84065 49.3337 8.70818 49.3679 8.54874 49.3996C8.38929 49.4312 8.22739 49.4459 8.06795 49.4459C7.75887 49.4459 7.5013 49.402 7.29034 49.3167C7.08184 49.2314 6.91258 49.1071 6.78748 48.9462C6.65992 48.7853 6.56916 48.5928 6.51519 48.371C6.45877 48.1491 6.43179 47.9005 6.43179 47.6275V45.4728H5.69344V44.2249H6.42443V42.8843H7.91341V44.2249H8.99518V45.4728H7.91341H7.9085Z" fill="white" fill-opacity="0.92"/>
<path d="M9.93224 44.9195C10.2021 44.6319 10.5185 44.4174 10.8791 44.2736C11.2397 44.1298 11.6076 44.0591 11.9829 44.0591C12.3583 44.0591 12.6992 44.1127 12.9666 44.2175C13.234 44.3223 13.4523 44.4881 13.6191 44.7099C13.7859 44.9317 13.9061 45.212 13.9846 45.5484C14.0606 45.8872 14.0999 46.2869 14.0999 46.7525V49.3215H12.7139V48.778H12.687C12.5692 48.99 12.3926 49.1533 12.1547 49.2703C11.9167 49.3873 11.6592 49.4434 11.382 49.4434C11.198 49.4434 11.0067 49.4166 10.808 49.3605C10.6117 49.3069 10.4302 49.2167 10.2658 49.0948C10.1015 48.973 9.96903 48.8072 9.86355 48.6025C9.75807 48.3977 9.70656 48.1442 9.70656 47.8444C9.70656 47.4764 9.79732 47.179 9.97884 46.9548C10.1604 46.7305 10.3959 46.555 10.6804 46.4331C10.9674 46.3113 11.2863 46.2284 11.6371 46.187C11.9879 46.1455 12.3313 46.126 12.6624 46.126V46.0432C12.6624 45.7897 12.5815 45.6044 12.422 45.485C12.2626 45.3656 12.0639 45.3071 11.8309 45.3071C11.615 45.3071 11.4065 45.3582 11.2078 45.4606C11.0091 45.563 10.8374 45.6849 10.6951 45.8287L9.92733 44.9171L9.93224 44.9195ZM12.7139 47.0986H12.5202C12.3534 47.0986 12.1865 47.1083 12.0173 47.1229C11.848 47.14 11.6959 47.1717 11.5635 47.2204C11.431 47.2692 11.3206 47.3374 11.2348 47.4301C11.1489 47.5227 11.1048 47.6446 11.1048 47.7932C11.1048 47.8883 11.1244 47.9712 11.1661 48.0394C11.2053 48.1077 11.2569 48.1613 11.3182 48.2027C11.3795 48.2442 11.4506 48.2734 11.5316 48.2905C11.6125 48.3075 11.6886 48.3149 11.7622 48.3149C12.0713 48.3149 12.3067 48.2222 12.4686 48.0345C12.633 47.8469 12.7139 47.5934 12.7139 47.2716V47.0986Z" fill="white" fill-opacity="0.92"/>
<path d="M18.5104 45.6044C18.4417 45.5849 18.3755 45.5703 18.3117 45.563C18.2479 45.5557 18.1841 45.5533 18.1228 45.5533C17.9192 45.5533 17.7475 45.5947 17.6101 45.6751C17.4703 45.758 17.3599 45.8555 17.2765 45.9701C17.1931 46.0871 17.1343 46.2114 17.0975 46.3479C17.0607 46.4844 17.041 46.6038 17.041 46.7062V49.3191H15.5251V44.2273H16.9846V44.9634H17.0042C17.122 44.7026 17.2888 44.4881 17.5047 44.3248C17.7205 44.159 17.9707 44.0762 18.2528 44.0762C18.3142 44.0762 18.3755 44.0786 18.4344 44.0859C18.4932 44.0932 18.5398 44.103 18.5766 44.1176L18.5128 45.602L18.5104 45.6044Z" fill="white" fill-opacity="0.92"/>
<path d="M21.0174 45.4728V47.4252C21.0174 47.6641 21.0591 47.8445 21.1425 47.9639C21.2259 48.0833 21.3755 48.1443 21.5914 48.1443C21.665 48.1443 21.7435 48.137 21.8269 48.1248C21.9103 48.1101 21.979 48.0906 22.0354 48.0638L22.055 49.2923C21.9495 49.3337 21.8171 49.3679 21.6576 49.3996C21.4982 49.4312 21.3363 49.4459 21.1768 49.4459C20.8677 49.4459 20.6102 49.402 20.3992 49.3167C20.1907 49.2314 20.0215 49.1071 19.8963 48.9462C19.7688 48.7853 19.678 48.5928 19.6241 48.371C19.5676 48.1491 19.5407 47.9005 19.5407 47.6275V45.4728H18.8023V44.2249H19.5333V42.8843H21.0223V44.2249H22.1041V45.4728H21.0223H21.0174Z" fill="white" fill-opacity="0.92"/>
<path d="M26.1368 49.3215V48.6147H26.1172C26.0608 48.7317 25.9896 48.8389 25.8989 48.9413C25.8105 49.0437 25.7051 49.1314 25.5849 49.207C25.4647 49.2825 25.3322 49.3435 25.1875 49.3922C25.0428 49.441 24.8907 49.4629 24.7288 49.4629C24.4197 49.4629 24.1597 49.402 23.9487 49.2777C23.7353 49.1558 23.5636 48.9949 23.4311 48.8024C23.2987 48.6074 23.203 48.3856 23.1441 48.1369C23.0853 47.8883 23.0558 47.6348 23.0558 47.374V44.22H24.5816V46.984C24.5816 47.1278 24.5914 47.2643 24.6086 47.3935C24.6282 47.5227 24.6625 47.6397 24.7141 47.7421C24.7656 47.8444 24.8367 47.9249 24.9226 47.9834C25.0084 48.0419 25.1237 48.0711 25.2635 48.0711C25.5284 48.0711 25.7296 47.9614 25.8694 47.7445C26.0092 47.5251 26.0779 47.2692 26.0779 46.9767V44.2224H27.5939V49.3215H26.1343H26.1368Z" fill="white" fill-opacity="0.92"/>
<path d="M34.1974 46.7525C34.1974 47.1083 34.1483 47.4496 34.0502 47.7762C33.9521 48.1028 33.8074 48.3929 33.6209 48.6415C33.432 48.8901 33.2039 49.09 32.9316 49.2411C32.6593 49.3922 32.3527 49.4654 32.0068 49.4654C31.7223 49.4654 31.4549 49.402 31.2023 49.2752C30.9496 49.1485 30.7534 48.9779 30.6111 48.7585H30.5915V51.7785H29.0755V44.2224H30.5179V44.8464H30.5449C30.6871 44.6417 30.8834 44.4613 31.1311 44.3077C31.3789 44.1542 31.6757 44.0762 32.0142 44.0762C32.3527 44.0762 32.6495 44.1469 32.9194 44.2907C33.1892 44.4345 33.4198 44.6295 33.6087 44.8732C33.7975 45.1194 33.9423 45.4046 34.0428 45.7288C34.1459 46.0529 34.1949 46.3917 34.1949 46.7476L34.1974 46.7525ZM32.728 46.7525C32.728 46.5892 32.706 46.4283 32.6593 46.2723C32.6127 46.1163 32.5465 45.9774 32.4557 45.8579C32.3674 45.7385 32.2546 45.641 32.1172 45.5654C31.9823 45.4899 31.8253 45.4533 31.6463 45.4533C31.4672 45.4533 31.32 45.4899 31.1851 45.5654C31.0502 45.641 30.9349 45.7385 30.8392 45.8628C30.7435 45.9847 30.67 46.1261 30.6184 46.2821C30.5669 46.4381 30.5399 46.5989 30.5399 46.7622C30.5399 46.9255 30.5669 47.0864 30.6184 47.2424C30.67 47.3984 30.7435 47.5398 30.8392 47.6616C30.9349 47.7835 31.0502 47.8835 31.1851 47.959C31.32 48.0346 31.4745 48.0711 31.6463 48.0711C31.818 48.0711 31.9823 48.0346 32.1172 47.959C32.2521 47.8835 32.365 47.786 32.4557 47.6616C32.5441 47.5398 32.6127 47.3984 32.6593 47.2375C32.706 47.0767 32.728 46.9158 32.728 46.75V46.7525Z" fill="white" fill-opacity="0.92"/>
<path d="M38.1541 45.7287C38.0314 45.5995 37.8867 45.4899 37.7199 45.4021C37.5531 45.3144 37.3789 45.2681 37.1925 45.2681C37.0502 45.2681 36.9202 45.2997 36.8 45.3607C36.6798 45.4216 36.6185 45.5289 36.6185 45.6775C36.6185 45.8262 36.6847 45.9237 36.8172 45.9847C36.9497 46.0456 37.1631 46.1138 37.4599 46.1894C37.6316 46.2308 37.8058 46.2893 37.9824 46.3625C38.159 46.438 38.316 46.5355 38.4583 46.6598C38.6005 46.7817 38.7134 46.9328 38.7992 47.1108C38.8851 47.2887 38.9292 47.5008 38.9292 47.7445C38.9292 48.0662 38.8704 48.3368 38.7526 48.5586C38.6349 48.7804 38.4828 48.9608 38.2939 49.0973C38.105 49.2338 37.8941 49.3337 37.661 49.3946C37.4255 49.4556 37.1925 49.4873 36.9595 49.4873C36.5842 49.4873 36.2162 49.4215 35.8556 49.2874C35.495 49.1533 35.1958 48.9583 34.9554 48.6975L35.8066 47.7055C35.9415 47.8688 36.1083 48.0053 36.3045 48.115C36.5008 48.2247 36.7117 48.2783 36.9325 48.2783C37.0551 48.2783 37.1778 48.2466 37.298 48.1808C37.4182 48.115 37.4771 48.0029 37.4771 47.8371C37.4771 47.6714 37.4035 47.5641 37.2563 47.4886C37.1091 47.413 36.8785 47.335 36.5621 47.2521C36.4026 47.2107 36.2407 47.1571 36.0813 47.0888C35.9219 47.0206 35.7771 46.928 35.652 46.8134C35.5245 46.6964 35.4214 46.555 35.3429 46.3844C35.262 46.2138 35.2227 46.009 35.2227 45.7702C35.2227 45.463 35.2816 45.2022 35.3994 44.9878C35.5171 44.7733 35.6667 44.5978 35.8532 44.4613C36.0371 44.3248 36.2432 44.2248 36.4689 44.159C36.6946 44.0932 36.9178 44.0615 37.1385 44.0615C37.4844 44.0615 37.8205 44.1225 38.1516 44.2419C38.4803 44.3613 38.76 44.5417 38.9881 44.7806L38.1565 45.7336L38.1541 45.7287Z" fill="white" fill-opacity="0.92"/>
<path d="M41.8336 48.4198C41.8336 48.7074 41.7428 48.9462 41.5613 49.1364C41.3798 49.3265 41.1615 49.424 40.9088 49.424C40.7788 49.424 40.6586 49.3996 40.5433 49.3484C40.428 49.2972 40.3299 49.2266 40.244 49.1388C40.1582 49.0511 40.0895 48.9462 40.0404 48.8268C39.9914 48.7074 39.9669 48.5758 39.9669 48.4319C39.9669 48.2881 39.9914 48.1663 40.0404 48.042C40.0895 47.9201 40.1582 47.8104 40.244 47.7202C40.3299 47.6276 40.4305 47.5545 40.5433 47.5008C40.6562 47.4472 40.7788 47.418 40.9088 47.418C41.1615 47.418 41.3798 47.513 41.5613 47.7056C41.7428 47.8957 41.8336 48.1346 41.8336 48.4222V48.4198Z" fill="white" fill-opacity="0.92"/>
<path d="M49.043 43.9568C48.9081 43.7667 48.729 43.6132 48.5107 43.501C48.2924 43.3889 48.0814 43.3329 47.8778 43.3329C47.7723 43.3329 47.6669 43.3426 47.5589 43.3645C47.451 43.384 47.3529 43.4255 47.267 43.4815C47.1812 43.54 47.1076 43.6156 47.0487 43.7058C46.9898 43.7984 46.9604 43.9154 46.9604 44.0592C46.9604 44.1811 46.9825 44.2835 47.0291 44.3663C47.0757 44.4492 47.1419 44.5199 47.2327 44.5808C47.3234 44.6418 47.4289 44.6978 47.5516 44.749C47.6742 44.8002 47.814 44.8538 47.9686 44.9074C48.1893 44.9903 48.4224 45.0805 48.6628 45.178C48.9032 45.2779 49.1215 45.4096 49.3202 45.5729C49.5164 45.7362 49.6808 45.9409 49.8108 46.1822C49.9408 46.4235 50.0046 46.7258 50.0046 47.089C50.0046 47.5058 49.9359 47.8665 49.7961 48.1687C49.6562 48.4734 49.4698 48.7245 49.2368 48.9219C49.0013 49.1193 48.7339 49.2656 48.4322 49.3631C48.1305 49.4581 47.8189 49.5069 47.4976 49.5069C47.0291 49.5069 46.5753 49.4167 46.1386 49.2363C45.702 49.056 45.3365 48.7976 45.047 48.4637L46.0822 47.2961C46.2417 47.5155 46.4526 47.6983 46.7151 47.8446C46.9776 47.9908 47.2376 48.0639 47.4951 48.0639C47.6129 48.0639 47.7257 48.0493 47.8361 48.0225C47.9465 47.9957 48.0446 47.9518 48.128 47.8884C48.2114 47.8275 48.2777 47.7446 48.3267 47.6423C48.3758 47.5399 48.4003 47.418 48.4003 47.2742C48.4003 47.1304 48.3684 47.0207 48.3071 46.9256C48.2458 46.8306 48.1575 46.7428 48.0446 46.6648C47.9318 46.5868 47.7895 46.5137 47.6202 46.4503C47.451 46.3845 47.2572 46.3163 47.0413 46.2407C46.8328 46.1652 46.6268 46.0774 46.4256 45.975C46.2245 45.8727 46.0479 45.7411 45.8884 45.5802C45.7314 45.4193 45.6039 45.2243 45.5107 44.9976C45.415 44.7685 45.3684 44.4906 45.3684 44.164C45.3684 43.7619 45.442 43.4157 45.5916 43.1306C45.7388 42.8429 45.9326 42.6089 46.173 42.4237C46.4134 42.2385 46.6832 42.1044 46.9874 42.0191C47.2891 41.9338 47.5933 41.8923 47.9023 41.8923C48.2727 41.8923 48.6505 41.9679 49.0356 42.1166C49.4208 42.2677 49.7593 42.4895 50.0487 42.782L49.0405 43.9593L49.043 43.9568Z" fill="white" fill-opacity="0.92"/>
<path d="M55.828 46.8329V47.0376C55.828 47.1059 55.8256 47.1717 55.8182 47.2326H52.4821C52.4944 47.3764 52.5336 47.5056 52.5974 47.6226C52.6612 47.7396 52.7446 47.8395 52.8476 47.9249C52.9482 48.0102 53.0635 48.076 53.1886 48.1247C53.3137 48.1735 53.4461 48.1954 53.5811 48.1954C53.8214 48.1954 54.025 48.1467 54.1919 48.0467C54.3587 47.9468 54.4936 47.82 54.5991 47.6616L55.6538 48.3977C55.438 48.7463 55.1534 49.0144 54.7977 49.2021C54.4421 49.3898 54.0324 49.4824 53.5639 49.4824C53.218 49.4824 52.8918 49.4214 52.5851 49.3044C52.2761 49.185 52.0062 49.012 51.7756 48.7828C51.5451 48.5537 51.3635 48.2734 51.2311 47.937C51.0986 47.6031 51.0324 47.2204 51.0324 46.7914C51.0324 46.3625 51.0962 45.9968 51.2262 45.6605C51.3562 45.3217 51.5303 45.0365 51.7536 44.8001C51.9743 44.5636 52.2368 44.3833 52.5385 44.2516C52.8402 44.1225 53.1665 44.0566 53.5173 44.0566C53.8681 44.0566 54.1673 44.12 54.4519 44.2468C54.7364 44.3735 54.9793 44.5563 55.1829 44.7952C55.3865 45.0341 55.5459 45.3241 55.6588 45.6654C55.7716 46.0066 55.8305 46.3966 55.8305 46.8329H55.828ZM54.4322 46.1894C54.4322 45.9237 54.3562 45.6946 54.2066 45.5045C54.0545 45.3144 53.8288 45.2169 53.5271 45.2169C53.3799 45.2169 53.2425 45.2412 53.1199 45.2949C52.9972 45.346 52.8893 45.4167 52.7961 45.5045C52.7029 45.5922 52.6293 45.697 52.5753 45.8165C52.5189 45.9359 52.4895 46.0602 52.4821 46.1894H54.4322Z" fill="white" fill-opacity="0.92"/>
<path d="M60.2483 45.8701C60.1625 45.7482 60.0447 45.6483 59.8976 45.5727C59.7504 45.4972 59.5983 45.4606 59.4437 45.4606C59.2892 45.4606 59.1396 45.4972 59.0096 45.5678C58.8796 45.6385 58.7692 45.736 58.676 45.8555C58.5827 45.9749 58.5116 46.1138 58.4576 46.2698C58.4061 46.4258 58.3791 46.594 58.3791 46.7719C58.3791 46.9499 58.4037 47.1156 58.4527 47.2741C58.5018 47.43 58.5754 47.569 58.671 47.6884C58.7667 47.8079 58.8796 47.9029 59.012 47.9687C59.1445 48.037 59.2941 48.0711 59.4609 48.0711C59.6155 48.0711 59.7675 48.0394 59.9196 47.9736C60.0717 47.9078 60.1919 47.8152 60.2851 47.6933L61.1265 48.8291C60.9352 49.0339 60.6899 49.1948 60.3882 49.3093C60.0864 49.4263 59.7651 49.4824 59.4266 49.4824C59.0635 49.4824 58.7226 49.4214 58.4086 49.2971C58.0946 49.1728 57.8199 48.9949 57.5868 48.7585C57.3538 48.522 57.1723 48.2368 57.0373 47.9029C56.9049 47.569 56.8387 47.1887 56.8387 46.7671C56.8387 46.3454 56.9049 45.9749 57.0373 45.641C57.1698 45.307 57.3538 45.0219 57.5868 44.7854C57.8199 44.549 58.0921 44.3686 58.4086 44.2419C58.725 44.1151 59.0611 44.0518 59.4168 44.0518C59.5836 44.0518 59.7479 44.0688 59.9123 44.1029C60.0766 44.1371 60.2336 44.1834 60.3832 44.2419C60.5353 44.3004 60.6727 44.3711 60.8003 44.4564C60.9254 44.5417 61.0357 44.6367 61.129 44.7391L60.2508 45.8652L60.2483 45.8701Z" fill="white" fill-opacity="0.92"/>
<path d="M65.044 49.3215V48.6147H65.0243C64.9679 48.7317 64.8968 48.8389 64.806 48.9413C64.7177 49.0437 64.6122 49.1314 64.492 49.207C64.3718 49.2825 64.2394 49.3435 64.0946 49.3922C63.9499 49.441 63.7978 49.4629 63.6359 49.4629C63.3269 49.4629 63.0668 49.402 62.8559 49.2777C62.6425 49.1558 62.4708 48.9949 62.3383 48.8024C62.2058 48.6074 62.1102 48.3856 62.0513 48.1369C61.9924 47.8883 61.963 47.6348 61.963 47.374V44.22H63.4888V46.984C63.4888 47.1278 63.4986 47.2643 63.5157 47.3935C63.5354 47.5227 63.5697 47.6397 63.6212 47.7421C63.6727 47.8444 63.7439 47.9249 63.8297 47.9834C63.9156 48.0419 64.0309 48.0711 64.1707 48.0711C64.4356 48.0711 64.6368 47.9614 64.7766 47.7445C64.9164 47.5251 64.9851 47.2692 64.9851 46.9767V44.2224H66.501V49.3215H65.0415H65.044Z" fill="white" fill-opacity="0.92"/>
<path d="M70.9704 45.6044C70.9017 45.5849 70.8355 45.5703 70.7717 45.563C70.708 45.5557 70.6442 45.5533 70.5828 45.5533C70.3792 45.5533 70.2075 45.5947 70.0702 45.6751C69.9303 45.758 69.82 45.8555 69.7366 45.9701C69.6532 46.0871 69.5943 46.2114 69.5575 46.3479C69.5207 46.4844 69.5011 46.6038 69.5011 46.7062V49.3191H67.9851V44.2273H69.4447V44.9634H69.4643C69.582 44.7026 69.7488 44.4881 69.9647 44.3248C70.1806 44.159 70.4308 44.0762 70.7129 44.0762C70.7742 44.0762 70.8355 44.0786 70.8944 44.0859C70.9533 44.0932 70.9999 44.103 71.0366 44.1176L70.9729 45.602L70.9704 45.6044Z" fill="white" fill-opacity="0.92"/>
<path d="M73.5878 42.5942C73.5878 42.7234 73.5657 42.8453 73.5191 42.9574C73.4725 43.0695 73.4112 43.167 73.3351 43.2499C73.2591 43.3327 73.1659 43.3961 73.0579 43.4449C72.95 43.4936 72.8372 43.5156 72.7194 43.5156C72.4741 43.5156 72.2656 43.4254 72.1012 43.245C71.9344 43.0646 71.851 42.8477 71.851 42.5942C71.851 42.4723 71.8731 42.3529 71.9148 42.2408C71.959 42.1287 72.0203 42.0312 72.0988 41.9483C72.1797 41.8654 72.2705 41.7996 72.376 41.7484C72.4815 41.6972 72.5943 41.6729 72.717 41.6729C72.8396 41.6729 72.9475 41.6972 73.0555 41.7435C73.1634 41.7923 73.2566 41.8557 73.3327 41.9385C73.4087 42.0214 73.4725 42.1165 73.5166 42.231C73.5632 42.3431 73.5853 42.465 73.5853 42.5942H73.5878ZM71.959 49.3215V44.2224H73.4749V49.3215H71.959Z" fill="white" fill-opacity="0.92"/>
<path d="M76.6172 45.4728V47.4252C76.6172 47.6641 76.6589 47.8445 76.7423 47.9639C76.8257 48.0833 76.9754 48.1443 77.1912 48.1443C77.2648 48.1443 77.3433 48.137 77.4267 48.1248C77.5101 48.1101 77.5788 48.0906 77.6352 48.0638L77.6549 49.2923C77.5494 49.3337 77.4169 49.3679 77.2575 49.3996C77.098 49.4312 76.9361 49.4459 76.7767 49.4459C76.4676 49.4459 76.21 49.402 75.9991 49.3167C75.7906 49.2314 75.6213 49.1071 75.4962 48.9462C75.3687 48.7853 75.2779 48.5928 75.2239 48.371C75.1675 48.1491 75.1405 47.9005 75.1405 47.6275V45.4728H74.4022V44.2249H75.1332V42.8843H76.6221V44.2249H77.7039V45.4728H76.6221H76.6172Z" fill="white" fill-opacity="0.92"/>
<path d="M81.3049 50.0893C81.2117 50.355 81.1087 50.5914 80.9959 50.8011C80.883 51.0082 80.7457 51.1862 80.5887 51.3324C80.4317 51.4787 80.2477 51.5908 80.0343 51.6663C79.8209 51.7419 79.5707 51.7785 79.2812 51.7785C79.1389 51.7785 78.9942 51.7687 78.8421 51.7468C78.69 51.7248 78.56 51.698 78.4496 51.6639L78.6164 50.2502C78.69 50.277 78.771 50.2989 78.8617 50.316C78.95 50.3331 79.0335 50.3404 79.107 50.3404C79.3401 50.3404 79.5118 50.2794 79.6148 50.16C79.7203 50.0406 79.8086 49.8724 79.8822 49.653L80.0294 49.2338L78.1062 44.2175H79.789L80.8143 47.4934H80.8413L81.7563 44.2175H83.3655L81.3049 50.0844V50.0893Z" fill="white" fill-opacity="0.92"/>
<path d="M85.6394 48.4198C85.6394 48.7074 85.5487 48.9462 85.3671 49.1364C85.1856 49.3265 84.9673 49.424 84.7146 49.424C84.5846 49.424 84.4644 49.3996 84.3491 49.3484C84.2338 49.2972 84.1357 49.2266 84.0499 49.1388C83.964 49.0511 83.8953 48.9462 83.8463 48.8268C83.7972 48.7074 83.7727 48.5758 83.7727 48.4319C83.7727 48.2881 83.7972 48.1663 83.8463 48.042C83.8953 47.9201 83.964 47.8104 84.0499 47.7202C84.1357 47.6276 84.2363 47.5545 84.3491 47.5008C84.462 47.4472 84.5846 47.418 84.7146 47.418C84.9673 47.418 85.1856 47.513 85.3671 47.7056C85.5487 47.8957 85.6394 48.1346 85.6394 48.4222V48.4198Z" fill="white" fill-opacity="0.92"/>
<path d="M95.503 45.6775C95.503 46.3112 95.3975 46.8596 95.1841 47.3203C94.9707 47.781 94.691 48.1588 94.3427 48.4562C93.9944 48.7535 93.6019 48.9705 93.1652 49.1118C92.7286 49.2508 92.2846 49.3215 91.8333 49.3215H89.3925V42.0725H91.7597C92.2208 42.0725 92.6771 42.1334 93.1284 42.2529C93.5773 42.3723 93.9796 42.5697 94.3304 42.8476C94.6812 43.123 94.9657 43.4935 95.1816 43.9591C95.3975 44.4222 95.5054 44.9974 95.5054 45.6799L95.503 45.6775ZM93.857 45.6775C93.857 45.268 93.7981 44.9292 93.6779 44.6586C93.5577 44.3881 93.3983 44.1736 93.1971 44.0127C92.996 43.8518 92.7679 43.7373 92.5127 43.669C92.2576 43.6008 91.9927 43.5667 91.7229 43.5667H90.9379V47.8054H91.6861C91.9706 47.8054 92.2429 47.7688 92.5029 47.6981C92.7654 47.6274 92.996 47.508 93.1971 47.3447C93.3983 47.1814 93.5577 46.962 93.6779 46.689C93.7981 46.416 93.857 46.0772 93.857 45.675V45.6775Z" fill="white" fill-opacity="0.92"/>
<path d="M101.326 46.8329V47.0376C101.326 47.1059 101.324 47.1717 101.317 47.2326H97.9805C97.9928 47.3764 98.032 47.5056 98.0958 47.6226C98.1596 47.7396 98.243 47.8395 98.346 47.9249C98.4466 48.0102 98.5619 48.076 98.687 48.1247C98.8121 48.1735 98.9445 48.1954 99.0794 48.1954C99.3198 48.1954 99.5234 48.1467 99.6902 48.0467C99.857 47.9468 99.992 47.82 100.097 47.6616L101.152 48.3977C100.936 48.7463 100.652 49.0144 100.296 49.2021C99.9404 49.3898 99.5308 49.4824 99.0623 49.4824C98.7164 49.4824 98.3901 49.4214 98.0835 49.3044C97.7744 49.185 97.5046 49.012 97.274 48.7828C97.0434 48.5537 96.8619 48.2734 96.7295 47.937C96.597 47.6031 96.5308 47.2204 96.5308 46.7914C96.5308 46.3625 96.5945 45.9968 96.7246 45.6605C96.8546 45.3217 97.0287 45.0365 97.2519 44.8001C97.4727 44.5636 97.7352 44.3833 98.0369 44.2516C98.3386 44.1225 98.6649 44.0566 99.0157 44.0566C99.3664 44.0566 99.6657 44.12 99.9503 44.2468C100.235 44.3735 100.478 44.5563 100.681 44.7952C100.885 45.0341 101.044 45.3241 101.157 45.6654C101.27 46.0066 101.329 46.3966 101.329 46.8329H101.326ZM99.9306 46.1894C99.9306 45.9237 99.8546 45.6946 99.705 45.5045C99.5529 45.3144 99.3272 45.2169 99.0255 45.2169C98.8783 45.2169 98.7409 45.2412 98.6183 45.2949C98.4956 45.346 98.3877 45.4167 98.2945 45.5045C98.2013 45.5922 98.1277 45.697 98.0737 45.8165C98.0173 45.9359 97.9878 46.0602 97.9805 46.1894H99.9306Z" fill="white" fill-opacity="0.92"/>
<path d="M105.423 42.8209C105.366 42.8014 105.303 42.7843 105.229 42.7697C105.156 42.7551 105.082 42.7502 105.008 42.7502C104.866 42.7502 104.753 42.777 104.667 42.8331C104.582 42.8867 104.513 42.9598 104.464 43.0525C104.415 43.1451 104.38 43.2499 104.363 43.3645C104.344 43.4815 104.336 43.596 104.336 43.713V44.2249H105.362V45.4728H104.336V49.3216H102.82V45.4728H101.979V44.2249H102.82V43.7325C102.82 43.4181 102.85 43.1207 102.913 42.8355C102.975 42.5528 103.08 42.3042 103.232 42.0872C103.384 41.8727 103.586 41.7021 103.843 41.5754C104.098 41.4486 104.417 41.3853 104.8 41.3853C104.93 41.3853 105.057 41.395 105.183 41.4096C105.308 41.4267 105.425 41.4535 105.528 41.4876L105.428 42.8185L105.423 42.8209Z" fill="white" fill-opacity="0.92"/>
<path d="M110.793 46.8329V47.0376C110.793 47.1059 110.79 47.1717 110.783 47.2326H107.447C107.459 47.3764 107.498 47.5056 107.562 47.6226C107.626 47.7396 107.709 47.8395 107.812 47.9249C107.913 48.0102 108.028 48.076 108.153 48.1247C108.278 48.1735 108.411 48.1954 108.546 48.1954C108.786 48.1954 108.99 48.1467 109.156 48.0467C109.323 47.9468 109.458 47.82 109.564 47.6616L110.618 48.3977C110.403 48.7463 110.118 49.0144 109.762 49.2021C109.407 49.3898 108.997 49.4824 108.528 49.4824C108.183 49.4824 107.856 49.4214 107.55 49.3044C107.241 49.185 106.971 49.012 106.74 48.7828C106.51 48.5537 106.328 48.2734 106.196 47.937C106.063 47.6031 105.997 47.2204 105.997 46.7914C105.997 46.3625 106.061 45.9968 106.191 45.6605C106.321 45.3217 106.495 45.0365 106.718 44.8001C106.939 44.5636 107.201 44.3833 107.503 44.2516C107.805 44.1225 108.131 44.0566 108.482 44.0566C108.833 44.0566 109.132 44.12 109.416 44.2468C109.701 44.3735 109.944 44.5563 110.147 44.7952C110.351 45.0341 110.51 45.3241 110.623 45.6654C110.736 46.0066 110.795 46.3966 110.795 46.8329H110.793ZM109.397 46.1894C109.397 45.9237 109.321 45.6946 109.171 45.5045C109.019 45.3144 108.793 45.2169 108.492 45.2169C108.344 45.2169 108.207 45.2412 108.084 45.2949C107.962 45.346 107.854 45.4167 107.761 45.5045C107.667 45.5922 107.594 45.697 107.54 45.8165C107.483 45.9359 107.454 46.0602 107.447 46.1894H109.397Z" fill="white" fill-opacity="0.92"/>
<path d="M115.056 49.3215V46.5356C115.056 46.3917 115.046 46.2552 115.024 46.1261C115.002 45.9969 114.968 45.8823 114.919 45.7824C114.869 45.6824 114.801 45.6045 114.71 45.546C114.622 45.4875 114.509 45.4582 114.371 45.4582C114.234 45.4582 114.116 45.4875 114.016 45.546C113.915 45.6045 113.829 45.6849 113.761 45.7873C113.692 45.8896 113.643 46.0066 113.609 46.1407C113.574 46.2747 113.557 46.4112 113.557 46.5551V49.3191H112.031V44.22H113.501V44.9268H113.52C113.577 44.8172 113.648 44.7099 113.736 44.6051C113.824 44.5003 113.93 44.4101 114.05 44.3345C114.17 44.259 114.3 44.198 114.443 44.1493C114.585 44.1006 114.735 44.0786 114.896 44.0786C115.206 44.0786 115.466 44.1396 115.681 44.2639C115.897 44.3857 116.071 44.5466 116.204 44.7392C116.336 44.9342 116.432 45.1584 116.491 45.4095C116.55 45.663 116.579 45.914 116.579 46.1675V49.3215H115.053H115.056Z" fill="white" fill-opacity="0.92"/>
<path d="M121.201 45.8701C121.115 45.7482 120.997 45.6483 120.85 45.5727C120.703 45.4972 120.551 45.4606 120.396 45.4606C120.242 45.4606 120.092 45.4972 119.962 45.5678C119.832 45.6385 119.721 45.736 119.628 45.8555C119.535 45.9749 119.464 46.1138 119.41 46.2698C119.358 46.4258 119.331 46.594 119.331 46.7719C119.331 46.9499 119.356 47.1156 119.405 47.2741C119.454 47.43 119.528 47.569 119.623 47.6884C119.719 47.8079 119.832 47.9029 119.964 47.9687C120.097 48.037 120.246 48.0711 120.413 48.0711C120.568 48.0711 120.72 48.0394 120.872 47.9736C121.024 47.9078 121.144 47.8152 121.237 47.6933L122.079 48.8291C121.888 49.0339 121.642 49.1948 121.34 49.3093C121.039 49.4263 120.717 49.4824 120.379 49.4824C120.016 49.4824 119.675 49.4214 119.361 49.2971C119.047 49.1728 118.772 48.9949 118.539 48.7585C118.306 48.522 118.125 48.2368 117.99 47.9029C117.857 47.569 117.791 47.1887 117.791 46.7671C117.791 46.3454 117.857 45.9749 117.99 45.641C118.122 45.307 118.306 45.0219 118.539 44.7854C118.772 44.549 119.044 44.3686 119.361 44.2419C119.677 44.1151 120.013 44.0518 120.369 44.0518C120.536 44.0518 120.7 44.0688 120.865 44.1029C121.029 44.1371 121.186 44.1834 121.336 44.2419C121.488 44.3004 121.625 44.3711 121.753 44.4564C121.878 44.5417 121.988 44.6367 122.081 44.7391L121.203 45.8652L121.201 45.8701Z" fill="white" fill-opacity="0.92"/>
<path d="M127.534 46.8329V47.0376C127.534 47.1059 127.532 47.1717 127.525 47.2326H124.188C124.201 47.3764 124.24 47.5056 124.304 47.6226C124.368 47.7396 124.451 47.8395 124.554 47.9249C124.655 48.0102 124.77 48.076 124.895 48.1247C125.02 48.1735 125.152 48.1954 125.287 48.1954C125.528 48.1954 125.731 48.1467 125.898 48.0467C126.065 47.9468 126.2 47.82 126.305 47.6616L127.36 48.3977C127.144 48.7463 126.86 49.0144 126.504 49.2021C126.148 49.3898 125.739 49.4824 125.27 49.4824C124.924 49.4824 124.598 49.4214 124.291 49.3044C123.982 49.185 123.713 49.012 123.482 48.7828C123.251 48.5537 123.07 48.2734 122.937 47.937C122.805 47.6031 122.739 47.2204 122.739 46.7914C122.739 46.3625 122.802 45.9968 122.932 45.6605C123.063 45.3217 123.237 45.0365 123.46 44.8001C123.681 44.5636 123.943 44.3833 124.245 44.2516C124.547 44.1225 124.873 44.0566 125.224 44.0566C125.574 44.0566 125.874 44.12 126.158 44.2468C126.443 44.3735 126.686 44.5563 126.889 44.7952C127.093 45.0341 127.252 45.3241 127.365 45.6654C127.478 46.0066 127.537 46.3966 127.537 46.8329H127.534ZM126.139 46.1894C126.139 45.9237 126.063 45.6946 125.913 45.5045C125.761 45.3144 125.535 45.2169 125.233 45.2169C125.086 45.2169 124.949 45.2412 124.826 45.2949C124.704 45.346 124.596 45.4167 124.502 45.5045C124.409 45.5922 124.336 45.697 124.282 45.8165C124.225 45.9359 124.196 46.0602 124.188 46.1894H126.139Z" fill="white" fill-opacity="0.92"/>
<path d="M130.5 48.4198C130.5 48.7074 130.409 48.9462 130.228 49.1364C130.046 49.3265 129.828 49.424 129.575 49.424C129.445 49.424 129.325 49.3996 129.21 49.3484C129.094 49.2972 128.996 49.2266 128.91 49.1388C128.825 49.0511 128.756 48.9462 128.707 48.8268C128.658 48.7074 128.633 48.5758 128.633 48.4319C128.633 48.2881 128.658 48.1663 128.707 48.042C128.756 47.9201 128.825 47.8104 128.91 47.7202C128.996 47.6276 129.097 47.5545 129.21 47.5008C129.323 47.4472 129.445 47.418 129.575 47.418C129.828 47.418 130.046 47.513 130.228 47.7056C130.409 47.8957 130.5 48.1346 130.5 48.4222V48.4198Z" fill="white" fill-opacity="0.92"/>
<path d="M85.3352 59.0642C85.1513 59.3421 84.9109 59.5663 84.6165 59.7394C84.3221 59.9124 83.9664 59.9977 83.5543 59.9977C83.1987 59.9977 82.87 59.9295 82.5682 59.7954C82.2665 59.6614 82.0065 59.4737 81.7882 59.2324C81.5699 58.9911 81.4006 58.7035 81.2755 58.3695C81.1528 58.0356 81.0915 57.6675 81.0915 57.2678C81.0915 56.8681 81.1553 56.4951 81.2804 56.1612C81.4055 55.8273 81.5797 55.5421 81.8029 55.3057C82.0261 55.0692 82.2886 54.884 82.5928 54.7524C82.8969 54.6207 83.2256 54.5549 83.5838 54.5549C83.7432 54.5549 83.9027 54.572 84.0646 54.6061C84.2265 54.6402 84.3835 54.6914 84.5331 54.7597C84.6827 54.8279 84.8201 54.9132 84.9427 55.0132C85.0654 55.1131 85.1709 55.2277 85.2592 55.3593L84.7441 55.798C84.6288 55.6225 84.4669 55.4787 84.2584 55.3642C84.0499 55.2496 83.8242 55.1911 83.5813 55.1911C83.309 55.1911 83.0637 55.2472 82.8454 55.3544C82.6271 55.4641 82.4407 55.6128 82.2886 55.8053C82.1341 55.9955 82.0163 56.2173 81.9329 56.4659C81.8495 56.7169 81.8078 56.9851 81.8078 57.2678C81.8078 57.5505 81.8495 57.8333 81.9305 58.0868C82.0114 58.3403 82.1291 58.5621 82.2812 58.7473C82.4333 58.935 82.6173 59.0837 82.8356 59.1909C83.0539 59.2982 83.2968 59.3518 83.5642 59.3518C83.8315 59.3518 84.067 59.2933 84.2829 59.1763C84.4988 59.0593 84.6778 58.8887 84.8176 58.6645L85.3401 59.0593L85.3352 59.0642Z" fill="white" fill-opacity="0.92"/>
<path d="M89.2699 58.1281C89.2699 58.3963 89.2281 58.6424 89.1423 58.8667C89.0564 59.0909 88.9387 59.2835 88.7866 59.4468C88.6345 59.6101 88.4555 59.7369 88.2494 59.827C88.0433 59.9172 87.8201 59.9635 87.5822 59.9635C87.3442 59.9635 87.121 59.9172 86.915 59.827C86.7089 59.7369 86.5298 59.6101 86.3802 59.4468C86.2306 59.2835 86.1128 59.0909 86.027 58.8667C85.9411 58.6424 85.8994 58.3963 85.8994 58.1281C85.8994 57.86 85.9411 57.6163 86.027 57.3945C86.1128 57.1727 86.2306 56.9801 86.3802 56.8217C86.5298 56.6608 86.7089 56.5365 86.915 56.4439C87.121 56.3537 87.3442 56.3098 87.5822 56.3098C87.8201 56.3098 88.0433 56.3561 88.2494 56.4439C88.4555 56.5341 88.637 56.6608 88.7866 56.8217C88.9387 56.9825 89.0564 57.1727 89.1423 57.3945C89.2281 57.6163 89.2699 57.8625 89.2699 58.1281ZM88.6223 58.1306C88.6223 57.9648 88.6002 57.8064 88.5536 57.6577C88.507 57.5066 88.4407 57.375 88.3524 57.2604C88.2641 57.1459 88.1537 57.0557 88.0237 56.9874C87.8937 56.9192 87.7441 56.8851 87.5773 56.8851C87.4105 56.8851 87.2608 56.9192 87.1308 56.9874C87.0008 57.0557 86.8904 57.1459 86.8021 57.2604C86.7138 57.375 86.6476 57.5066 86.601 57.6577C86.5544 57.8088 86.5323 57.9673 86.5323 58.1306C86.5323 58.2939 86.5544 58.4548 86.601 58.6034C86.6476 58.7546 86.7138 58.8886 86.8021 59.0056C86.8904 59.1226 87.0008 59.2152 87.1308 59.2835C87.2608 59.3517 87.4105 59.3859 87.5773 59.3859C87.7441 59.3859 87.8937 59.3517 88.0237 59.2835C88.1537 59.2152 88.2641 59.1226 88.3524 59.0056C88.4407 58.8886 88.507 58.7546 88.5536 58.6034C88.6002 58.4523 88.6223 58.2939 88.6223 58.1306Z" fill="white" fill-opacity="0.92"/>
<path d="M90.987 56.9289C91.0606 56.7583 91.1906 56.612 91.3696 56.4902C91.5512 56.3683 91.7523 56.3073 91.978 56.3073C92.1816 56.3073 92.3533 56.3439 92.5005 56.4195C92.6452 56.495 92.7654 56.5974 92.8635 56.7242C92.9616 56.8509 93.0328 56.9996 93.0794 57.1702C93.126 57.3408 93.1481 57.5236 93.1481 57.7186V59.8684H92.5274V57.9477C92.5274 57.8064 92.5176 57.6723 92.498 57.5456C92.4784 57.4188 92.4416 57.3067 92.3901 57.2092C92.3386 57.1117 92.265 57.0337 92.1742 56.9752C92.0835 56.9167 91.9657 56.8875 91.821 56.8875C91.5757 56.8875 91.3721 56.9923 91.2126 57.1995C91.0532 57.4066 90.9747 57.6845 90.9747 58.0306V59.8709H90.3541V54.3428H90.9747V56.9313H90.987V56.9289Z" fill="white" fill-opacity="0.92"/>
<path d="M97.5757 58.1281C97.5757 58.3963 97.534 58.6424 97.4482 58.8667C97.3623 59.0909 97.2446 59.2835 97.0925 59.4468C96.9404 59.6101 96.7613 59.7369 96.5553 59.827C96.3492 59.9172 96.126 59.9635 95.8881 59.9635C95.6501 59.9635 95.4269 59.9172 95.2208 59.827C95.0148 59.7369 94.8357 59.6101 94.6861 59.4468C94.5365 59.2835 94.4187 59.0909 94.3329 58.8667C94.247 58.6424 94.2053 58.3963 94.2053 58.1281C94.2053 57.86 94.247 57.6163 94.3329 57.3945C94.4187 57.1727 94.5365 56.9801 94.6861 56.8217C94.8357 56.6608 95.0148 56.5365 95.2208 56.4439C95.4269 56.3537 95.6501 56.3098 95.8881 56.3098C96.126 56.3098 96.3492 56.3561 96.5553 56.4439C96.7613 56.5341 96.9429 56.6608 97.0925 56.8217C97.2446 56.9825 97.3623 57.1727 97.4482 57.3945C97.534 57.6163 97.5757 57.8625 97.5757 58.1281ZM96.9281 58.1306C96.9281 57.9648 96.9061 57.8064 96.8595 57.6577C96.8128 57.5066 96.7466 57.375 96.6583 57.2604C96.57 57.1459 96.4596 57.0557 96.3296 56.9874C96.1996 56.9192 96.05 56.8851 95.8832 56.8851C95.7164 56.8851 95.5667 56.9192 95.4367 56.9874C95.3067 57.0557 95.1963 57.1459 95.108 57.2604C95.0197 57.375 94.9535 57.5066 94.9069 57.6577C94.8603 57.8088 94.8382 57.9673 94.8382 58.1306C94.8382 58.2939 94.8603 58.4548 94.9069 58.6034C94.9535 58.7546 95.0197 58.8886 95.108 59.0056C95.1963 59.1226 95.3067 59.2152 95.4367 59.2835C95.5667 59.3517 95.7164 59.3859 95.8832 59.3859C96.05 59.3859 96.1996 59.3517 96.3296 59.2835C96.4596 59.2152 96.57 59.1226 96.6583 59.0056C96.7466 58.8886 96.8128 58.7546 96.8595 58.6034C96.9061 58.4523 96.9281 58.2939 96.9281 58.1306Z" fill="white" fill-opacity="0.92"/>
<path d="M98.6379 56.79C98.633 56.6437 98.6281 56.5146 98.6183 56.4024H99.207C99.2168 56.4902 99.2217 56.5926 99.2266 56.7071C99.2315 56.8217 99.234 56.9143 99.234 56.9899H99.2536C99.3419 56.7851 99.4695 56.6194 99.6387 56.4951C99.808 56.3707 99.9993 56.3098 100.21 56.3098C100.306 56.3098 100.389 56.3196 100.456 56.3391L100.429 56.9752C100.34 56.9509 100.245 56.9387 100.144 56.9387C99.9944 56.9387 99.8644 56.9679 99.754 57.0313C99.6436 57.0922 99.5529 57.1727 99.4793 57.275C99.4057 57.3774 99.3517 57.4968 99.3174 57.6309C99.283 57.765 99.2634 57.9039 99.2634 58.0501V59.8709H98.6428V57.1507C98.6428 57.0581 98.6428 56.9387 98.6354 56.7924L98.6379 56.79Z" fill="white" fill-opacity="0.92"/>
<path d="M102.698 56.9655H101.866V58.7667C101.866 58.9764 101.9 59.1251 101.972 59.2152C102.043 59.3054 102.153 59.3493 102.308 59.3493C102.364 59.3493 102.425 59.342 102.492 59.3298C102.558 59.3176 102.617 59.2957 102.671 59.2689L102.69 59.8319C102.614 59.8612 102.533 59.8831 102.443 59.9002C102.352 59.9172 102.259 59.927 102.163 59.927C101.869 59.927 101.643 59.8368 101.486 59.6564C101.329 59.476 101.25 59.2055 101.25 58.8447V56.9655H100.649V56.4024H101.25V55.408H101.864V56.4024H102.695V56.9655H102.698Z" fill="white" fill-opacity="0.92"/>
<path d="M107.373 59.8685H106.74V55.5543L105.855 56.3732L105.479 55.8833L106.806 54.6914H107.376V59.8685H107.373Z" fill="white" fill-opacity="0.92"/>
<path d="M114.325 59.8686H111.276V59.1885L113.138 57.1411C113.277 56.9802 113.4 56.812 113.501 56.6365C113.601 56.461 113.653 56.2636 113.653 56.0442C113.653 55.9077 113.631 55.7858 113.587 55.6737C113.542 55.564 113.483 55.4714 113.407 55.3934C113.331 55.3154 113.246 55.2569 113.143 55.2131C113.042 55.1716 112.934 55.1521 112.819 55.1521C112.581 55.1521 112.385 55.2374 112.23 55.4056C112.075 55.5738 111.98 55.7883 111.941 56.0515L111.313 55.9345C111.34 55.7395 111.396 55.5592 111.482 55.391C111.568 55.2228 111.676 55.0766 111.808 54.9522C111.941 54.8279 112.093 54.7329 112.267 54.6622C112.441 54.5939 112.627 54.5598 112.824 54.5598C113.02 54.5598 113.204 54.5915 113.38 54.6549C113.56 54.7182 113.717 54.8109 113.851 54.9327C113.989 55.0546 114.097 55.2082 114.178 55.3934C114.259 55.5787 114.3 55.7907 114.3 56.0296C114.3 56.1953 114.281 56.3489 114.241 56.4903C114.202 56.6316 114.148 56.7657 114.08 56.8924C114.011 57.0192 113.93 57.1411 113.839 57.2532C113.746 57.3677 113.65 57.4823 113.55 57.5944L112.031 59.2324H114.322V59.8686H114.325Z" fill="white" fill-opacity="0.92"/>
<path d="M116.984 54.5598C117.261 54.5598 117.499 54.6305 117.7 54.7719C117.901 54.9132 118.066 55.1082 118.196 55.3544C118.326 55.6006 118.421 55.8882 118.483 56.2197C118.544 56.5512 118.576 56.9046 118.576 57.28C118.576 57.6554 118.544 58.0161 118.483 58.3452C118.421 58.6742 118.326 58.9618 118.196 59.208C118.066 59.4542 117.901 59.6492 117.7 59.7881C117.499 59.9295 117.261 60.0002 116.984 60.0002C116.707 60.0002 116.466 59.9295 116.265 59.7881C116.062 59.6467 115.897 59.4518 115.767 59.208C115.637 58.9643 115.542 58.6742 115.48 58.3452C115.419 58.0161 115.387 57.6602 115.387 57.28C115.387 56.8998 115.419 56.5512 115.48 56.2197C115.542 55.8882 115.637 55.6006 115.767 55.3544C115.897 55.1082 116.064 54.9157 116.265 54.7719C116.469 54.6305 116.707 54.5598 116.984 54.5598ZM116.984 55.1521C116.79 55.1521 116.631 55.2228 116.508 55.3593C116.385 55.4982 116.29 55.6737 116.221 55.8858C116.152 56.0978 116.106 56.327 116.079 56.5756C116.052 56.8242 116.04 57.0582 116.04 57.2776C116.04 57.4969 116.052 57.7309 116.079 57.9795C116.106 58.2282 116.152 58.4573 116.221 58.6669C116.29 58.8765 116.385 59.0496 116.508 59.1909C116.631 59.3299 116.79 59.3981 116.984 59.3981C117.178 59.3981 117.327 59.3274 117.45 59.1909C117.57 59.052 117.666 58.8765 117.737 58.6669C117.808 58.4573 117.855 58.2282 117.882 57.9795C117.909 57.7309 117.921 57.4969 117.921 57.2776C117.921 57.0582 117.909 56.8242 117.882 56.5756C117.855 56.327 117.806 56.0978 117.737 55.8858C117.666 55.6737 117.57 55.4982 117.45 55.3593C117.33 55.2204 117.173 55.1521 116.984 55.1521Z" fill="white" fill-opacity="0.92"/>
<path d="M122.604 59.8686H119.555V59.1885L121.417 57.1411C121.556 56.9802 121.679 56.812 121.78 56.6365C121.88 56.461 121.932 56.2636 121.932 56.0442C121.932 55.9077 121.91 55.7858 121.865 55.6737C121.821 55.564 121.762 55.4714 121.686 55.3934C121.61 55.3154 121.524 55.2569 121.421 55.2131C121.321 55.1716 121.213 55.1521 121.098 55.1521C120.86 55.1521 120.663 55.2374 120.509 55.4056C120.354 55.5738 120.259 55.7883 120.219 56.0515L119.591 55.9345C119.618 55.7395 119.675 55.5592 119.761 55.391C119.847 55.2228 119.955 55.0766 120.087 54.9522C120.219 54.8279 120.372 54.7329 120.546 54.6622C120.72 54.5939 120.906 54.5598 121.103 54.5598C121.299 54.5598 121.483 54.5915 121.659 54.6549C121.838 54.7182 121.995 54.8109 122.13 54.9327C122.268 55.0546 122.376 55.2082 122.457 55.3934C122.538 55.5787 122.579 55.7907 122.579 56.0296C122.579 56.1953 122.56 56.3489 122.52 56.4903C122.481 56.6316 122.427 56.7657 122.358 56.8924C122.29 57.0192 122.209 57.1411 122.118 57.2532C122.025 57.3677 121.929 57.4823 121.829 57.5944L120.31 59.2324H122.601V59.8686H122.604Z" fill="white" fill-opacity="0.92"/>
<path d="M126.273 58.0989H126.948V58.7059H126.273V59.8685H125.653V58.7059H123.502V58.0624L125.489 54.6914H126.273V58.0989ZM125.653 55.5031H125.641L124.161 58.0989H125.653V55.5031Z" fill="white" fill-opacity="0.92"/>
<path d="M2.83568 22.8949V0H9.00745V17.6617H21.2774V22.8949H2.83568Z" fill="white" fill-opacity="0.92"/>
<path d="M36.5057 22.8949V16.4917H30.3707V22.8949H24.1621V0H42.6774V22.8949H36.5057ZM36.5057 5.26731H30.3707V11.2585H36.5057V5.26731Z" fill="white" fill-opacity="0.92"/>
<path d="M45.7829 22.8949V0H51.9179V17.6276H58.0897V0H64.2615V22.8949H45.7829Z" fill="white" fill-opacity="0.92"/>
<path d="M79.269 22.8949V5.23318H73.134V22.8949H68.1814V5.23318H66.9622V0H85.4407V22.8949H79.269Z" fill="white" fill-opacity="0.92"/>
<path d="M88.5438 22.8949V0H107.096V5.26731H94.8259V17.6617H107.096V22.8949H88.5438Z" fill="white" fill-opacity="0.92"/>
<path d="M122.287 22.8949V13.8739H116.189V22.8949H109.981V0H116.189V8.81378H122.287V0H128.496V22.8949H122.287Z" fill="white" fill-opacity="0.92"/>
<path d="M5.0115 37.0783C4.27805 37.0783 3.60592 36.9662 2.99512 36.7395C2.38432 36.5153 1.85447 36.1984 1.40557 35.7914C0.956673 35.3843 0.610799 34.9017 0.365498 34.346C0.120197 33.7902 0 33.1784 0 32.5081C0 31.8378 0.12265 31.2163 0.365498 30.6557C0.610799 30.0975 0.956673 29.6125 1.40557 29.2005C1.85447 28.791 2.38432 28.4717 2.99512 28.2475C3.60592 28.0233 4.27805 27.9087 5.0115 27.9087C5.68362 27.9087 6.30178 28.0208 6.86597 28.2475C7.43016 28.4717 7.91586 28.791 8.32796 29.2005C8.73761 29.61 9.05651 30.0951 9.27973 30.6557C9.50295 31.2163 9.61579 31.833 9.61579 32.5081H8.39419C8.39419 32.0109 8.31079 31.5551 8.14399 31.1383C7.97718 30.7215 7.74415 30.3608 7.44243 30.0561C7.14071 29.7514 6.78257 29.5174 6.37291 29.3517C5.96326 29.1859 5.50946 29.103 5.01395 29.103C4.45712 29.103 3.94689 29.1859 3.48572 29.3517C3.02456 29.5174 2.62472 29.7514 2.28375 30.0561C1.94524 30.3608 1.68276 30.7215 1.49879 31.1383C1.31481 31.5551 1.22405 32.0109 1.22405 32.5081C1.22405 33.0054 1.31481 33.4587 1.49879 33.8682C1.68276 34.2777 1.94278 34.6336 2.28375 34.9358C2.62227 35.2381 3.02456 35.4696 3.48572 35.6354C3.94689 35.8011 4.45712 35.884 5.01395 35.884C5.23227 35.884 5.45794 35.8474 5.69098 35.7743C5.92647 35.7012 6.1178 35.6086 6.26744 35.4964L6.99107 36.4592C6.70652 36.6372 6.38027 36.7858 6.01232 36.9004C5.64437 37.015 5.31322 37.0735 5.01395 37.0735L5.0115 37.0783ZM4.32711 34.8725C3.93953 34.8725 3.59611 34.7725 3.2993 34.5702C3.00003 34.3679 2.76699 34.0876 2.60264 33.7317C2.43584 33.3734 2.35243 32.9664 2.35243 32.5106C2.35243 32.0548 2.43584 31.6404 2.60264 31.2894C2.76945 30.9384 3.00248 30.663 3.2993 30.4607C3.59856 30.2584 3.94198 30.1584 4.32711 30.1584C4.75393 30.1584 5.13169 30.2584 5.45794 30.4607C5.78419 30.663 6.03931 30.9384 6.22573 31.2894C6.41216 31.6404 6.50538 32.0475 6.50538 32.5106C6.50538 32.9737 6.41216 33.3734 6.22573 33.7317C6.03931 34.09 5.78174 34.3679 5.45794 34.5702C5.13169 34.7725 4.75393 34.8725 4.32711 34.8725ZM4.95017 33.4441C5.10716 33.4441 5.24453 33.4051 5.36228 33.3247C5.48002 33.2442 5.57323 33.137 5.64192 32.9981C5.7106 32.8591 5.74494 32.6958 5.74494 32.5106C5.74494 32.3253 5.7057 32.1645 5.6272 32.028C5.5487 31.8915 5.44322 31.7842 5.31076 31.7062C5.1783 31.6258 5.02621 31.5868 4.85696 31.5868C4.6877 31.5868 4.55033 31.6258 4.42523 31.7013C4.30012 31.7769 4.202 31.8842 4.13087 32.0231C4.05973 32.162 4.02293 32.3205 4.02293 32.5008C4.02293 32.6812 4.06463 32.8494 4.14558 32.9932C4.22653 33.137 4.33692 33.2467 4.47674 33.3247C4.61656 33.4051 4.77355 33.4441 4.95017 33.4441ZM5.77438 33.8195L5.67135 30.2559H7.09655V33.722L5.77193 33.8219L5.77438 33.8195ZM7.39337 35.1601C7.10146 35.1601 6.83163 35.1016 6.58387 34.987C6.33612 34.8725 6.13988 34.7116 5.9927 34.5093C5.84552 34.307 5.77438 34.0778 5.77438 33.8195L7.09901 33.7195C7.09901 33.8853 7.14071 33.9901 7.22166 34.0364C7.30261 34.0827 7.40808 34.1071 7.53809 34.1071C7.70735 34.1071 7.85453 34.0388 7.98209 33.9024C8.10719 33.7659 8.20776 33.5782 8.28135 33.3369C8.35495 33.0956 8.39419 32.8201 8.39419 32.5081H9.61579C9.61579 33.0249 9.52012 33.4807 9.33124 33.878C9.13991 34.2753 8.87989 34.5873 8.54628 34.8164C8.21267 35.0455 7.83 35.1601 7.39582 35.1601H7.39337Z" fill="white" fill-opacity="0.92"/>
<path d="M17.6175 35.0115L16.6387 33.1639H15.9053V35.0115H14.1931V28.4084H19.2954V33.1663H18.297L19.315 35.0139H17.615L17.6175 35.0115ZM17.5979 29.9172H15.9078V31.6551H17.5979V29.9172Z" fill="white" fill-opacity="0.92"/>
<path d="M20.1833 35.0115V28.4084H25.266V29.927H21.8857V30.9604H25.266V32.4107H21.8857V33.5027H25.266V35.0115H20.1833Z" fill="white" fill-opacity="0.92"/>
<path d="M26.1319 35.0115V33.4929H29.5342V32.4205H26.1319V28.4084H31.2243V29.927H27.8441V30.9507H31.2243V35.0115H26.1319Z" fill="white" fill-opacity="0.92"/>
<path d="M32.0902 35.0115V28.4084H33.7902V35.0115H32.0902Z" fill="white" fill-opacity="0.92"/>
<path d="M34.6561 35.0115V28.4084H36.356V33.5027H39.7363V35.0115H34.6536H34.6561Z" fill="white" fill-opacity="0.92"/>
<path d="M40.5433 35.0115V28.4084H42.2432V35.0115H40.5433Z" fill="white" fill-opacity="0.92"/>
<path d="M43.1092 35.0115V28.4084H48.1918V29.927H44.8115V30.9604H48.1918V32.4107H44.8115V33.5027H48.1918V35.0115H43.1092Z" fill="white" fill-opacity="0.92"/>
<path d="M52.3349 35.0115V29.9172H50.6448V35.0115H49.2809V29.9172H48.9449V28.4084H54.0373V35.0115H52.3374H52.3349Z" fill="white" fill-opacity="0.92"/>
<path d="M54.9008 35.0115V28.4084H60.0128V29.927H56.6326V33.5027H60.0128V35.0115H54.9008Z" fill="white" fill-opacity="0.92"/>
<path d="M60.8174 35.0115V28.4084H65.9V29.927H62.5198V30.9604H65.9V32.4107H62.5198V33.5027H65.9V35.0115H60.8174Z" fill="white" fill-opacity="0.92"/>
<path d="M70.4921 35.0115V28.4084H75.6041V29.927H72.2239V33.5027H75.6041V35.0115H70.4921Z" fill="white" fill-opacity="0.92"/>
<path d="M76.4087 35.0115V28.4084H81.5012L81.511 35.0115H76.4087ZM79.8111 29.9367H78.1111V33.5124H79.8111V29.9367Z" fill="white" fill-opacity="0.92"/>
<path d="M85.6566 35.0115V29.9172H83.9665V35.0115H82.6026V29.9172H82.2665V28.4084H87.359V35.0115H85.659H85.6566Z" fill="white" fill-opacity="0.92"/>
<path d="M89.9248 32.4107V35.0115H88.2249V28.4084H93.3075V29.927H89.9273V30.9604H93.3075V32.4107H89.9273H89.9248Z" fill="white" fill-opacity="0.92"/>
<path d="M94.171 35.0115V28.4084H99.2536V29.927H95.8733V30.9604H99.2536V32.4107H95.8733V33.5027H99.2536V35.0115H94.171Z" fill="white" fill-opacity="0.92"/>
<path d="M103.539 35.0115L102.56 33.1639H101.827V35.0115H100.115V28.4084H105.217V33.1663H104.218L105.236 35.0139H103.537L103.539 35.0115ZM103.519 29.9172H101.829V31.6551H103.519V29.9172Z" fill="white" fill-opacity="0.92"/>
<path d="M106.105 35.0115V28.4084H111.187V29.927H107.807V30.9604H111.187V32.4107H107.807V33.5027H111.187V35.0115H106.105Z" fill="white" fill-opacity="0.92"/>
<path d="M115.333 35.0115V29.9172H113.643V35.0115H112.279V29.9172H111.943V28.4084H117.035V35.0115H115.335H115.333Z" fill="white" fill-opacity="0.92"/>
<path d="M117.899 35.0115V28.4084H123.011V29.927H119.631V33.5027H123.011V35.0115H117.899Z" fill="white" fill-opacity="0.92"/>
<path d="M123.816 35.0115V28.4084H128.898V29.927H125.518V30.9604H128.898V32.4107H125.518V33.5027H128.898V35.0115H123.816Z" fill="white" fill-opacity="0.92"/>
</g>
<defs>
<clipPath id="clip0_1002_3641">
<rect width="130.5" height="60" fill="white"/>
</clipPath>
</defs>
</svg>
