<svg width="97" height="123" viewBox="0 0 97 123" fill="none" xmlns="http://www.w3.org/2000/svg">
<g clip-path="url(#clip0_162_5849)">
<path d="M17.3538 0L28.6391 12.1895H67.6549V54.3082L79.8245 67.4485V0H17.3538Z" fill="white"/>
<path d="M81.4471 82.8889L70.1537 70.6994H31.146V28.5807L18.9764 15.4404V82.8889H81.4471Z" fill="#6C008A"/>
<path d="M0 110.152H3.18844C5.20049 110.152 6.19028 111.274 6.19028 113.33V119.831C6.19028 121.887 5.20049 123.008 3.18844 123.008H0V110.152ZM2.01204 111.989V121.164H3.14788C3.78881 121.164 4.17824 120.83 4.17824 119.912V113.232C4.17824 112.314 3.78881 111.989 3.14788 111.989H2.01204Z" fill="white"/>
<path d="M15.9017 115.564H18.6602V117.401H15.9017V121.164H19.3822V123H13.8897V110.152H19.3822V111.989H15.9017V115.564Z" fill="white"/>
<path d="M28.8339 113.696V123H27.0247V110.153H29.5479L31.6411 117.832V110.145H33.4422V122.992H31.349L28.8339 113.696Z" fill="white"/>
<path d="M41.2713 110.152H43.2915V123H41.2713V110.152Z" fill="white"/>
<path d="M57.692 123H55.6557L55.3068 120.668H52.8729L52.524 123H50.6337L52.6863 110.152H55.6394L57.692 123ZM53.0919 118.937H55.031L54.0574 112.436L53.0919 118.937Z" fill="white"/>
<path d="M71.0624 113.11V113.565C71.0624 114.89 70.6567 115.727 69.7643 116.15C70.8433 116.572 71.2652 117.547 71.2652 118.904V119.953C71.2652 121.936 70.2186 123 68.2066 123H65.0344V110.152H68.0768C70.1619 110.152 71.0624 111.128 71.0624 113.11ZM67.0059 111.989V115.394H67.8172C68.5717 115.394 69.0341 115.061 69.0341 114.029V113.313C69.0341 112.395 68.7177 111.997 68.0038 111.997L67.0059 111.989ZM67.0059 117.214V121.164H68.166C68.8394 121.164 69.2045 120.847 69.2045 119.896V118.774C69.2045 117.588 68.8232 117.214 67.9064 117.214H67.0059Z" fill="white"/>
<path d="M78.8835 110.152H80.8955V121.164H84.2138V123H78.8835V110.152Z" fill="white"/>
<path d="M93.5195 115.564H96.2861V117.401H93.5195V121.164H97V123H91.5075V110.152H97V111.989H93.5195V115.564Z" fill="white"/>
</g>
<defs>
<clipPath id="clip0_162_5849">
<rect width="97" height="123" fill="white"/>
</clipPath>
</defs>
</svg>
