<svg width="159" height="72" viewBox="0 0 159 72" fill="none" xmlns="http://www.w3.org/2000/svg">
<g clip-path="url(#clip0_921_50171)">
<path d="M22.2007 22.1536C22.5439 21.9419 22.8607 21.7036 23.1511 21.4389H22.9135C22.7815 21.4389 22.6759 21.3331 22.6759 21.2272L22.0951 20.6448V20.5389C22.0951 20.6713 21.9895 20.7507 21.8575 20.7772C21.8575 20.8831 21.8575 21.0154 21.9631 21.0154C22.2007 21.1213 22.4383 21.2536 22.4383 21.386C22.3327 21.6242 21.9631 21.7566 22.2007 22.1007C22.3327 22.0213 22.0951 22.0213 22.2007 22.1536ZM18.9007 14.4507C19.0063 14.5566 19.1383 14.4507 19.1383 14.3448C19.2703 14.3713 19.3495 14.4507 19.3759 14.5831H19.6135C19.6135 14.2125 20.1943 14.3448 20.3263 13.8683H20.2207C20.1679 13.8683 20.1151 13.8154 20.1151 13.7625L20.3527 13.5242C19.9303 13.286 19.5079 13.0742 19.0591 12.9419C18.8479 12.9683 18.6631 12.9154 18.4783 12.836C18.5839 13.0742 18.4783 13.5507 18.5839 13.7889L18.8215 13.8948C18.9271 13.6566 19.0591 13.6566 19.1911 13.5242H19.4287V13.8948C19.3495 14.3183 19.0063 14.3183 18.9007 14.4507ZM23.8639 17.6536C23.6791 18.2889 23.4151 18.8978 23.0191 19.4272C22.7815 19.6654 22.7815 19.9036 22.5439 20.0095L23.0191 20.3801V20.2742C23.0191 20.2213 23.0719 20.1683 23.1247 20.1683C23.2567 20.1683 23.3623 20.2742 23.3623 20.3801C23.3623 20.6183 23.4679 20.6183 23.4679 20.8566C24.6031 19.6125 25.2631 18.0242 25.3687 16.3566L25.4743 16.2507H24.0487C24.0751 16.5419 24.0223 16.8066 23.9431 17.0978L24.1807 17.336V17.5742C23.9695 17.786 23.9695 17.786 23.8639 17.6536ZM22.6759 13.4978C22.4383 13.2595 22.3063 12.9154 21.9631 12.6507C21.4879 13.1007 21.0655 13.5772 20.6695 14.0801L20.7751 14.186C20.7751 14.1066 20.8279 14.0272 20.8807 13.9478C20.9863 13.7095 21.1183 13.9478 21.3559 13.9478H22.0687C22.3063 14.0536 22.3063 14.186 22.4383 14.3183V14.5566C22.4383 14.9272 22.6759 14.4507 22.8079 14.5566C22.9135 14.5566 23.0455 14.5566 23.0455 14.6625C23.0455 14.9007 23.2831 14.7683 23.2831 14.9007C23.2831 14.9536 23.2303 15.0066 23.1775 15.0066C23.1775 15.2448 22.9399 15.2448 23.0719 15.3772C23.3095 15.3772 23.3095 15.1389 23.4415 15.0066C23.3359 14.7683 23.3359 14.5301 23.2039 14.2919C22.9663 14.2919 22.9663 14.0536 22.8343 14.0536C22.4383 13.8419 22.7815 13.736 22.6759 13.4978ZM18.5311 23.3183C18.9007 23.2125 19.2439 23.2125 19.7191 23.0801C19.6135 23.0801 19.4815 23.0801 19.4815 22.9742C19.2439 22.9742 19.2439 22.7625 19.1119 22.4978C19.1119 22.3654 19.1383 22.2331 19.2439 22.1536C19.1383 21.9154 18.8743 22.1536 18.6631 22.0478C18.6103 21.9948 18.5311 21.9419 18.4255 21.9419L18.5311 22.0478V23.3183ZM18.9007 19.6654C19.0063 19.6654 18.9007 19.9036 19.0063 19.9036C19.2439 19.7978 19.3759 20.1419 19.4815 19.9036C19.4815 19.6654 19.7191 19.6654 19.8511 19.6654C20.0887 19.5595 20.3263 19.4272 20.3263 19.0831C20.0887 19.0831 20.0887 19.1889 20.0887 19.3213C19.9831 19.4272 19.8511 19.0831 19.8511 19.2154V19.3213C19.6135 19.5595 19.6135 19.2154 19.4815 19.3213V19.4272C19.3759 19.1889 19.2439 19.3213 19.1119 19.1889H18.8743C18.8743 19.2948 18.6367 19.1889 18.6367 19.2948C18.5311 19.2948 18.5311 19.5331 18.3991 19.5331C18.1615 19.5331 18.1615 19.7713 18.0295 19.6389V19.7448H18.2671C18.4255 19.5331 18.6631 19.7978 18.9007 19.6654ZM20.2207 17.8919C20.2207 17.9978 20.2207 18.1301 20.3263 18.1301C20.5639 18.1301 20.4319 18.3683 20.5639 18.3683C20.6959 18.3683 20.5639 18.2625 20.5639 18.1301C20.5639 17.8919 20.4583 17.8919 20.2207 17.8919ZM20.0887 11.2478C19.6135 11.0095 19.1383 11.0095 18.5575 11.0095V12.4389H18.6631C19.4287 12.5448 20.1679 12.836 20.8015 13.286V13.3919C21.0391 13.1536 21.2767 12.8095 21.5143 12.5448L21.7519 12.4389H21.6199C21.1975 11.936 20.6695 11.5389 20.0887 11.2478ZM11.2183 16.5948L11.3239 17.4419C11.3239 17.6801 11.5615 18.1566 11.5615 18.3948C11.5615 18.2889 11.5615 18.1566 11.7991 18.1566C11.7991 18.0507 11.9047 17.9183 11.7991 17.9183C11.8255 17.6801 11.9047 17.4154 12.0367 17.2036C12.2743 17.2036 12.2743 16.9654 12.5119 16.8331C12.6175 16.8331 12.7495 17.0713 12.7495 17.0713C12.5383 16.886 12.5119 16.5948 12.6439 16.3566H11.0599C11.0863 16.3301 11.2183 16.5948 11.2183 16.5948ZM19.7191 18.8448C19.8247 18.7389 20.0887 18.7389 20.0887 18.6066C19.9567 18.4742 19.9567 18.5801 19.7191 18.8448C19.5871 18.8448 19.5871 18.7125 19.7191 18.8448ZM22.6759 16.3301L22.9135 16.5683C23.1511 16.6742 22.9135 16.8066 23.1511 16.9389C23.3887 17.0713 23.3887 17.1772 23.3887 17.4154V17.3095C23.4943 17.0713 23.3887 16.7272 23.4943 16.5948C23.2567 16.4625 22.9135 16.4625 22.6759 16.3301ZM20.8015 19.7713C21.0391 19.7713 21.0391 20.0095 21.2767 20.0095C21.5143 19.9036 21.7519 20.0095 21.8575 19.9036C21.8575 19.6654 21.9631 19.6654 22.0951 19.4272C22.1743 19.5331 22.2271 19.6654 22.2007 19.7978C22.3063 19.5595 22.4383 19.5595 22.5703 19.3213C22.8079 18.8448 23.1511 18.3683 23.2831 17.8919C23.1511 17.8654 23.0191 17.9183 22.9135 17.9978C22.8079 17.9978 22.6759 18.1036 22.4383 17.9978H22.3327C22.3327 18.1036 22.2271 18.236 22.0951 18.1036C21.9895 18.1036 21.9895 17.9978 21.9895 17.8654V18.1036C21.8839 18.2095 21.8839 18.3419 21.7519 18.3419C21.6463 18.4478 21.5143 18.4478 21.3823 18.5801C21.3823 18.8183 21.1447 18.8183 21.0127 18.8183H21.2503C21.3823 18.8183 21.4879 18.7125 21.4879 18.6066C21.5935 18.6066 21.7255 18.5007 21.7255 18.6066C21.8311 18.7125 21.8311 18.8448 21.8311 19.0831C21.7255 19.1889 21.8311 19.3213 21.7255 19.5595C21.7255 19.7978 21.4879 19.7978 21.4879 19.9301C21.4351 19.9831 21.3559 20.036 21.2503 20.036C20.8807 19.7978 20.5375 19.7978 20.0623 19.7978C20.0623 19.7978 19.9567 19.7978 20.0623 19.9036C20.4583 19.6654 20.5639 19.6654 20.8015 19.7713ZM17.9503 23.9272C16.0495 23.8213 14.4127 23.2125 13.1191 21.7831L12.1687 22.736C13.5679 24.0331 15.3631 24.8272 17.2639 24.986C17.5807 24.9595 17.8975 25.0125 18.2143 25.0919L18.1087 24.986L17.9503 23.9272ZM16.0495 18.8448C16.5511 19.2683 17.1583 19.5066 17.8183 19.5595V19.1889C17.8183 19.0831 18.0559 19.0831 18.0559 19.0831C18.0559 19.0831 18.1615 18.9772 18.0559 18.9772C17.9503 18.9772 17.9503 18.7389 17.9503 18.7389C18.0031 18.7389 18.0559 18.686 18.0559 18.6331C18.0031 18.5801 17.9767 18.4742 18.0559 18.3948L18.1615 18.2889C17.8711 18.3683 17.5279 18.2889 17.3167 18.0507L17.0791 17.8125L16.0495 18.8448ZM15.5743 17.2831H15.3367C15.3367 17.0448 15.0991 17.1772 14.9671 17.0448L15.3367 17.7595C15.4423 17.9978 15.5743 18.1301 15.7063 18.3419C15.8119 18.1036 15.9439 18.1036 16.0759 17.8654V17.6272C16.0759 17.5213 16.0759 17.3889 15.9703 17.3889C15.8647 17.3889 15.9703 17.6272 15.9703 17.6272H15.8647C15.7327 17.6272 15.6535 17.5213 15.6271 17.3889C15.7063 17.4154 15.5743 17.4154 15.5743 17.2831ZM16.5247 17.4154C16.5247 17.5478 16.4191 17.6272 16.2871 17.6536C16.3927 17.5478 16.5247 17.4154 16.6567 17.4154H16.5247ZM17.9239 22.0213C16.7359 22.0213 15.8119 21.5448 14.8351 20.8301C14.8351 20.936 15.0727 21.0683 14.9407 21.0683C14.8351 21.1478 14.7031 21.2007 14.5711 21.1742C14.3335 21.1742 14.0959 21.4125 13.8583 21.4125C13.6207 21.5183 13.6207 21.1742 13.3831 21.1742C14.6503 22.3389 16.2871 23.0007 18.0031 23.0801L18.1087 23.186V21.7566C18.0823 21.8625 18.0295 21.9419 17.9239 22.0213Z" fill="white" fill-opacity="0.92"/>
<path d="M12.7496 21.4434C12.512 21.3375 12.512 21.2052 12.2744 20.9669C12.0368 20.9669 12.0368 20.7287 11.9048 20.7287V20.6228C11.6672 20.7287 11.6672 20.5169 11.5352 20.3846C11.2976 20.2787 11.4296 19.9081 11.1656 20.014C11.06 20.014 11.06 19.9081 10.928 19.9081C10.796 19.9081 10.6904 19.8022 10.6904 19.6964V19.8022C10.4528 19.8022 10.4528 19.564 10.3208 19.564H10.268C10.136 19.4581 10.0304 19.2728 10.0304 19.0875C9.79278 18.8493 9.92478 18.6111 10.0304 18.3728C10.0832 18.3199 10.136 18.2405 10.136 18.1346C10.136 18.0287 10.3736 18.0287 10.3736 18.0287C10.4264 18.0287 10.4792 18.0817 10.4792 18.1346C10.5848 18.1346 10.7168 18.1346 10.7168 18.0287C10.7696 17.9758 10.8488 17.9228 10.9544 17.9228C11.06 18.0287 11.06 18.1611 11.192 18.1611L11.06 18.0552C10.928 17.5787 10.8488 17.1022 10.8224 16.6258V16.2552H9.15918C9.23838 17.7111 9.63438 19.114 10.3472 20.4111C10.5848 21.1258 11.192 21.6022 11.6408 22.1846L12.5912 21.2317C12.6176 21.2052 12.7496 21.4434 12.7496 21.4434ZM14.2808 10.2993C14.0432 10.5375 13.7 10.7758 13.436 11.014C13.7792 11.2522 14.096 11.5434 14.3864 11.8611V11.9669C15.152 11.2787 16.1024 10.7758 17.1056 10.5375C17.3432 10.5375 17.5808 10.4317 17.8184 10.5375V9.24048C16.5248 9.24048 15.4688 9.71695 14.2808 10.2993ZM13.0928 15.4081C13.1192 15.6464 13.0664 15.8846 12.9872 16.1228C13.2248 16.0169 13.3568 16.1228 13.568 16.1228C13.4624 16.1228 13.568 15.8846 13.4624 15.8846C13.436 15.7522 13.4888 15.6199 13.568 15.514C13.568 15.2758 13.8056 15.2758 13.8056 15.0375C13.8056 14.7993 14.0432 14.9317 14.1752 14.7993C14.2808 14.7993 14.1752 14.6934 14.1752 14.5611C14.2808 14.4552 14.4128 14.4552 14.5448 14.3228L14.7824 14.0846C15.02 14.0846 15.02 13.714 15.3632 13.714C14.9936 13.4758 14.6504 12.9993 14.3072 12.7611C13.7528 13.5817 13.3304 14.4552 13.0928 15.4081ZM13.3568 17.2875C13.3568 17.1817 13.2512 17.1817 13.2512 17.0493C13.3568 16.8111 13.2512 16.5728 13.4888 16.5728C13.2512 16.5728 13.2512 16.6787 13.0136 16.5728L13.1192 16.6787C13.1192 16.9169 13.2248 17.2611 13.2248 17.6317C13.2248 17.4199 13.2248 17.2875 13.3568 17.2875Z" fill="white" fill-opacity="0.92"/>
<path d="M13.0928 11.3822L12.6176 12.0969C11.7992 13.2351 11.324 14.5851 11.324 15.9881H12.7496V15.8822C12.8288 14.5587 13.3832 13.2881 14.3072 12.3351C13.8848 12.0175 13.4888 11.7263 13.0928 11.3822ZM17 20.2498C17.1056 20.144 17.2376 20.0116 17.3696 20.0116C16.8944 20.1175 16.6568 19.7734 16.1816 19.641C15.944 19.5616 15.7328 19.3763 15.6008 19.1646C15.3368 19.5351 15.02 19.8528 14.6504 20.1175C14.888 20.1175 14.888 20.3557 15.02 20.3557C15.7328 20.9381 16.6832 21.2028 17.3696 21.4146L17.132 21.3087C16.9472 21.0969 16.7624 20.8587 16.6568 20.594C17 20.4881 17 20.3822 17 20.2498ZM13.832 16.4646V16.6763C13.832 16.9146 13.5944 16.6763 13.5944 16.7822V17.0204C13.4888 17.2587 13.832 17.391 13.832 17.7351C13.9376 17.9734 13.832 18.1057 14.0696 18.3175C14.0696 18.5557 14.0696 19.0322 14.3072 19.2704V19.5087C14.3072 19.641 14.2016 19.7469 14.096 19.7469C14.1488 19.7469 14.2016 19.7998 14.2016 19.8528C14.5712 19.3498 14.9936 18.9263 15.4952 18.5557L15.2576 18.3175C15.02 17.841 14.6768 17.2587 14.5448 16.6498L14.4392 16.544C14.4392 16.7822 14.3336 16.7822 14.3336 17.0204C14.2544 17.0204 14.1752 16.9675 14.096 16.9146C14.0432 16.8616 14.0432 16.7557 14.096 16.7028H14.2016V16.4646C14.2016 16.3587 14.096 16.2263 14.2016 16.2263C14.3336 16.2263 14.4128 16.3322 14.4392 16.4646C14.5448 16.4646 14.6768 16.4646 14.6768 16.3587C14.6768 16.2528 14.7824 16.1204 14.6768 16.1204C14.7824 15.8822 14.6768 15.7498 14.6768 15.5381C14.5712 15.4322 14.4392 15.5381 14.3072 15.5381C13.9376 15.644 14.4128 15.9087 14.3072 16.2528C14.0432 16.5969 13.9376 16.3322 13.832 16.4646ZM25.8704 16.4646C25.7648 18.1322 25.1576 19.4293 24.3392 20.7263C24.1016 20.9646 24.1016 21.2028 23.7584 21.3087C24.128 21.5469 24.4712 22.0234 24.8144 22.3675C26.24 20.6998 27.0584 18.8204 27.0584 16.5704V16.4646H25.8704ZM13.0928 10.7734C14.5184 9.47632 16.0496 8.76161 17.924 8.65573V7.22632C16.1024 7.3322 14.36 7.94102 12.8552 8.99985C12.6176 9.26455 12.3272 9.50279 12.0104 9.71455C12.4856 9.92632 12.8816 10.3234 13.0928 10.7734ZM17.9504 11.0116C16.7888 11.144 15.68 11.594 14.756 12.3087C15.1256 12.5469 15.4688 13.0234 15.7064 13.2616C15.7064 13.2087 15.7592 13.1557 15.812 13.1557C16.2872 12.9175 16.7624 12.5734 17.2376 12.441C17.4752 12.441 17.7128 12.3351 17.9504 12.3351V11.0116ZM17.9504 12.7851C17.1848 12.891 16.472 13.2616 15.944 13.844H16.0496C16.1552 13.9498 16.2872 13.9498 16.4192 14.0822C16.4192 14.1881 16.3136 14.1881 16.3136 14.3204H16.4192C16.5248 14.3204 16.5248 14.3204 16.5248 14.2146C16.6304 14.1087 16.6304 14.3204 16.7624 14.3204H17C17.1056 14.2146 17.2376 14.3204 17.2376 14.2146C17.4752 13.9763 17.3432 13.844 17.4752 13.7381C17.5808 13.7381 17.4752 13.844 17.4752 13.9763C17.7128 14.0822 17.7128 13.8704 17.9504 13.9763V12.8116M18.0824 14.9028C17.8976 15.0616 17.7128 15.194 17.5016 15.2734C17.396 15.3793 17.5016 15.5116 17.264 15.5116C17.264 15.6175 17.0264 15.7498 17.0264 15.7498C16.9208 15.9881 17.0264 16.1204 16.9208 16.3322C16.6832 16.5704 16.6832 16.094 16.5512 16.094H16.1816C16.076 16.1998 15.944 16.3322 16.076 16.3322C16.076 16.4381 15.8384 16.3322 15.8384 16.5704C15.9968 16.5969 16.1816 16.544 16.3136 16.4646H16.5512C16.604 16.4646 16.6568 16.5175 16.6568 16.5704C16.7624 16.5704 16.7624 16.3322 16.7624 16.3322C16.7624 16.2263 16.868 16.2263 17 16.2263C17.132 16.2263 17 16.3322 17 16.3322C17.2376 16.4381 17 16.5704 16.8944 16.7028C16.8944 16.8087 16.8944 16.941 16.6568 16.941V16.8351C16.6568 16.941 16.6568 17.0734 16.7624 17.0734C16.868 16.9675 16.868 16.8351 17 16.8351C17.1056 16.7293 17 16.5969 17.1056 16.4646C17.3432 16.4646 17.5808 16.3587 17.8184 16.5704V16.8087C17.8184 16.941 17.7128 17.0204 17.5808 17.0469V17.2851C17.4752 17.5234 17.2112 17.5234 17 17.5234C17.2376 17.7616 17.7128 17.7616 18.056 17.7616C18.2936 17.7616 18.1616 17.5234 18.2936 17.391C18.3992 17.1528 18.6632 17.2851 18.8744 17.1528C18.98 16.9146 19.112 16.9146 19.112 16.6763C18.8744 16.5704 18.8744 16.4381 18.8744 16.3057C18.7688 16.1998 18.7688 16.0675 18.6368 16.0675V15.9616C18.6368 15.8557 18.7424 15.8557 18.7424 15.7234C18.6896 15.6704 18.6368 15.591 18.6368 15.4851C18.3992 15.4851 18.3992 15.2469 18.2672 15.2469C18.2672 15.141 18.0296 15.141 18.0296 15.0087C17.792 15.1146 17.792 14.7704 17.5544 14.7704V14.5322C17.6072 14.4793 17.7128 14.4793 17.7656 14.5322H17.66C17.5544 14.4263 17.4224 14.5322 17.2904 14.5322C18.0824 14.7969 17.9504 14.7969 18.0824 14.9028Z" fill="white" fill-opacity="0.92"/>
<path d="M10.7431 15.9873V15.7491C10.8223 14.2932 11.3239 12.8903 12.1687 11.7256C12.4063 11.4873 12.5383 11.1432 12.8815 11.0109L11.9311 10.0579C10.6375 11.5932 9.68712 13.3667 9.58152 15.2726C9.60792 15.5638 9.55512 15.8285 9.47592 16.1197C9.84552 15.8814 10.3207 15.8285 10.7431 15.9873ZM23.6263 21.6785C23.5207 21.9167 23.1511 22.155 22.9135 22.3932C22.6759 22.6314 22.2007 22.7638 21.9631 23.2403C21.7255 23.4785 21.7255 23.6108 21.4879 23.7167C21.3823 23.955 21.2503 23.955 21.0127 24.0873C20.6431 24.4579 20.2999 23.8491 20.0623 23.8491L19.3495 23.955C19.1119 23.955 18.8743 24.0609 18.6367 23.955V25.3844H18.7423C20.9335 25.305 23.0455 24.405 24.6559 22.8961L23.5999 21.9432L23.6263 21.6785ZM18.5311 8.52262C18.6367 8.41673 18.6367 8.41673 18.7687 8.52262V8.76085H18.8743C19.9303 8.86673 20.9863 9.13144 21.8311 9.71379C22.0687 9.60791 22.3063 9.47556 22.4119 9.71379C22.6495 9.60791 22.6495 9.95203 22.8871 9.95203C22.9927 9.95203 23.2567 10.3226 23.2567 10.5344C23.2567 10.6403 23.4943 10.7726 23.4943 10.7726C23.7319 10.5344 23.9695 10.1903 24.2071 9.92556L24.4447 9.81967C23.0719 8.54909 21.3295 7.7285 19.4815 7.46379C19.1647 7.49026 18.8479 7.43732 18.5311 7.35791V8.52262Z" fill="white" fill-opacity="0.92"/>
<path d="M18.5311 10.5368C18.7687 10.4309 18.9007 10.5368 19.1119 10.5368C20.0359 10.7221 20.9335 11.0662 21.7255 11.5956C21.6199 11.4897 21.4879 11.3574 21.4879 11.225C21.4879 10.9868 21.2503 10.9868 21.2503 10.8544H21.3559C21.5143 10.9868 21.6199 11.1456 21.7255 11.3309C21.8311 11.3309 21.9631 11.3309 21.9631 11.4368C21.9631 11.5427 21.9631 11.675 22.2007 11.8074C22.2007 12.0456 22.5703 12.2839 22.5703 12.5221C22.5703 12.628 22.6759 12.5221 22.6759 12.5221L22.9135 12.8927V13.1309C22.9927 13.1309 23.0719 13.078 23.1511 13.025C23.3887 13.1309 23.1511 13.2633 23.1511 13.3956H23.3887C23.3887 13.475 23.3359 13.5544 23.2831 13.6339C23.2831 13.7397 23.3887 13.7397 23.5207 13.7397C23.6527 13.7397 23.6263 13.8456 23.6263 13.978C23.8639 14.2162 23.5207 14.4544 23.6263 14.6927C23.7319 14.9309 23.6263 14.9309 23.5207 15.1691C23.5207 15.4074 23.2831 15.4074 23.2831 15.6456H23.0455C22.9399 15.7515 23.1511 15.8839 23.0455 16.0162H23.5207C23.4415 15.778 23.4943 15.5133 23.6263 15.3015C23.7319 15.0633 23.7319 14.9309 23.8639 14.825C23.8639 14.825 23.9695 14.7192 23.9695 14.825C23.9695 15.0633 23.9695 15.1956 23.8639 15.3015C24.1015 15.5397 23.9695 15.778 24.1015 16.0162H25.5271V15.9103C25.4215 15.0633 25.2895 14.1368 24.9463 13.4221C24.8407 13.4221 24.7087 13.528 24.7087 13.4221C24.7087 13.4221 24.6031 13.4221 24.7087 13.3162C24.4711 13.078 24.4711 12.9456 24.2335 12.7339C23.9959 12.7339 23.8639 12.4956 23.6527 12.4956C23.4415 12.4956 23.5471 12.125 23.2831 12.2574C23.1775 12.2574 23.0455 12.0192 23.0455 12.0192C23.0719 11.7544 22.9927 11.5162 22.8079 11.3044C22.5703 11.1986 22.5703 11.5427 22.4383 11.4103C22.3327 11.4103 22.4383 11.1721 22.3327 11.1721C22.3327 11.0662 22.2271 11.0662 22.2271 10.9339C22.4647 10.6956 21.9895 10.6956 21.9895 10.3515C21.9895 10.1133 21.7519 10.1133 21.6199 9.87503C20.9071 9.6368 20.1943 9.29268 19.3759 9.16033C19.1647 9.1868 18.9799 9.13386 18.7951 9.05444V9.16033C18.5839 9.58385 18.5047 10.0603 18.5311 10.5368Z" fill="white" fill-opacity="0.92"/>
<path d="M23.6263 11.0098C23.7319 11.0098 23.7319 11.2481 23.8639 11.2481C24.2335 11.4863 24.3391 11.8304 24.5767 11.9628C24.8143 12.3334 25.1575 12.6775 25.1575 13.0216C25.5271 13.9745 25.8703 14.7951 25.8703 15.9863H27.2959C27.1903 15.8804 27.2959 15.7481 27.1903 15.5098C26.9791 13.4716 26.1079 11.5392 24.7087 10.0569C24.4183 10.4804 24.0487 10.7981 23.6263 11.0098ZM30.1207 15.6422C30.0943 15.5098 30.0679 15.3775 30.0679 15.2716C30.0679 15.3775 30.0679 15.5098 30.1207 15.6422Z" fill="white" fill-opacity="0.92"/>
<path d="M0.5 0V35.4706H36.14V0H0.5ZM30.2528 11.0118C30.8336 11.8853 31.0976 12.9176 31.0184 13.95C31.8896 15.3529 31.652 17.0735 30.9656 18.3706C30.4904 19.0853 29.7776 19.6676 29.4344 20.5147C29.4344 19.9324 29.5664 19.2176 29.3288 18.7412C28.9592 17.55 28.5104 16.4912 28.5104 15.0618V14.5588C28.7744 15.8029 29.936 16.7294 29.936 18.0529C29.9888 17.6559 30.1208 17.2853 30.2792 16.9147C30.728 16.0147 31.1768 15.1147 31.0184 14.0294C30.9656 14.4529 30.8336 14.8765 30.6224 15.2471C30.4112 15.8294 30.2528 16.4118 30.1472 17.0206C30.1736 16.8882 30.1208 16.7559 30.0416 16.65C29.804 15.3529 28.5104 14.4 28.0352 13.3412C27.7976 12.9706 27.7976 12.6265 27.6656 12.0441C28.1408 12.9971 29.4344 13.4735 29.9096 14.6647C29.9888 14.7441 30.0152 14.8235 30.0416 14.9294C29.9888 14.0559 30.0152 13.1559 30.1472 12.2824C30.1472 11.7 30.0416 11.1441 29.7776 10.6412C29.8832 10.5353 29.9888 10.7735 30.2528 11.0118ZM29.6456 10.7735C29.8832 11.7265 29.54 12.6794 29.7512 13.7382C29.1704 12.6794 28.088 12.2029 27.2696 11.3824C26.8208 10.9059 26.5568 10.2706 26.5568 9.60882C27.032 10.6676 28.22 10.9059 28.9064 11.8588C29.144 12.0971 29.144 12.3353 29.3816 12.5735C29.012 11.6735 28.7744 10.7206 28.6688 9.74118L27.956 8.68235C28.6952 8.86765 29.408 9.82059 29.6456 10.7735ZM27.164 8.52353C27.8768 9.23823 28.1144 9.95294 28.352 10.7735L28.4576 11.0118C27.4808 10.2176 26.5832 9.31765 25.8704 8.28529L25.1576 7.43823C25.7384 7.70294 26.5832 7.94118 27.164 8.52353ZM14.0432 7.70294C15.3368 6.98823 16.868 6.75 18.2936 6.64412C21.9104 6.67059 25.184 8.73529 26.7944 11.9647C27.7448 13.8706 28.088 16.4647 27.5072 18.6088C26.7944 21.2029 24.6824 23.7176 22.2008 24.7765C19.376 26.0735 15.4688 25.8353 12.9872 24.0618C9.5552 21.8118 8.156 17.6824 9.212 13.6324C9.7928 11.25 11.6672 8.76176 14.0432 7.70294ZM11.324 7.70294C10.6112 8.28529 10.136 9.13235 9.5552 9.84706C9.08 10.3235 8.4992 10.8 7.892 11.2765C8.2616 10.5618 8.2616 9.84706 8.7368 9.37059C9.3176 8.28529 10.3736 8.04706 11.324 7.70294ZM8.7104 9C7.76 9.71471 7.8656 10.7735 7.5224 11.8324C7.4168 12.0706 7.2848 12.5471 7.1528 12.7853C7.4168 12.4147 7.6544 12.0176 7.8656 11.5941C8.5784 10.8794 9.5288 10.5353 9.872 9.58235C9.872 10.8794 8.8688 11.8324 7.8128 12.5471C7.364 12.9176 6.836 13.2618 6.836 13.8441V12.8912C6.836 11.8324 6.7832 10.5353 7.496 9.82059C7.7336 9.34412 8.1296 9.13235 8.7104 9ZM5.648 13.5C5.648 12.3088 6.1232 11.4882 6.704 10.6676C5.9912 11.7265 6.5984 13.1559 6.4664 14.3471L6.3608 15.3794L6.4664 15.1676C6.704 14.1088 7.5224 13.3941 8.2352 12.6794C8.3936 12.4941 8.5256 12.3088 8.6048 12.0971C8.5256 12.6265 8.3672 13.1559 8.156 13.6324C7.5752 14.8235 6.3872 15.7765 6.2552 17.0735C6.3608 15.8559 5.4368 14.7971 5.648 13.5ZM5.0672 15.1676L5.4368 14.1088C5.1992 15.5382 6.1496 16.7029 6.4928 17.8941L6.7304 18.8206C6.572 17.6824 7.1792 16.5706 7.8128 15.5382C8.0504 15.3 8.0504 14.9559 8.1824 14.5853C8.288 15.1676 8.0768 15.8824 7.9448 16.4912C7.7072 17.2059 7.4696 18.1588 7.232 18.8471C6.9944 19.3235 7.1264 19.9059 7.232 20.3824C6.7568 19.4294 5.7008 18.6088 5.4632 17.55C5.0144 16.8353 4.856 15.9882 5.0672 15.1676ZM4.9616 18C5.0672 19.5353 6.7304 20.3559 7.5752 21.7853C7.7864 22.05 8.024 22.2882 8.288 22.5C8.288 22.2618 8.0504 22.2618 8.0504 22.0235C7.7864 21.4676 7.7072 20.8588 7.8128 20.25C7.9184 19.5353 8.1824 18.7147 8.0504 17.8941C8.7632 19.3235 8.5256 21.2029 8.8688 22.7382C8.948 23.0824 9.1064 23.4265 9.344 23.6912C7.9184 22.7382 6.044 21.9176 5.4632 20.0118C4.9616 19.4294 4.9616 18.7147 4.9616 18ZM5.912 21.5471C6.6248 23.3206 8.7368 23.4529 9.9248 24.5118C10.0832 24.7765 10.3472 24.9353 10.6376 24.9882C10.4 24.75 9.9248 24.4059 9.7928 24.0353C9.08 22.9765 9.3176 21.4412 8.7368 20.25C9.212 20.9647 9.6872 21.5471 10.0304 22.3941C10.5056 23.5853 10.7432 24.8824 11.7992 25.7029C10.6112 25.3324 9.1856 25.4647 8.1296 24.75C7.0736 24.0353 6.0176 22.9765 5.912 21.5471ZM24.92 28.1647C23.4944 28.6412 22.0952 28.2176 20.9072 27.3706C20.432 27.1324 20.0624 26.7088 19.4816 26.7088H18.9008C19.9568 26.9735 21.0392 27.8471 21.8576 28.8C21.6992 28.9853 21.488 29.1441 21.2768 29.25C20.4584 28.2706 19.4552 27.45 18.32 26.8676C18.0824 26.8676 17.9504 27.0794 17.7392 27.0794C16.8944 27.6618 15.9704 28.3765 15.3896 29.3294L14.7824 28.7735C15.6272 27.8735 16.6304 27.1588 17.7392 26.6294C16.6832 26.2588 15.9704 27.2118 15.1256 27.6882C14.1488 28.4294 12.8552 28.6147 11.6936 28.1647C11.0336 27.9794 10.4264 27.5559 10.0568 26.9735C11.0072 27.6882 12.3008 27.6882 13.3568 27.2118C13.8848 27 14.4128 26.7618 14.9672 26.5765C14.8088 26.55 14.6768 26.5765 14.5184 26.6294C13.0928 27 11.6936 27.4765 10.1624 27C9.3176 26.5235 8.3672 25.8088 7.9184 24.9882C9.212 26.4176 11.2184 25.9412 12.8816 26.2853C13.1192 26.2853 13.3568 26.3912 13.5944 26.3912C13.3568 26.2853 13.1192 26.2853 12.8816 26.1529C11.588 25.6765 11.3504 24.3794 10.6376 23.3206C11.588 23.9029 12.3008 24.75 13.1192 25.5706C13.7 26.0471 14.3864 26.2588 15.2048 26.4971C16.0496 26.1794 17 26.1 17.8976 26.2588C18.1352 26.2588 18.3728 26.4971 18.6104 26.2588C19.8776 25.9941 21.224 26.1794 22.3856 26.7353L23.5736 27.2118C24.6824 27.5559 25.8704 27.4235 26.8736 26.8412C26.108 27.5824 25.6328 28.0588 24.92 28.1647ZM26.4512 26.7882C24.788 27.3971 23.2568 26.7353 21.7256 26.4706H21.488C22.2008 26.2059 22.9136 26.0735 23.4944 25.4912C24.3392 24.6441 25.1312 23.8235 26.108 23.2412C25.3952 24.1941 25.3952 25.4912 24.2072 26.0735C23.9696 26.3118 23.4944 26.3118 23.2568 26.4176C23.732 26.4176 23.9696 26.1794 24.5504 26.1794C26.0816 25.9412 27.8504 26.1794 28.9064 24.9088C28.352 25.7294 27.2696 26.55 26.4512 26.7882ZM27.2696 25.0941C26.5568 25.3324 25.6064 25.3324 24.788 25.6765C26.0816 24.4853 26.0816 22.7118 26.9264 21.4147C27.164 21.0441 27.4016 20.7 27.7712 20.2235C27.1904 21.2824 27.5336 22.7118 26.8208 23.7706C26.5832 24.2206 26.2664 24.6176 25.8704 24.9618C25.976 24.9618 26.108 24.8559 26.24 24.7235C27.296 23.7706 28.484 23.4265 29.672 22.5794C30.1472 22.2618 30.5168 21.8118 30.728 21.2824C30.596 23.1088 28.8272 24.6441 27.2696 25.0941ZM29.3024 22.2618C28.616 22.5529 28.0352 23.0029 27.5336 23.5588C28.484 22.0235 28.0088 19.8794 28.5896 18.2382L28.8272 17.6559C28.7216 18.7147 29.1968 19.5618 29.0648 20.6206C29.0648 21.3353 28.8272 21.8118 28.484 22.3941C28.9592 21.8118 29.1968 21.0971 29.7776 20.6206C30.6224 19.9059 31.4408 18.9529 31.5464 17.8941C31.8896 19.6676 30.8336 21.3088 29.3024 22.2618ZM7.6016 57.9176C6.9944 57.8912 6.3872 57.9441 5.78 58.0765V67.7647C6.308 67.8441 6.836 67.8706 7.3376 67.8441C10.7168 67.8706 12.5384 65.9647 12.5384 62.6559C12.5648 59.7176 10.928 57.9176 7.6016 57.9176Z" fill="white" fill-opacity="0.92"/>
<path d="M0.499939 54.7955V72.0013H17.6599V54.7955H0.499939ZM12.4327 67.3425C11.2711 68.4808 9.42314 69.0896 7.04714 69.0896C6.09674 69.1161 5.14634 69.0631 4.19594 68.9308V56.9131C5.30474 56.7278 6.41354 56.6484 7.52234 56.6484C9.79274 56.6484 11.3767 57.1513 12.4591 58.1572C13.5415 59.1631 14.1751 60.5925 14.1751 62.5778C14.1751 64.5631 13.5415 66.2043 12.4327 67.3425ZM0.499939 36.5308V53.7366H17.6599V36.5308H0.499939ZM13.6999 45.5572C13.6999 49.3161 11.7463 50.8514 9.07994 50.8514C6.57194 50.8514 4.72394 49.4219 4.72394 45.6102V38.3837H6.30794V45.6631C6.30794 48.3896 7.52234 49.5543 9.15914 49.5543C10.9543 49.5543 12.1159 48.3631 12.1159 45.6631V38.3837H13.6999V45.5572ZM18.9799 36.5308V53.7366H36.1399V36.5308H18.9799ZM32.1799 50.8249H30.6223L26.7415 44.6043C25.8967 43.2808 25.1311 41.9308 24.4711 40.5013L24.4183 40.5278C24.5239 42.0896 24.5239 43.5455 24.5239 45.5837V50.8249H22.9399V38.6484H24.7879L28.6951 44.7896C29.5135 46.0602 30.2263 47.3837 30.8599 48.7337V48.7072C30.7015 47.0661 30.6223 45.5837 30.6223 43.6778V38.6484H32.2063L32.1799 50.8249ZM18.9799 54.7955V72.0013H36.1399V54.7955H18.9799ZM30.4375 63.0013C29.5927 63.8749 28.1935 64.3249 26.6359 64.3249C26.1871 64.3249 25.7383 64.2984 25.3159 64.219V69.0896H23.7319V57.0455C24.7615 56.8602 25.7911 56.7808 26.8207 56.7808C28.3783 56.7808 29.5663 57.1514 30.2791 57.7866C31.0183 58.4484 31.4143 59.3749 31.3879 60.3543C31.3879 61.4661 31.0711 62.3396 30.4375 63.0013Z" fill="white" fill-opacity="0.92"/>
<path d="M26.8736 58.051C26.3456 58.051 25.844 58.0775 25.316 58.1834V62.9481C25.7648 63.0275 26.2136 63.0804 26.6888 63.0804C28.616 63.0804 29.7512 62.1275 29.7512 60.4863C29.7512 58.8451 28.5896 58.051 26.8736 58.051Z" fill="white" fill-opacity="0.92"/>
<path d="M44.956 24.3011C44.8898 24.0979 44.8025 23.9159 44.6942 23.755C44.5879 23.5921 44.4605 23.4533 44.3121 23.3387C44.1656 23.224 43.9991 23.1365 43.8126 23.0762C43.626 23.0158 43.4214 22.9857 43.1988 22.9857C42.8337 22.9857 42.5017 23.0802 42.2028 23.2693C41.9039 23.4583 41.6662 23.7369 41.4897 24.105C41.3132 24.473 41.2249 24.9246 41.2249 25.4596C41.2249 25.9946 41.3142 26.4462 41.4927 26.8142C41.6712 27.1823 41.9129 27.4609 42.2178 27.6499C42.5228 27.839 42.8658 27.9335 43.2469 27.9335C43.6 27.9335 43.9109 27.8581 44.1797 27.7073C44.4505 27.5544 44.6611 27.3392 44.8116 27.0616C44.964 26.7821 45.0402 26.4532 45.0402 26.0751L45.2689 26.1233H43.4154V25.4596H45.7624V26.1233C45.7624 26.6322 45.6541 27.0747 45.4374 27.4508C45.2228 27.8269 44.9259 28.1186 44.5468 28.3257C44.1697 28.5309 43.7364 28.6335 43.2469 28.6335C42.7013 28.6335 42.2219 28.5048 41.8086 28.2473C41.3974 27.9899 41.0765 27.6238 40.8458 27.1491C40.6171 26.6744 40.5027 26.1113 40.5027 25.4596C40.5027 24.9708 40.5679 24.5314 40.6983 24.1412C40.8307 23.749 41.0173 23.4151 41.258 23.1395C41.4987 22.864 41.7836 22.6528 42.1125 22.506C42.4415 22.3591 42.8036 22.2857 43.1988 22.2857C43.5237 22.2857 43.8266 22.335 44.1075 22.4336C44.3903 22.5301 44.6421 22.6679 44.8627 22.8469C45.0854 23.0239 45.2709 23.2361 45.4194 23.4835C45.5678 23.7289 45.6701 24.0014 45.7263 24.3011H44.956Z" fill="white" fill-opacity="0.92"/>
<path d="M47.6543 22.3702V28.549H46.9442V22.3702H47.6543Z" fill="white" fill-opacity="0.92"/>
<path d="M50.8325 28.6456C50.4152 28.6456 50.0491 28.546 49.7342 28.3469C49.4213 28.1477 49.1765 27.8692 49 27.5112C48.8255 27.1531 48.7382 26.7348 48.7382 26.2561C48.7382 25.7734 48.8255 25.352 49 24.992C49.1765 24.6319 49.4213 24.3524 49.7342 24.1532C50.0491 23.9541 50.4152 23.8546 50.8325 23.8546C51.2497 23.8546 51.6148 23.9541 51.9277 24.1532C52.2427 24.3524 52.4874 24.6319 52.6619 24.992C52.8384 25.352 52.9267 25.7734 52.9267 26.2561C52.9267 26.7348 52.8384 27.1531 52.6619 27.5112C52.4874 27.8692 52.2427 28.1477 51.9277 28.3469C51.6148 28.546 51.2497 28.6456 50.8325 28.6456ZM50.8325 28.0059C51.1494 28.0059 51.4102 27.9245 51.6148 27.7616C51.8194 27.5987 51.9709 27.3844 52.0692 27.119C52.1674 26.8535 52.2166 26.5658 52.2166 26.2561C52.2166 25.9463 52.1674 25.6577 52.0692 25.3902C51.9709 25.1227 51.8194 24.9065 51.6148 24.7416C51.4102 24.5766 51.1494 24.4942 50.8325 24.4942C50.5155 24.4942 50.2548 24.5766 50.0501 24.7416C49.8455 24.9065 49.6941 25.1227 49.5958 25.3902C49.4975 25.6577 49.4484 25.9463 49.4484 26.2561C49.4484 26.5658 49.4975 26.8535 49.5958 27.119C49.6941 27.3844 49.8455 27.5987 50.0501 27.7616C50.2548 27.9245 50.5155 28.0059 50.8325 28.0059Z" fill="white" fill-opacity="0.92"/>
<path d="M54.107 28.549V22.3702H54.8171V24.651H54.8773C54.9294 24.5706 55.0016 24.468 55.0939 24.3433C55.1882 24.2166 55.3226 24.104 55.4971 24.0054C55.6736 23.9048 55.9123 23.8546 56.2132 23.8546C56.6024 23.8546 56.9454 23.9521 57.2423 24.1472C57.5392 24.3423 57.7709 24.6189 57.9374 24.9769C58.1039 25.3349 58.1871 25.7573 58.1871 26.244C58.1871 26.7348 58.1039 27.1602 57.9374 27.5202C57.7709 27.8782 57.5402 28.1558 57.2453 28.3529C56.9504 28.548 56.6104 28.6456 56.2253 28.6456C55.9284 28.6456 55.6907 28.5963 55.5121 28.4977C55.3336 28.3972 55.1962 28.2835 55.0999 28.1568C55.0036 28.0281 54.9294 27.9215 54.8773 27.837H54.793V28.549H54.107ZM54.805 26.232C54.805 26.5819 54.8562 26.8907 54.9585 27.1582C55.0608 27.4237 55.2102 27.6318 55.4068 27.7827C55.6034 27.9315 55.8441 28.0059 56.129 28.0059C56.4259 28.0059 56.6736 27.9275 56.8722 27.7706C57.0728 27.6117 57.2232 27.3985 57.3235 27.131C57.4258 26.8615 57.477 26.5618 57.477 26.232C57.477 25.9061 57.4268 25.6125 57.3265 25.351C57.2283 25.0875 57.0788 24.8793 56.8782 24.7265C56.6796 24.5716 56.4299 24.4942 56.129 24.4942C55.8401 24.4942 55.5974 24.5676 55.4008 24.7144C55.2042 24.8592 55.0558 25.0624 54.9555 25.3238C54.8552 25.5833 54.805 25.886 54.805 26.232Z" fill="white" fill-opacity="0.92"/>
<path d="M60.6334 28.6576C60.3405 28.6576 60.0747 28.6023 59.836 28.4917C59.5973 28.3791 59.4077 28.2171 59.2673 28.0059C59.1269 27.7927 59.0567 27.5353 59.0567 27.2336C59.0567 26.9681 59.1088 26.7529 59.2132 26.588C59.3175 26.421 59.4569 26.2903 59.6314 26.1957C59.8059 26.1012 59.9985 26.0308 60.2091 25.9846C60.4218 25.9363 60.6354 25.8981 60.85 25.8699C61.1309 25.8337 61.3585 25.8066 61.5331 25.7885C61.7096 25.7683 61.838 25.7352 61.9182 25.6889C62.0004 25.6426 62.0416 25.5622 62.0416 25.4475V25.4234C62.0416 25.1257 61.9603 24.8944 61.7978 24.7295C61.6374 24.5646 61.3936 24.4821 61.0667 24.4821C60.7277 24.4821 60.4619 24.5565 60.2693 24.7054C60.0767 24.8542 59.9413 25.0131 59.8631 25.182L59.1891 24.9407C59.3094 24.6591 59.4699 24.4399 59.6705 24.283C59.8731 24.1241 60.0938 24.0135 60.3325 23.9511C60.5732 23.8867 60.8099 23.8546 61.0426 23.8546C61.191 23.8546 61.3615 23.8727 61.5541 23.9089C61.7487 23.9431 61.9363 24.0145 62.1168 24.1231C62.2993 24.2317 62.4508 24.3956 62.5711 24.6148C62.6915 24.8341 62.7517 25.1277 62.7517 25.4958V28.549H62.0416V27.9215H62.0055C61.9573 28.022 61.8771 28.1296 61.7647 28.2443C61.6524 28.3589 61.503 28.4565 61.3164 28.5369C61.1299 28.6174 60.9022 28.6576 60.6334 28.6576ZM60.7417 28.018C61.0225 28.018 61.2592 27.9627 61.4518 27.8521C61.6464 27.7415 61.7928 27.5987 61.8911 27.4237C61.9914 27.2487 62.0416 27.0646 62.0416 26.8716V26.2199C62.0115 26.2561 61.9453 26.2893 61.843 26.3194C61.7427 26.3476 61.6263 26.3727 61.4939 26.3949C61.3636 26.415 61.2362 26.4331 61.1118 26.4492C60.9894 26.4633 60.8901 26.4753 60.8139 26.4854C60.6294 26.5095 60.4569 26.5487 60.2964 26.603C60.1379 26.6553 60.0095 26.7348 59.9112 26.8414C59.8149 26.946 59.7668 27.0888 59.7668 27.2698C59.7668 27.5172 59.8581 27.7042 60.0406 27.831C60.2252 27.9557 60.4589 28.018 60.7417 28.018Z" fill="white" fill-opacity="0.92"/>
<path d="M64.7579 22.3702V28.549H64.0478V22.3702H64.7579Z" fill="white" fill-opacity="0.92"/>
<path d="M73.4966 24.3011H72.7504C72.7063 24.0859 72.6291 23.8968 72.5187 23.7339C72.4104 23.571 72.278 23.4342 72.1216 23.3236C71.9671 23.2109 71.7956 23.1265 71.607 23.0701C71.4185 23.0138 71.2219 22.9857 71.0173 22.9857C70.6442 22.9857 70.3062 23.0802 70.0033 23.2693C69.7024 23.4583 69.4626 23.7369 69.2841 24.105C69.1076 24.473 69.0193 24.9246 69.0193 25.4596C69.0193 25.9946 69.1076 26.4462 69.2841 26.8142C69.4626 27.1823 69.7024 27.4609 70.0033 27.6499C70.3062 27.839 70.6442 27.9335 71.0173 27.9335C71.2219 27.9335 71.4185 27.9054 71.607 27.8491C71.7956 27.7927 71.9671 27.7093 72.1216 27.5987C72.278 27.486 72.4104 27.3482 72.5187 27.1853C72.6291 27.0204 72.7063 26.8313 72.7504 26.6181H73.4966C73.4405 26.9339 73.3382 27.2165 73.1897 27.4659C73.0413 27.7153 72.8567 27.9275 72.6361 28.1025C72.4154 28.2755 72.1677 28.4072 71.8929 28.4977C71.6201 28.5882 71.3282 28.6335 71.0173 28.6335C70.4917 28.6335 70.0243 28.5048 69.6151 28.2473C69.2059 27.9899 68.8839 27.6238 68.6492 27.1491C68.4145 26.6744 68.2972 26.1113 68.2972 25.4596C68.2972 24.8079 68.4145 24.2448 68.6492 23.7701C68.8839 23.2954 69.2059 22.9293 69.6151 22.6719C70.0243 22.4144 70.4917 22.2857 71.0173 22.2857C71.3282 22.2857 71.6201 22.331 71.8929 22.4215C72.1677 22.512 72.4154 22.6447 72.6361 22.8197C72.8567 22.9927 73.0413 23.2039 73.1897 23.4533C73.3382 23.7007 73.4405 23.9833 73.4966 24.3011Z" fill="white" fill-opacity="0.92"/>
<path d="M76.544 28.6456C76.0986 28.6456 75.7145 28.547 75.3915 28.3499C75.0706 28.1508 74.8228 27.8732 74.6483 27.5172C74.4758 27.1592 74.3896 26.7428 74.3896 26.2682C74.3896 25.7935 74.4758 25.3751 74.6483 25.0131C74.8228 24.649 75.0656 24.3654 75.3765 24.1623C75.6894 23.9571 76.0545 23.8546 76.4717 23.8546C76.7125 23.8546 76.9502 23.8948 77.1849 23.9752C77.4196 24.0557 77.6332 24.1864 77.8258 24.3675C78.0183 24.5465 78.1718 24.7838 78.2861 25.0795C78.4005 25.3751 78.4577 25.7392 78.4577 26.1716V26.4733H74.8951V25.8578H77.7355C77.7355 25.5964 77.6834 25.3631 77.579 25.1579C77.4767 24.9527 77.3303 24.7908 77.1397 24.6722C76.9512 24.5535 76.7285 24.4942 76.4717 24.4942C76.1889 24.4942 75.9442 24.5646 75.7376 24.7054C75.533 24.8441 75.3755 25.0252 75.2652 25.2484C75.1548 25.4717 75.0997 25.711 75.0997 25.9665V26.3768C75.0997 26.7267 75.1598 27.0234 75.2802 27.2668C75.4026 27.5081 75.5721 27.6922 75.7887 27.8189C76.0054 27.9436 76.2571 28.0059 76.544 28.0059C76.7305 28.0059 76.899 27.9798 77.0495 27.9275C77.2019 27.8732 77.3333 27.7927 77.4436 27.6861C77.554 27.5775 77.6392 27.4428 77.6994 27.2819L78.3854 27.475C78.3132 27.7083 78.1919 27.9134 78.0214 28.0904C77.8509 28.2654 77.6402 28.4022 77.3895 28.5007C77.1387 28.5973 76.8569 28.6456 76.544 28.6456Z" fill="white" fill-opacity="0.92"/>
<path d="M80.248 25.7613V28.549H79.5379V23.9149H80.2239V24.639H80.2841C80.3924 24.4037 80.5569 24.2146 80.7776 24.0718C80.9982 23.927 81.2831 23.8546 81.6321 23.8546C81.945 23.8546 82.2188 23.9189 82.4535 24.0476C82.6882 24.1744 82.8708 24.3675 83.0012 24.6269C83.1316 24.8844 83.1968 25.2102 83.1968 25.6044V28.549H82.4866V25.6527C82.4866 25.2886 82.3924 25.005 82.2038 24.8019C82.0152 24.5967 81.7565 24.4942 81.4275 24.4942C81.2008 24.4942 80.9982 24.5434 80.8197 24.642C80.6432 24.7406 80.5037 24.8844 80.4014 25.0734C80.2991 25.2625 80.248 25.4918 80.248 25.7613Z" fill="white" fill-opacity="0.92"/>
<path d="M86.5043 23.9149V24.5183H84.1092V23.9149H86.5043ZM84.8073 22.8046H85.5174V27.2215C85.5174 27.4227 85.5465 27.5735 85.6047 27.6741C85.6648 27.7726 85.7411 27.839 85.8333 27.8732C85.9276 27.9054 86.0269 27.9215 86.1312 27.9215C86.2095 27.9215 86.2737 27.9174 86.3238 27.9094C86.374 27.8993 86.4141 27.8913 86.4442 27.8853L86.5886 28.5249C86.5404 28.543 86.4732 28.5611 86.387 28.5792C86.3007 28.5993 86.1914 28.6093 86.059 28.6093C85.8584 28.6093 85.6618 28.5661 85.4693 28.4796C85.2787 28.3931 85.1202 28.2614 84.9939 28.0844C84.8695 27.9074 84.8073 27.6841 84.8073 27.4146V22.8046Z" fill="white" fill-opacity="0.92"/>
<path d="M87.5725 28.549V23.9149H88.2586V24.6148H88.3067C88.391 24.3856 88.5434 24.1995 88.7641 24.0567C88.9847 23.9139 89.2335 23.8425 89.5103 23.8425C89.5624 23.8425 89.6276 23.8435 89.7059 23.8455C89.7841 23.8475 89.8433 23.8505 89.8834 23.8546V24.5786C89.8593 24.5726 89.8042 24.5636 89.7179 24.5515C89.6337 24.5374 89.5444 24.5304 89.4501 24.5304C89.2254 24.5304 89.0248 24.5776 88.8483 24.6722C88.6738 24.7647 88.5354 24.8934 88.4331 25.0583C88.3328 25.2213 88.2826 25.4073 88.2826 25.6165V28.549H87.5725Z" fill="white" fill-opacity="0.92"/>
<path d="M92.5222 28.6456C92.0769 28.6456 91.6928 28.547 91.3698 28.3499C91.0489 28.1508 90.8011 27.8732 90.6266 27.5172C90.4541 27.1592 90.3678 26.7428 90.3678 26.2682C90.3678 25.7935 90.4541 25.3751 90.6266 25.0131C90.8011 24.649 91.0438 24.3654 91.3548 24.1623C91.6677 23.9571 92.0328 23.8546 92.45 23.8546C92.6907 23.8546 92.9285 23.8948 93.1631 23.9752C93.3978 24.0557 93.6115 24.1864 93.8041 24.3675C93.9966 24.5465 94.1501 24.7838 94.2644 25.0795C94.3788 25.3751 94.4359 25.7392 94.4359 26.1716V26.4733H90.8733V25.8578H93.7138C93.7138 25.5964 93.6616 25.3631 93.5573 25.1579C93.455 24.9527 93.3086 24.7908 93.118 24.6722C92.9295 24.5535 92.7068 24.4942 92.45 24.4942C92.1672 24.4942 91.9225 24.5646 91.7158 24.7054C91.5112 24.8441 91.3538 25.0252 91.2434 25.2484C91.1331 25.4717 91.0779 25.711 91.0779 25.9665V26.3768C91.0779 26.7267 91.1381 27.0234 91.2585 27.2668C91.3808 27.5081 91.5504 27.6922 91.767 27.8189C91.9836 27.9436 92.2354 28.0059 92.5222 28.0059C92.7088 28.0059 92.8773 27.9798 93.0277 27.9275C93.1802 27.8732 93.3116 27.7927 93.4219 27.6861C93.5322 27.5775 93.6175 27.4428 93.6777 27.2819L94.3637 27.475C94.2915 27.7083 94.1701 27.9134 93.9996 28.0904C93.8291 28.2654 93.6185 28.4022 93.3678 28.5007C93.117 28.5973 92.8352 28.6456 92.5222 28.6456Z" fill="white" fill-opacity="0.92"/>
<path d="M99.9574 23.9149V24.5183H97.466V23.9149H99.9574ZM98.2122 28.549V23.2753C98.2122 23.0098 98.2744 22.7886 98.3987 22.6116C98.5231 22.4346 98.6846 22.3018 98.8832 22.2133C99.0818 22.1248 99.2914 22.0806 99.512 22.0806C99.6866 22.0806 99.829 22.0946 99.9393 22.1228C100.05 22.151 100.132 22.1771 100.186 22.2012L99.9814 22.8167C99.9453 22.8046 99.8952 22.7896 99.831 22.7715C99.7688 22.7534 99.6866 22.7443 99.5843 22.7443C99.3496 22.7443 99.18 22.8036 99.0757 22.9223C98.9734 23.041 98.9223 23.215 98.9223 23.4442V28.549H98.2122Z" fill="white" fill-opacity="0.92"/>
<path d="M102.64 28.6456C102.223 28.6456 101.857 28.546 101.542 28.3469C101.229 28.1477 100.984 27.8692 100.807 27.5112C100.633 27.1531 100.546 26.7348 100.546 26.2561C100.546 25.7734 100.633 25.352 100.807 24.992C100.984 24.6319 101.229 24.3524 101.542 24.1532C101.857 23.9541 102.223 23.8546 102.64 23.8546C103.057 23.8546 103.422 23.9541 103.735 24.1532C104.05 24.3524 104.295 24.6319 104.469 24.992C104.646 25.352 104.734 25.7734 104.734 26.2561C104.734 26.7348 104.646 27.1531 104.469 27.5112C104.295 27.8692 104.05 28.1477 103.735 28.3469C103.422 28.546 103.057 28.6456 102.64 28.6456ZM102.64 28.0059C102.957 28.0059 103.218 27.9245 103.422 27.7616C103.627 27.5987 103.778 27.3844 103.877 27.119C103.975 26.8535 104.024 26.5658 104.024 26.2561C104.024 25.9463 103.975 25.6577 103.877 25.3902C103.778 25.1227 103.627 24.9065 103.422 24.7416C103.218 24.5766 102.957 24.4942 102.64 24.4942C102.323 24.4942 102.062 24.5766 101.858 24.7416C101.653 24.9065 101.501 25.1227 101.403 25.3902C101.305 25.6577 101.256 25.9463 101.256 26.2561C101.256 26.5658 101.305 26.8535 101.403 27.119C101.501 27.3844 101.653 27.5987 101.858 27.7616C102.062 27.9245 102.323 28.0059 102.64 28.0059Z" fill="white" fill-opacity="0.92"/>
<path d="M105.818 28.549V23.9149H106.504V24.6148H106.552C106.636 24.3856 106.789 24.1995 107.01 24.0567C107.23 23.9139 107.479 23.8425 107.756 23.8425C107.808 23.8425 107.873 23.8435 107.951 23.8455C108.03 23.8475 108.089 23.8505 108.129 23.8546V24.5786C108.105 24.5726 108.05 24.5636 107.963 24.5515C107.879 24.5374 107.79 24.5304 107.696 24.5304C107.471 24.5304 107.27 24.5776 107.094 24.6722C106.919 24.7647 106.781 24.8934 106.679 25.0583C106.578 25.2213 106.528 25.4073 106.528 25.6165V28.549H105.818Z" fill="white" fill-opacity="0.92"/>
<path d="M40.4061 32.3773V31.7136H45.0278V32.3773H43.0901V37.8924H42.3438V32.3773H40.4061Z" fill="white" fill-opacity="0.92"/>
<path d="M47.3507 37.9889C46.9054 37.9889 46.5213 37.8904 46.1983 37.6933C45.8773 37.4942 45.6296 37.2166 45.4551 36.8606C45.2826 36.5026 45.1963 36.0862 45.1963 35.6116C45.1963 35.1369 45.2826 34.7185 45.4551 34.3565C45.6296 33.9924 45.8723 33.7088 46.1833 33.5057C46.4962 33.3005 46.8613 33.198 47.2785 33.198C47.5192 33.198 47.7569 33.2382 47.9916 33.3186C48.2263 33.3991 48.44 33.5298 48.6325 33.7108C48.8251 33.8899 48.9786 34.1272 49.0929 34.4229C49.2072 34.7185 49.2644 35.0826 49.2644 35.515V35.8167H45.7018V35.2012H48.5423C48.5423 34.9398 48.4901 34.7065 48.3858 34.5013C48.2835 34.2961 48.1371 34.1342 47.9465 34.0156C47.7579 33.8969 47.5353 33.8376 47.2785 33.8376C46.9957 33.8376 46.7509 33.908 46.5443 34.0488C46.3397 34.1875 46.1823 34.3686 46.0719 34.5918C45.9616 34.8151 45.9064 35.0544 45.9064 35.3099V35.7202C45.9064 36.0701 45.9666 36.3668 46.087 36.6102C46.2093 36.8515 46.3788 37.0356 46.5955 37.1623C46.8121 37.287 47.0639 37.3493 47.3507 37.3493C47.5373 37.3493 47.7058 37.3232 47.8562 37.2709C48.0087 37.2166 48.1401 37.1361 48.2504 37.0295C48.3607 36.9209 48.446 36.7862 48.5062 36.6253L49.1922 36.8184C49.12 37.0517 48.9986 37.2568 48.8281 37.4338C48.6576 37.6088 48.447 37.7456 48.1962 37.8441C47.9455 37.9407 47.6637 37.9889 47.3507 37.9889Z" fill="white" fill-opacity="0.92"/>
<path d="M52.2222 37.9889C51.7889 37.9889 51.4158 37.8864 51.1029 37.6812C50.79 37.4761 50.5492 37.1935 50.3807 36.8334C50.2122 36.4734 50.128 36.0621 50.128 35.5995C50.128 35.1288 50.2142 34.7135 50.3868 34.3535C50.5613 33.9914 50.804 33.7088 51.1149 33.5057C51.4279 33.3005 51.7929 33.198 52.2102 33.198C52.5351 33.198 52.828 33.2583 53.0888 33.379C53.3496 33.4997 53.5632 33.6686 53.7297 33.8858C53.8962 34.1031 53.9995 34.3565 54.0396 34.6461H53.3295C53.2754 34.4349 53.155 34.2479 52.9684 34.085C52.7839 33.92 52.5351 33.8376 52.2222 33.8376C51.9454 33.8376 51.7027 33.91 51.4941 34.0548C51.2874 34.1976 51.126 34.3997 51.0096 34.6612C50.8953 34.9207 50.8381 35.2254 50.8381 35.5754C50.8381 35.9334 50.8943 36.2451 51.0066 36.5106C51.1209 36.7761 51.2814 36.9823 51.488 37.1291C51.6967 37.2759 51.9414 37.3493 52.2222 37.3493C52.4068 37.3493 52.5743 37.3172 52.7247 37.2528C52.8752 37.1884 53.0025 37.0959 53.1068 36.9752C53.2112 36.8546 53.2854 36.7097 53.3295 36.5408H54.0396C53.9995 36.8143 53.9002 37.0607 53.7417 37.28C53.5853 37.4972 53.3777 37.6702 53.1189 37.7989C52.8621 37.9256 52.5632 37.9889 52.2222 37.9889Z" fill="white" fill-opacity="0.92"/>
<path d="M55.7878 35.1047V37.8924H55.0777V31.7136H55.7878V33.9824H55.848C55.9563 33.743 56.1188 33.553 56.3355 33.4122C56.5541 33.2694 56.845 33.198 57.2081 33.198C57.523 33.198 57.7988 33.2613 58.0355 33.388C58.2722 33.5127 58.4558 33.7048 58.5862 33.9643C58.7185 34.2217 58.7847 34.5496 58.7847 34.9478V37.8924H58.0746V34.9961C58.0746 34.628 57.9793 34.3434 57.7888 34.1423C57.6002 33.9391 57.3384 33.8376 57.0034 33.8376C56.7708 33.8376 56.5621 33.8868 56.3776 33.9854C56.195 34.0839 56.0506 34.2278 55.9443 34.4168C55.84 34.6059 55.7878 34.8352 55.7878 35.1047Z" fill="white" fill-opacity="0.92"/>
<path d="M60.794 35.1047V37.8924H60.0839V33.2583H60.7699V33.9824H60.8301C60.9384 33.7471 61.1029 33.558 61.3235 33.4152C61.5442 33.2704 61.829 33.198 62.1781 33.198C62.491 33.198 62.7648 33.2623 62.9995 33.391C63.2342 33.5178 63.4168 33.7108 63.5472 33.9703C63.6775 34.2278 63.7427 34.5536 63.7427 34.9478V37.8924H63.0326V34.9961C63.0326 34.632 62.9383 34.3484 62.7498 34.1453C62.5612 33.9401 62.3025 33.8376 61.9735 33.8376C61.7468 33.8376 61.5442 33.8868 61.3657 33.9854C61.1891 34.0839 61.0497 34.2278 60.9474 34.4168C60.8451 34.6059 60.794 34.8352 60.794 35.1047Z" fill="white" fill-opacity="0.92"/>
<path d="M66.9179 37.9889C66.5007 37.9889 66.1346 37.8894 65.8197 37.6903C65.5067 37.4911 65.262 37.2126 65.0855 36.8546C64.911 36.4965 64.8237 36.0782 64.8237 35.5995C64.8237 35.1168 64.911 34.6954 65.0855 34.3354C65.262 33.9753 65.5067 33.6958 65.8197 33.4966C66.1346 33.2975 66.5007 33.198 66.9179 33.198C67.3352 33.198 67.7003 33.2975 68.0132 33.4966C68.3281 33.6958 68.5729 33.9753 68.7474 34.3354C68.9239 34.6954 69.0122 35.1168 69.0122 35.5995C69.0122 36.0782 68.9239 36.4965 68.7474 36.8546C68.5729 37.2126 68.3281 37.4911 68.0132 37.6903C67.7003 37.8894 67.3352 37.9889 66.9179 37.9889ZM66.9179 37.3493C67.2349 37.3493 67.4957 37.2679 67.7003 37.105C67.9049 36.9421 68.0563 36.7278 68.1546 36.4623C68.2529 36.1969 68.3021 35.9092 68.3021 35.5995C68.3021 35.2897 68.2529 35.0011 68.1546 34.7336C68.0563 34.4661 67.9049 34.2499 67.7003 34.085C67.4957 33.92 67.2349 33.8376 66.9179 33.8376C66.601 33.8376 66.3402 33.92 66.1356 34.085C65.931 34.2499 65.7796 34.4661 65.6813 34.7336C65.583 35.0011 65.5338 35.2897 65.5338 35.5995C65.5338 35.9092 65.583 36.1969 65.6813 36.4623C65.7796 36.7278 65.931 36.9421 66.1356 37.105C66.3402 37.2679 66.601 37.3493 66.9179 37.3493Z" fill="white" fill-opacity="0.92"/>
<path d="M70.8063 31.7136V37.8924H70.0961V31.7136H70.8063Z" fill="white" fill-opacity="0.92"/>
<path d="M73.9845 37.9889C73.5672 37.9889 73.2011 37.8894 72.8862 37.6903C72.5733 37.4911 72.3285 37.2126 72.152 36.8546C71.9775 36.4965 71.8902 36.0782 71.8902 35.5995C71.8902 35.1168 71.9775 34.6954 72.152 34.3354C72.3285 33.9753 72.5733 33.6958 72.8862 33.4966C73.2011 33.2975 73.5672 33.198 73.9845 33.198C74.4017 33.198 74.7668 33.2975 75.0797 33.4966C75.3947 33.6958 75.6394 33.9753 75.8139 34.3354C75.9904 34.6954 76.0787 35.1168 76.0787 35.5995C76.0787 36.0782 75.9904 36.4965 75.8139 36.8546C75.6394 37.2126 75.3947 37.4911 75.0797 37.6903C74.7668 37.8894 74.4017 37.9889 73.9845 37.9889ZM73.9845 37.3493C74.3014 37.3493 74.5622 37.2679 74.7668 37.105C74.9714 36.9421 75.1228 36.7278 75.2211 36.4623C75.3194 36.1969 75.3686 35.9092 75.3686 35.5995C75.3686 35.2897 75.3194 35.0011 75.2211 34.7336C75.1228 34.4661 74.9714 34.2499 74.7668 34.085C74.5622 33.92 74.3014 33.8376 73.9845 33.8376C73.6675 33.8376 73.4067 33.92 73.2021 34.085C72.9975 34.2499 72.8461 34.4661 72.7478 34.7336C72.6495 35.0011 72.6003 35.2897 72.6003 35.5995C72.6003 35.9092 72.6495 36.1969 72.7478 36.4623C72.8461 36.7278 72.9975 36.9421 73.2021 37.105C73.4067 37.2679 73.6675 37.3493 73.9845 37.3493Z" fill="white" fill-opacity="0.92"/>
<path d="M79.0282 39.7267C78.6852 39.7267 78.3903 39.6825 78.1436 39.594C77.8969 39.5075 77.6912 39.3929 77.5267 39.2501C77.3643 39.1093 77.2349 38.9584 77.1386 38.7975L77.7043 38.3993C77.7685 38.4837 77.8497 38.5803 77.948 38.6889C78.0463 38.7995 78.1807 38.8951 78.3512 38.9755C78.5237 39.058 78.7494 39.0992 79.0282 39.0992C79.4013 39.0992 79.7092 39.0087 79.952 38.8277C80.1947 38.6467 80.316 38.3631 80.316 37.9769V37.0356H80.2559C80.2037 37.1201 80.1295 37.2246 80.0332 37.3493C79.9389 37.472 79.8025 37.5817 79.624 37.6782C79.4475 37.7727 79.2088 37.82 78.9079 37.82C78.5347 37.82 78.1997 37.7315 77.9029 37.5545C77.608 37.3775 77.3743 37.1201 77.2018 36.7821C77.0313 36.4442 76.946 36.0339 76.946 35.5512C76.946 35.0765 77.0293 34.6632 77.1958 34.3112C77.3623 33.9572 77.5939 33.6837 77.8908 33.4906C78.1877 33.2955 78.5307 33.198 78.9199 33.198C79.2208 33.198 79.4595 33.2482 79.636 33.3488C79.8146 33.4474 79.951 33.56 80.0452 33.6867C80.1415 33.8114 80.2157 33.914 80.2679 33.9944H80.3401V33.2583H81.0262V38.0252C81.0262 38.4234 80.9359 38.7472 80.7554 38.9966C80.5768 39.248 80.3361 39.4321 80.0332 39.5487C79.7323 39.6674 79.3973 39.7267 79.0282 39.7267ZM79.0041 37.1804C79.289 37.1804 79.5297 37.115 79.7263 36.9843C79.9229 36.8536 80.0723 36.6655 80.1746 36.4201C80.2769 36.1747 80.3281 35.8811 80.3281 35.5391C80.3281 35.2053 80.2779 34.9106 80.1776 34.6552C80.0773 34.3997 79.9289 34.1996 79.7323 34.0548C79.5357 33.91 79.293 33.8376 79.0041 33.8376C78.7032 33.8376 78.4525 33.914 78.2519 34.0669C78.0533 34.2197 77.9039 34.4249 77.8036 34.6823C77.7053 34.9398 77.6561 35.2254 77.6561 35.5391C77.6561 35.861 77.7063 36.1456 77.8066 36.393C77.9089 36.6383 78.0593 36.8314 78.2579 36.9722C78.4585 37.111 78.7073 37.1804 79.0041 37.1804Z" fill="white" fill-opacity="0.92"/>
<path d="M82.7834 39.6302C82.663 39.6302 82.5557 39.6201 82.4614 39.6C82.3671 39.5819 82.302 39.5638 82.2658 39.5457L82.4464 38.9182C82.6189 38.9624 82.7714 38.9785 82.9037 38.9665C83.0361 38.9544 83.1535 38.8951 83.2558 38.7885C83.3601 38.6839 83.4554 38.5139 83.5416 38.2786L83.674 37.9165L81.965 33.2583H82.7352L84.011 36.9511H84.0592L85.335 33.2583H86.1053L84.1434 38.5682C84.0552 38.8076 83.9458 39.0057 83.8155 39.1626C83.6851 39.3215 83.5336 39.4391 83.3611 39.5155C83.1906 39.592 82.998 39.6302 82.7834 39.6302Z" fill="white" fill-opacity="0.92"/>
<path d="M87.8121 37.0476L87.764 37.3735C87.7299 37.6028 87.6777 37.8482 87.6075 38.1096C87.5393 38.3711 87.4681 38.6175 87.3939 38.8488C87.3196 39.0801 87.2584 39.2641 87.2103 39.4009H86.6687C86.6948 39.2722 86.7289 39.1022 86.771 38.891C86.8131 38.6798 86.8553 38.4435 86.8974 38.182C86.9415 37.9226 86.9776 37.6571 87.0057 37.3855L87.0418 37.0476H87.8121Z" fill="white" fill-opacity="0.92"/>
<path d="M92.3534 31.7136V37.8924H91.6071V31.7136H92.3534Z" fill="white" fill-opacity="0.92"/>
<path d="M94.4634 35.1047V37.8924H93.7533V33.2583H94.4393V33.9824H94.4995C94.6078 33.7471 94.7723 33.558 94.993 33.4152C95.2136 33.2704 95.4985 33.198 95.8475 33.198C96.1604 33.198 96.4342 33.2623 96.6689 33.391C96.9036 33.5178 97.0862 33.7108 97.2166 33.9703C97.347 34.2278 97.4122 34.5536 97.4122 34.9478V37.8924H96.702V34.9961C96.702 34.632 96.6078 34.3484 96.4192 34.1453C96.2306 33.9401 95.9719 33.8376 95.6429 33.8376C95.4162 33.8376 95.2136 33.8868 95.0351 33.9854C94.8586 34.0839 94.7191 34.2278 94.6168 34.4168C94.5145 34.6059 94.4634 34.8352 94.4634 35.1047Z" fill="white" fill-opacity="0.92"/>
<path d="M99.4199 35.1047V37.8924H98.7098V33.2583H99.3958V33.9824H99.456C99.5643 33.7471 99.7288 33.558 99.9495 33.4152C100.17 33.2704 100.455 33.198 100.804 33.198C101.117 33.198 101.391 33.2623 101.625 33.391C101.86 33.5178 102.043 33.7108 102.173 33.9703C102.303 34.2278 102.369 34.5536 102.369 34.9478V37.8924H101.659V34.9961C101.659 34.632 101.564 34.3484 101.376 34.1453C101.187 33.9401 100.928 33.8376 100.599 33.8376C100.373 33.8376 100.17 33.8868 99.9916 33.9854C99.8151 34.0839 99.6756 34.2278 99.5733 34.4168C99.471 34.6059 99.4199 34.8352 99.4199 35.1047Z" fill="white" fill-opacity="0.92"/>
<path d="M105.544 37.9889C105.127 37.9889 104.761 37.8894 104.446 37.6903C104.133 37.4911 103.888 37.2126 103.711 36.8546C103.537 36.4965 103.45 36.0782 103.45 35.5995C103.45 35.1168 103.537 34.6954 103.711 34.3354C103.888 33.9753 104.133 33.6958 104.446 33.4966C104.761 33.2975 105.127 33.198 105.544 33.198C105.961 33.198 106.326 33.2975 106.639 33.4966C106.954 33.6958 107.199 33.9753 107.373 34.3354C107.55 34.6954 107.638 35.1168 107.638 35.5995C107.638 36.0782 107.55 36.4965 107.373 36.8546C107.199 37.2126 106.954 37.4911 106.639 37.6903C106.326 37.8894 105.961 37.9889 105.544 37.9889ZM105.544 37.3493C105.861 37.3493 106.122 37.2679 106.326 37.105C106.531 36.9421 106.682 36.7278 106.781 36.4623C106.879 36.1969 106.928 35.9092 106.928 35.5995C106.928 35.2897 106.879 35.0011 106.781 34.7336C106.682 34.4661 106.531 34.2499 106.326 34.085C106.122 33.92 105.861 33.8376 105.544 33.8376C105.227 33.8376 104.966 33.92 104.762 34.085C104.557 34.2499 104.405 34.4661 104.307 34.7336C104.209 35.0011 104.16 35.2897 104.16 35.5995C104.16 35.9092 104.209 36.1969 104.307 36.4623C104.405 36.7278 104.557 36.9421 104.762 37.105C104.966 37.2679 105.227 37.3493 105.544 37.3493Z" fill="white" fill-opacity="0.92"/>
<path d="M112.336 33.2583L110.627 37.8924H109.905L108.195 33.2583H108.966L110.242 36.9511H110.29L111.566 33.2583H112.336Z" fill="white" fill-opacity="0.92"/>
<path d="M114.492 38.001C114.2 38.001 113.934 37.9457 113.695 37.8351C113.456 37.7224 113.267 37.5605 113.126 37.3493C112.986 37.1361 112.916 36.8787 112.916 36.577C112.916 36.3115 112.968 36.0963 113.072 35.9314C113.177 35.7644 113.316 35.6337 113.49 35.5391C113.665 35.4446 113.858 35.3742 114.068 35.328C114.281 35.2797 114.494 35.2415 114.709 35.2133C114.99 35.1771 115.218 35.15 115.392 35.1319C115.569 35.1117 115.697 35.0786 115.777 35.0323C115.86 34.986 115.901 34.9056 115.901 34.7909V34.7668C115.901 34.4691 115.819 34.2378 115.657 34.0729C115.496 33.908 115.253 33.8255 114.926 33.8255C114.587 33.8255 114.321 33.8999 114.128 34.0488C113.936 34.1976 113.8 34.3565 113.722 34.5254L113.048 34.2841C113.169 34.0025 113.329 33.7833 113.53 33.6264C113.732 33.4675 113.953 33.3569 114.192 33.2945C114.432 33.2301 114.669 33.198 114.902 33.198C115.05 33.198 115.221 33.2161 115.413 33.2523C115.608 33.2865 115.795 33.3579 115.976 33.4665C116.158 33.5751 116.31 33.739 116.43 33.9582C116.551 34.1775 116.611 34.4711 116.611 34.8392V37.8924H115.901V37.2649H115.865C115.816 37.3654 115.736 37.473 115.624 37.5877C115.511 37.7023 115.362 37.7999 115.175 37.8803C114.989 37.9608 114.761 38.001 114.492 38.001ZM114.601 37.3614C114.882 37.3614 115.118 37.3061 115.311 37.1955C115.505 37.0849 115.652 36.9421 115.75 36.7671C115.851 36.5921 115.901 36.408 115.901 36.215V35.5633C115.871 35.5995 115.804 35.6327 115.702 35.6628C115.602 35.691 115.485 35.7161 115.353 35.7383C115.223 35.7584 115.095 35.7765 114.971 35.7926C114.849 35.8067 114.749 35.8187 114.673 35.8288C114.488 35.8529 114.316 35.8921 114.155 35.9464C113.997 35.9987 113.869 36.0782 113.77 36.1848C113.674 36.2894 113.626 36.4322 113.626 36.6132C113.626 36.8606 113.717 37.0476 113.9 37.1744C114.084 37.2991 114.318 37.3614 114.601 37.3614Z" fill="white" fill-opacity="0.92"/>
<path d="M119.917 33.2583V33.8617H117.522V33.2583H119.917ZM118.22 32.148H118.93V36.5649C118.93 36.7661 118.959 36.9169 119.017 37.0175C119.077 37.116 119.154 37.1824 119.246 37.2166C119.34 37.2488 119.439 37.2649 119.544 37.2649C119.622 37.2649 119.686 37.2608 119.736 37.2528C119.786 37.2427 119.827 37.2347 119.857 37.2287L120.001 37.8683C119.953 37.8864 119.886 37.9045 119.8 37.9226C119.713 37.9427 119.604 37.9527 119.472 37.9527C119.271 37.9527 119.074 37.9095 118.882 37.823C118.691 37.7365 118.533 37.6048 118.406 37.4278C118.282 37.2508 118.22 37.0275 118.22 36.758V32.148Z" fill="white" fill-opacity="0.92"/>
<path d="M120.985 37.8924V33.2583H121.695V37.8924H120.985ZM121.346 32.4859C121.208 32.4859 121.088 32.4387 120.988 32.3441C120.89 32.2496 120.841 32.136 120.841 32.0032C120.841 31.8705 120.89 31.7568 120.988 31.6623C121.088 31.5678 121.208 31.5205 121.346 31.5205C121.485 31.5205 121.603 31.5678 121.701 31.6623C121.801 31.7568 121.852 31.8705 121.852 32.0032C121.852 32.136 121.801 32.2496 121.701 32.3441C121.603 32.4387 121.485 32.4859 121.346 32.4859Z" fill="white" fill-opacity="0.92"/>
<path d="M124.873 37.9889C124.456 37.9889 124.09 37.8894 123.775 37.6903C123.462 37.4911 123.217 37.2126 123.041 36.8546C122.866 36.4965 122.779 36.0782 122.779 35.5995C122.779 35.1168 122.866 34.6954 123.041 34.3354C123.217 33.9753 123.462 33.6958 123.775 33.4966C124.09 33.2975 124.456 33.198 124.873 33.198C125.291 33.198 125.656 33.2975 125.969 33.4966C126.284 33.6958 126.528 33.9753 126.703 34.3354C126.879 34.6954 126.968 35.1168 126.968 35.5995C126.968 36.0782 126.879 36.4965 126.703 36.8546C126.528 37.2126 126.284 37.4911 125.969 37.6903C125.656 37.8894 125.291 37.9889 124.873 37.9889ZM124.873 37.3493C125.19 37.3493 125.451 37.2679 125.656 37.105C125.86 36.9421 126.012 36.7278 126.11 36.4623C126.208 36.1969 126.257 35.9092 126.257 35.5995C126.257 35.2897 126.208 35.0011 126.11 34.7336C126.012 34.4661 125.86 34.2499 125.656 34.085C125.451 33.92 125.19 33.8376 124.873 33.8376C124.556 33.8376 124.296 33.92 124.091 34.085C123.886 34.2499 123.735 34.4661 123.637 34.7336C123.538 35.0011 123.489 35.2897 123.489 35.5995C123.489 35.9092 123.538 36.1969 123.637 36.4623C123.735 36.7278 123.886 36.9421 124.091 37.105C124.296 37.2679 124.556 37.3493 124.873 37.3493Z" fill="white" fill-opacity="0.92"/>
<path d="M128.762 35.1047V37.8924H128.052V33.2583H128.738V33.9824H128.798C128.906 33.7471 129.071 33.558 129.291 33.4152C129.512 33.2704 129.797 33.198 130.146 33.198C130.459 33.198 130.733 33.2623 130.967 33.391C131.202 33.5178 131.384 33.7108 131.515 33.9703C131.645 34.2278 131.71 34.5536 131.71 34.9478V37.8924H131V34.9961C131 34.632 130.906 34.3484 130.717 34.1453C130.529 33.9401 130.27 33.8376 129.941 33.8376C129.715 33.8376 129.512 33.8868 129.333 33.9854C129.157 34.0839 129.017 34.2278 128.915 34.4168C128.813 34.6059 128.762 34.8352 128.762 35.1047Z" fill="white" fill-opacity="0.92"/>
<path d="M42.0069 47.3504C41.714 47.3504 41.4482 47.2951 41.2095 47.1844C40.9708 47.0718 40.7813 46.9099 40.6408 46.6987C40.5004 46.4855 40.4302 46.2281 40.4302 45.9264C40.4302 45.6609 40.4824 45.4457 40.5867 45.2807C40.691 45.1138 40.8304 44.983 41.0049 44.8885C41.1794 44.794 41.372 44.7236 41.5826 44.6773C41.7953 44.6291 42.0089 44.5908 42.2235 44.5627C42.5044 44.5265 42.7321 44.4993 42.9066 44.4812C43.0831 44.4611 43.2115 44.4279 43.2917 44.3817C43.374 44.3354 43.4151 44.2549 43.4151 44.1403V44.1162C43.4151 43.8185 43.3338 43.5872 43.1714 43.4223C43.0109 43.2573 42.7672 43.1749 42.4402 43.1749C42.1012 43.1749 41.8354 43.2493 41.6428 43.3981C41.4502 43.547 41.3148 43.7058 41.2366 43.8748L40.5626 43.6334C40.683 43.3519 40.8434 43.1326 41.044 42.9757C41.2466 42.8168 41.4673 42.7062 41.706 42.6439C41.9467 42.5795 42.1834 42.5473 42.4161 42.5473C42.5646 42.5473 42.7351 42.5654 42.9276 42.6016C43.1222 42.6358 43.3098 42.7072 43.4903 42.8158C43.6729 42.9244 43.8243 43.0884 43.9447 43.3076C44.065 43.5268 44.1252 43.8205 44.1252 44.1886V47.2418H43.4151V46.6142H43.379C43.3308 46.7148 43.2506 46.8224 43.1383 46.9371C43.0259 47.0517 42.8765 47.1492 42.6899 47.2297C42.5034 47.3102 42.2757 47.3504 42.0069 47.3504ZM42.1152 46.7108C42.3961 46.7108 42.6328 46.6555 42.8253 46.5448C43.0199 46.4342 43.1663 46.2914 43.2646 46.1164C43.3649 45.9414 43.4151 45.7574 43.4151 45.5643V44.9126C43.385 44.9489 43.3188 44.982 43.2165 45.0122C43.1162 45.0404 42.9999 45.0655 42.8675 45.0876C42.7371 45.1077 42.6097 45.1258 42.4853 45.1419C42.363 45.156 42.2637 45.1681 42.1874 45.1781C42.0029 45.2023 41.8304 45.2415 41.6699 45.2958C41.5114 45.3481 41.383 45.4275 41.2847 45.5341C41.1885 45.6387 41.1403 45.7815 41.1403 45.9626C41.1403 46.21 41.2316 46.397 41.4141 46.5237C41.5987 46.6484 41.8324 46.7108 42.1152 46.7108Z" fill="white" fill-opacity="0.92"/>
<path d="M46.1314 44.4541V47.2418H45.4213V42.6077H46.1073V43.3317H46.1675C46.2758 43.0964 46.4403 42.9074 46.661 42.7645C46.8816 42.6197 47.1665 42.5473 47.5155 42.5473C47.8285 42.5473 48.1023 42.6117 48.337 42.7404C48.5717 42.8671 48.7542 43.0602 48.8846 43.3197C49.015 43.5771 49.0802 43.903 49.0802 44.2972V47.2418H48.3701V44.3455C48.3701 43.9814 48.2758 43.6978 48.0872 43.4947C47.8987 43.2895 47.6399 43.1869 47.3109 43.1869C47.0843 43.1869 46.8816 43.2362 46.7031 43.3348C46.5266 43.4333 46.3872 43.5771 46.2849 43.7662C46.1826 43.9553 46.1314 44.1845 46.1314 44.4541Z" fill="white" fill-opacity="0.92"/>
<path d="M52.123 47.3383C51.7378 47.3383 51.3978 47.2408 51.103 47.0457C50.8081 46.8486 50.5774 46.571 50.4109 46.213C50.2444 45.8529 50.1612 45.4275 50.1612 44.9368C50.1612 44.45 50.2444 44.0277 50.4109 43.6696C50.5774 43.3116 50.8091 43.0351 51.106 42.84C51.4028 42.6449 51.7459 42.5473 52.135 42.5473C52.4359 42.5473 52.6736 42.5976 52.8481 42.6982C53.0247 42.7967 53.1591 42.9094 53.2513 43.0361C53.3456 43.1608 53.4188 43.2634 53.471 43.3438H53.5312V41.063H54.2413V47.2418H53.5553V46.5298H53.471C53.4188 46.6142 53.3446 46.7208 53.2483 46.8496C53.1521 46.9763 53.0146 47.0899 52.8361 47.1905C52.6576 47.289 52.4199 47.3383 52.123 47.3383ZM52.2193 46.6987C52.5041 46.6987 52.7448 46.6243 52.9414 46.4755C53.138 46.3246 53.2875 46.1164 53.3898 45.8509C53.4921 45.5834 53.5432 45.2747 53.5432 44.9247C53.5432 44.5788 53.4931 44.2761 53.3928 44.0166C53.2925 43.7551 53.144 43.552 52.9474 43.4072C52.7509 43.2603 52.5081 43.1869 52.2193 43.1869C51.9184 43.1869 51.6676 43.2644 51.467 43.4192C51.2684 43.5721 51.119 43.7803 51.0187 44.0438C50.9204 44.3052 50.8713 44.5989 50.8713 44.9247C50.8713 45.2546 50.9214 45.5543 51.0217 45.8238C51.124 46.0913 51.2745 46.3045 51.4731 46.4634C51.6737 46.6203 51.9224 46.6987 52.2193 46.6987Z" fill="white" fill-opacity="0.92"/>
<path d="M61.4899 42.6077C61.4538 42.3019 61.3073 42.0646 61.0506 41.8957C60.7938 41.7267 60.4788 41.6422 60.1057 41.6422C59.8329 41.6422 59.5942 41.6865 59.3896 41.775C59.187 41.8635 59.0285 41.9852 58.9142 42.14C58.8019 42.2949 58.7457 42.4709 58.7457 42.668C58.7457 42.8329 58.7848 42.9747 58.863 43.0934C58.9433 43.2101 59.0456 43.3076 59.17 43.386C59.2943 43.4625 59.4247 43.5258 59.5611 43.5761C59.6975 43.6244 59.8229 43.6636 59.9372 43.6938L60.5631 43.8627C60.7236 43.905 60.9021 43.9633 61.0987 44.0377C61.2973 44.1121 61.4868 44.2137 61.6674 44.3424C61.8499 44.4691 62.0004 44.6321 62.1187 44.8312C62.2371 45.0303 62.2963 45.2747 62.2963 45.5643C62.2963 45.8982 62.209 46.1999 62.0345 46.4694C61.862 46.7389 61.6092 46.9531 61.2762 47.112C60.9452 47.2709 60.543 47.3504 60.0696 47.3504C59.6283 47.3504 59.2462 47.279 58.9232 47.1362C58.6023 46.9934 58.3495 46.7942 58.165 46.5388C57.9824 46.2834 57.8791 45.9867 57.855 45.6488H58.6253C58.6454 45.8821 58.7236 46.0752 58.86 46.2281C58.9984 46.3789 59.173 46.4915 59.3836 46.566C59.5962 46.6384 59.8249 46.6746 60.0696 46.6746C60.3545 46.6746 60.6102 46.6283 60.8369 46.5358C61.0636 46.4413 61.2431 46.3105 61.3755 46.1436C61.5079 45.9746 61.5741 45.7775 61.5741 45.5523C61.5741 45.3471 61.5169 45.1802 61.4026 45.0514C61.2883 44.9227 61.1378 44.8181 60.9513 44.7377C60.7647 44.6572 60.5631 44.5868 60.3465 44.5265L59.5882 44.3092C59.1068 44.1705 58.7256 43.9724 58.4448 43.7149C58.164 43.4575 58.0235 43.1206 58.0235 42.7042C58.0235 42.3583 58.1168 42.0566 58.3034 41.7991C58.4919 41.5396 58.7447 41.3385 59.0616 41.1957C59.3806 41.0509 59.7366 40.9785 60.1298 40.9785C60.527 40.9785 60.88 41.0499 61.189 41.1927C61.4979 41.3335 61.7426 41.5266 61.9231 41.772C62.1057 42.0173 62.202 42.2959 62.212 42.6077H61.4899Z" fill="white" fill-opacity="0.92"/>
<path d="M66.3395 45.3471V42.6077H67.0496V47.2418H66.3395V46.4574H66.2914C66.1831 46.6927 66.0146 46.8928 65.7859 47.0577C65.5572 47.2207 65.2683 47.3021 64.9193 47.3021C64.6305 47.3021 64.3737 47.2388 64.149 47.112C63.9243 46.9833 63.7478 46.7902 63.6194 46.5328C63.4911 46.2733 63.4269 45.9465 63.4269 45.5523V42.6077H64.137V45.504C64.137 45.8419 64.2313 46.1114 64.4198 46.3125C64.6104 46.5137 64.8531 46.6142 65.148 46.6142C65.3245 46.6142 65.504 46.569 65.6866 46.4785C65.8711 46.388 66.0256 46.2492 66.15 46.0621C66.2763 45.8751 66.3395 45.6367 66.3395 45.3471Z" fill="white" fill-opacity="0.92"/>
<path d="M71.624 43.6455L70.9861 43.8265C70.946 43.7199 70.8868 43.6163 70.8086 43.5158C70.7324 43.4132 70.628 43.3287 70.4956 43.2624C70.3633 43.196 70.1938 43.1628 69.9871 43.1628C69.7043 43.1628 69.4686 43.2282 69.28 43.3589C69.0935 43.4876 69.0002 43.6515 69.0002 43.8507C69.0002 44.0277 69.0644 44.1675 69.1928 44.27C69.3212 44.3726 69.5217 44.4581 69.7946 44.5265L70.4806 44.6954C70.8938 44.796 71.2017 44.9499 71.4044 45.157C71.607 45.3622 71.7083 45.6267 71.7083 45.9505C71.7083 46.216 71.632 46.4533 71.4796 46.6625C71.3291 46.8717 71.1185 47.0366 70.8477 47.1573C70.5769 47.278 70.262 47.3383 69.9029 47.3383C69.4315 47.3383 69.0413 47.2357 68.7324 47.0306C68.4235 46.8254 68.2279 46.5257 68.1457 46.1315L68.8197 45.9626C68.8839 46.212 69.0052 46.399 69.1837 46.5237C69.3643 46.6484 69.6 46.7108 69.8908 46.7108C70.2218 46.7108 70.4846 46.6404 70.6792 46.4996C70.8758 46.3568 70.9741 46.1858 70.9741 45.9867C70.9741 45.8258 70.9179 45.691 70.8056 45.5824C70.6932 45.4718 70.5207 45.3893 70.288 45.335L69.5177 45.154C69.0945 45.0534 68.7836 44.8976 68.585 44.6864C68.3884 44.4732 68.2901 44.2067 68.2901 43.8869C68.2901 43.6254 68.3633 43.3941 68.5097 43.193C68.6582 42.9918 68.8598 42.8339 69.1145 42.7193C69.3713 42.6046 69.6622 42.5473 69.9871 42.5473C70.4445 42.5473 70.8036 42.6479 71.0643 42.849C71.3271 43.0502 71.5137 43.3157 71.624 43.6455Z" fill="white" fill-opacity="0.92"/>
<path d="M74.7872 42.6077V43.2111H72.392V42.6077H74.7872ZM73.0901 41.4974H73.8002V45.9143C73.8002 46.1154 73.8293 46.2663 73.8875 46.3668C73.9477 46.4654 74.0239 46.5318 74.1162 46.566C74.2104 46.5981 74.3097 46.6142 74.4141 46.6142C74.4923 46.6142 74.5565 46.6102 74.6066 46.6022C74.6568 46.5921 74.6969 46.5841 74.727 46.578L74.8714 47.2176C74.8233 47.2357 74.7561 47.2538 74.6698 47.2719C74.5836 47.2921 74.4742 47.3021 74.3418 47.3021C74.1412 47.3021 73.9447 47.2589 73.7521 47.1724C73.5615 47.0859 73.403 46.9541 73.2767 46.7772C73.1523 46.6002 73.0901 46.3769 73.0901 46.1074V41.4974Z" fill="white" fill-opacity="0.92"/>
<path d="M77.2154 47.3504C76.9225 47.3504 76.6567 47.2951 76.418 47.1844C76.1793 47.0718 75.9897 46.9099 75.8493 46.6987C75.7089 46.4855 75.6387 46.2281 75.6387 45.9264C75.6387 45.6609 75.6909 45.4457 75.7952 45.2807C75.8995 45.1138 76.0389 44.983 76.2134 44.8885C76.3879 44.794 76.5805 44.7236 76.7911 44.6773C77.0038 44.6291 77.2174 44.5908 77.432 44.5627C77.7129 44.5265 77.9405 44.4993 78.1151 44.4812C78.2916 44.4611 78.42 44.4279 78.5002 44.3817C78.5825 44.3354 78.6236 44.2549 78.6236 44.1403V44.1162C78.6236 43.8185 78.5423 43.5872 78.3799 43.4223C78.2194 43.2573 77.9757 43.1749 77.6487 43.1749C77.3097 43.1749 77.0439 43.2493 76.8513 43.3981C76.6587 43.547 76.5233 43.7058 76.4451 43.8748L75.7711 43.6334C75.8914 43.3519 76.0519 43.1326 76.2525 42.9757C76.4551 42.8168 76.6758 42.7062 76.9145 42.6439C77.1552 42.5795 77.3919 42.5473 77.6246 42.5473C77.773 42.5473 77.9436 42.5654 78.1361 42.6016C78.3307 42.6358 78.5183 42.7072 78.6988 42.8158C78.8813 42.9244 79.0328 43.0884 79.1532 43.3076C79.2735 43.5268 79.3337 43.8205 79.3337 44.1886V47.2418H78.6236V46.6142H78.5875C78.5393 46.7148 78.4591 46.8224 78.3468 46.9371C78.2344 47.0517 78.085 47.1492 77.8984 47.2297C77.7119 47.3102 77.4842 47.3504 77.2154 47.3504ZM77.3237 46.7108C77.6045 46.7108 77.8413 46.6555 78.0338 46.5448C78.2284 46.4342 78.3748 46.2914 78.4731 46.1164C78.5734 45.9414 78.6236 45.7574 78.6236 45.5643V44.9126C78.5935 44.9489 78.5273 44.982 78.425 45.0122C78.3247 45.0404 78.2083 45.0655 78.076 45.0876C77.9456 45.1077 77.8182 45.1258 77.6938 45.1419C77.5714 45.156 77.4722 45.1681 77.3959 45.1781C77.2114 45.2023 77.0389 45.2415 76.8784 45.2958C76.7199 45.3481 76.5915 45.4275 76.4932 45.5341C76.397 45.6387 76.3488 45.7815 76.3488 45.9626C76.3488 46.21 76.4401 46.397 76.6226 46.5237C76.8072 46.6484 77.0409 46.7108 77.3237 46.7108Z" fill="white" fill-opacity="0.92"/>
<path d="M80.6298 47.2418V42.6077H81.3399V47.2418H80.6298ZM80.9909 41.8353C80.8525 41.8353 80.7331 41.788 80.6328 41.6935C80.5345 41.599 80.4854 41.4853 80.4854 41.3526C80.4854 41.2198 80.5345 41.1062 80.6328 41.0117C80.7331 40.9171 80.8525 40.8699 80.9909 40.8699C81.1293 40.8699 81.2476 40.9171 81.3459 41.0117C81.4462 41.1062 81.4964 41.2198 81.4964 41.3526C81.4964 41.4853 81.4462 41.599 81.3459 41.6935C81.2476 41.788 81.1293 41.8353 80.9909 41.8353Z" fill="white" fill-opacity="0.92"/>
<path d="M83.3506 44.4541V47.2418H82.6405V42.6077H83.3266V43.3317H83.3867C83.4951 43.0964 83.6596 42.9074 83.8802 42.7645C84.1009 42.6197 84.3857 42.5473 84.7348 42.5473C85.0477 42.5473 85.3215 42.6117 85.5562 42.7404C85.7909 42.8671 85.9734 43.0602 86.1038 43.3197C86.2342 43.5771 86.2994 43.903 86.2994 44.2972V47.2418H85.5893V44.3455C85.5893 43.9814 85.495 43.6978 85.3065 43.4947C85.1179 43.2895 84.8591 43.1869 84.5302 43.1869C84.3035 43.1869 84.1009 43.2362 83.9223 43.3348C83.7458 43.4333 83.6064 43.5771 83.5041 43.7662C83.4018 43.9553 83.3506 44.1845 83.3506 44.4541Z" fill="white" fill-opacity="0.92"/>
<path d="M88.9571 47.3504C88.6642 47.3504 88.3984 47.2951 88.1597 47.1844C87.921 47.0718 87.7314 46.9099 87.591 46.6987C87.4506 46.4855 87.3804 46.2281 87.3804 45.9264C87.3804 45.6609 87.4325 45.4457 87.5368 45.2807C87.6412 45.1138 87.7806 44.983 87.9551 44.8885C88.1296 44.794 88.3222 44.7236 88.5328 44.6773C88.7454 44.6291 88.9591 44.5908 89.1737 44.5627C89.4545 44.5265 89.6822 44.4993 89.8567 44.4812C90.0333 44.4611 90.1616 44.4279 90.2419 44.3817C90.3241 44.3354 90.3653 44.2549 90.3653 44.1403V44.1162C90.3653 43.8185 90.284 43.5872 90.1215 43.4223C89.9611 43.2573 89.7173 43.1749 89.3904 43.1749C89.0513 43.1749 88.7856 43.2493 88.593 43.3981C88.4004 43.547 88.265 43.7058 88.1868 43.8748L87.5128 43.6334C87.6331 43.3519 87.7936 43.1326 87.9942 42.9757C88.1968 42.8168 88.4175 42.7062 88.6562 42.6439C88.8969 42.5795 89.1336 42.5473 89.3663 42.5473C89.5147 42.5473 89.6852 42.5654 89.8778 42.6016C90.0724 42.6358 90.2599 42.7072 90.4405 42.8158C90.623 42.9244 90.7745 43.0884 90.8948 43.3076C91.0152 43.5268 91.0754 43.8205 91.0754 44.1886V47.2418H90.3653V46.6142H90.3291C90.281 46.7148 90.2008 46.8224 90.0884 46.9371C89.9761 47.0517 89.8267 47.1492 89.6401 47.2297C89.4535 47.3102 89.2259 47.3504 88.9571 47.3504ZM89.0654 46.7108C89.3462 46.7108 89.5829 46.6555 89.7755 46.5448C89.9701 46.4342 90.1165 46.2914 90.2148 46.1164C90.3151 45.9414 90.3653 45.7574 90.3653 45.5643V44.9126C90.3352 44.9489 90.269 44.982 90.1667 45.0122C90.0664 45.0404 89.95 45.0655 89.8176 45.0876C89.6872 45.1077 89.5599 45.1258 89.4355 45.1419C89.3131 45.156 89.2138 45.1681 89.1376 45.1781C88.9531 45.2023 88.7805 45.2415 88.6201 45.2958C88.4616 45.3481 88.3332 45.4275 88.2349 45.5341C88.1386 45.6387 88.0905 45.7815 88.0905 45.9626C88.0905 46.21 88.1818 46.397 88.3643 46.5237C88.5489 46.6484 88.7825 46.7108 89.0654 46.7108Z" fill="white" fill-opacity="0.92"/>
<path d="M92.4678 47.2418V41.063H93.1779V43.3438H93.2381C93.2902 43.2634 93.3624 43.1608 93.4547 43.0361C93.549 42.9094 93.6834 42.7967 93.8579 42.6982C94.0344 42.5976 94.2731 42.5473 94.574 42.5473C94.9632 42.5473 95.3062 42.6449 95.6031 42.84C95.9 43.0351 96.1317 43.3116 96.2982 43.6696C96.4647 44.0277 96.5479 44.45 96.5479 44.9368C96.5479 45.4275 96.4647 45.8529 96.2982 46.213C96.1317 46.571 95.901 46.8486 95.6061 47.0457C95.3112 47.2408 94.9712 47.3383 94.5861 47.3383C94.2892 47.3383 94.0515 47.289 93.8729 47.1905C93.6944 47.0899 93.557 46.9763 93.4607 46.8496C93.3644 46.7208 93.2902 46.6142 93.2381 46.5298H93.1538V47.2418H92.4678ZM93.1658 44.9247C93.1658 45.2747 93.217 45.5834 93.3193 45.8509C93.4216 46.1164 93.571 46.3246 93.7676 46.4755C93.9642 46.6243 94.2049 46.6987 94.4898 46.6987C94.7867 46.6987 95.0344 46.6203 95.233 46.4634C95.4336 46.3045 95.584 46.0913 95.6843 45.8238C95.7866 45.5543 95.8378 45.2546 95.8378 44.9247C95.8378 44.5989 95.7876 44.3052 95.6873 44.0438C95.589 43.7803 95.4396 43.5721 95.239 43.4192C95.0404 43.2644 94.7907 43.1869 94.4898 43.1869C94.2009 43.1869 93.9582 43.2603 93.7616 43.4072C93.565 43.552 93.4166 43.7551 93.3163 44.0166C93.216 44.2761 93.1658 44.5788 93.1658 44.9247Z" fill="white" fill-opacity="0.92"/>
<path d="M98.3442 41.063V47.2418H97.6341V41.063H98.3442Z" fill="white" fill-opacity="0.92"/>
<path d="M101.583 47.3383C101.137 47.3383 100.753 47.2398 100.43 47.0426C100.109 46.8435 99.8615 46.566 99.687 46.21C99.5145 45.8519 99.4282 45.4356 99.4282 44.9609C99.4282 44.4862 99.5145 44.0679 99.687 43.7058C99.8615 43.3418 100.104 43.0582 100.415 42.8551C100.728 42.6499 101.093 42.5473 101.51 42.5473C101.751 42.5473 101.989 42.5875 102.224 42.668C102.458 42.7485 102.672 42.8792 102.864 43.0602C103.057 43.2392 103.21 43.4766 103.325 43.7722C103.439 44.0679 103.496 44.4319 103.496 44.8644V45.1661H99.9337V44.5506H102.774C102.774 44.2891 102.722 44.0558 102.618 43.8507C102.515 43.6455 102.369 43.4836 102.178 43.3649C101.99 43.2463 101.767 43.1869 101.51 43.1869C101.228 43.1869 100.983 43.2573 100.776 43.3981C100.572 43.5369 100.414 43.7179 100.304 43.9412C100.193 44.1644 100.138 44.4038 100.138 44.6592V45.0695C100.138 45.4195 100.199 45.7162 100.319 45.9595C100.441 46.2009 100.611 46.3849 100.827 46.5117C101.044 46.6364 101.296 46.6987 101.583 46.6987C101.769 46.6987 101.938 46.6726 102.088 46.6203C102.241 46.566 102.372 46.4855 102.482 46.3789C102.593 46.2703 102.678 46.1355 102.738 45.9746L103.424 46.1677C103.352 46.401 103.231 46.6062 103.06 46.7832C102.89 46.9582 102.679 47.0949 102.428 47.1935C102.177 47.29 101.896 47.3383 101.583 47.3383Z" fill="white" fill-opacity="0.92"/>
<path d="M108.958 47.2418H107.056V41.063H109.042C109.64 41.063 110.151 41.1867 110.576 41.4341C111.002 41.6794 111.328 42.0324 111.554 42.493C111.781 42.9516 111.894 43.5007 111.894 44.1403C111.894 44.7839 111.78 45.338 111.551 45.8027C111.323 46.2653 110.99 46.6213 110.552 46.8707C110.115 47.1181 109.583 47.2418 108.958 47.2418ZM107.802 46.578H108.909C109.419 46.578 109.841 46.4795 110.176 46.2824C110.511 46.0853 110.761 45.8047 110.925 45.4406C111.09 45.0766 111.172 44.6431 111.172 44.1403C111.172 43.6415 111.091 43.2121 110.928 42.852C110.766 42.49 110.523 42.2124 110.2 42.0193C109.877 41.8242 109.475 41.7267 108.994 41.7267H107.802V46.578Z" fill="white" fill-opacity="0.92"/>
<path d="M114.988 47.3383C114.542 47.3383 114.158 47.2398 113.835 47.0426C113.514 46.8435 113.266 46.566 113.092 46.21C112.919 45.8519 112.833 45.4356 112.833 44.9609C112.833 44.4862 112.919 44.0679 113.092 43.7058C113.266 43.3418 113.509 43.0582 113.82 42.8551C114.133 42.6499 114.498 42.5473 114.915 42.5473C115.156 42.5473 115.394 42.5875 115.628 42.668C115.863 42.7485 116.077 42.8792 116.269 43.0602C116.462 43.2392 116.615 43.4766 116.73 43.7722C116.844 44.0679 116.901 44.4319 116.901 44.8644V45.1661H113.339V44.5506H116.179C116.179 44.2891 116.127 44.0558 116.023 43.8507C115.92 43.6455 115.774 43.4836 115.583 43.3649C115.395 43.2463 115.172 43.1869 114.915 43.1869C114.632 43.1869 114.388 43.2573 114.181 43.3981C113.977 43.5369 113.819 43.7179 113.709 43.9412C113.598 44.1644 113.543 44.4038 113.543 44.6592V45.0695C113.543 45.4195 113.603 45.7162 113.724 45.9595C113.846 46.2009 114.016 46.3849 114.232 46.5117C114.449 46.6364 114.701 46.6987 114.988 46.6987C115.174 46.6987 115.343 46.6726 115.493 46.6203C115.645 46.566 115.777 46.4855 115.887 46.3789C115.998 46.2703 116.083 46.1355 116.143 45.9746L116.829 46.1677C116.757 46.401 116.635 46.6062 116.465 46.7832C116.294 46.9582 116.084 47.0949 115.833 47.1935C115.582 47.29 115.3 47.3383 114.988 47.3383Z" fill="white" fill-opacity="0.92"/>
<path d="M121.62 42.6077L119.911 47.2418H119.189L117.48 42.6077H118.25L119.526 46.3005H119.574L120.85 42.6077H121.62Z" fill="white" fill-opacity="0.92"/>
<path d="M124.33 47.3383C123.884 47.3383 123.5 47.2398 123.177 47.0426C122.856 46.8435 122.608 46.566 122.434 46.21C122.261 45.8519 122.175 45.4356 122.175 44.9609C122.175 44.4862 122.261 44.0679 122.434 43.7058C122.608 43.3418 122.851 43.0582 123.162 42.8551C123.475 42.6499 123.84 42.5473 124.257 42.5473C124.498 42.5473 124.736 42.5875 124.97 42.668C125.205 42.7485 125.419 42.8792 125.611 43.0602C125.804 43.2392 125.957 43.4766 126.072 43.7722C126.186 44.0679 126.243 44.4319 126.243 44.8644V45.1661H122.681V44.5506H125.521C125.521 44.2891 125.469 44.0558 125.365 43.8507C125.262 43.6455 125.116 43.4836 124.925 43.3649C124.737 43.2463 124.514 43.1869 124.257 43.1869C123.974 43.1869 123.73 43.2573 123.523 43.3981C123.319 43.5369 123.161 43.7179 123.051 43.9412C122.94 44.1644 122.885 44.4038 122.885 44.6592V45.0695C122.885 45.4195 122.945 45.7162 123.066 45.9595C123.188 46.2009 123.358 46.3849 123.574 46.5117C123.791 46.6364 124.043 46.6987 124.33 46.6987C124.516 46.6987 124.685 46.6726 124.835 46.6203C124.988 46.566 125.119 46.4855 125.229 46.3789C125.34 46.2703 125.425 46.1355 125.485 45.9746L126.171 46.1677C126.099 46.401 125.977 46.6062 125.807 46.7832C125.636 46.9582 125.426 47.0949 125.175 47.1935C124.924 47.29 124.642 47.3383 124.33 47.3383Z" fill="white" fill-opacity="0.92"/>
<path d="M128.034 41.063V47.2418H127.323V41.063H128.034Z" fill="white" fill-opacity="0.92"/>
<path d="M131.212 47.3383C130.795 47.3383 130.428 47.2388 130.114 47.0396C129.801 46.8405 129.556 46.5619 129.379 46.2039C129.205 45.8459 129.118 45.4275 129.118 44.9489C129.118 44.4661 129.205 44.0448 129.379 43.6847C129.556 43.3247 129.801 43.0451 130.114 42.846C130.428 42.6469 130.795 42.5473 131.212 42.5473C131.629 42.5473 131.994 42.6469 132.307 42.846C132.622 43.0451 132.867 43.3247 133.041 43.6847C133.218 44.0448 133.306 44.4661 133.306 44.9489C133.306 45.4275 133.218 45.8459 133.041 46.2039C132.867 46.5619 132.622 46.8405 132.307 47.0396C131.994 47.2388 131.629 47.3383 131.212 47.3383ZM131.212 46.6987C131.529 46.6987 131.789 46.6173 131.994 46.4543C132.199 46.2914 132.35 46.0772 132.448 45.8117C132.547 45.5462 132.596 45.2586 132.596 44.9489C132.596 44.6391 132.547 44.3505 132.448 44.083C132.35 43.8155 132.199 43.5992 131.994 43.4343C131.789 43.2694 131.529 43.1869 131.212 43.1869C130.895 43.1869 130.634 43.2694 130.429 43.4343C130.225 43.5992 130.073 43.8155 129.975 44.083C129.877 44.3505 129.828 44.6391 129.828 44.9489C129.828 45.2586 129.877 45.5462 129.975 45.8117C130.073 46.0772 130.225 46.2914 130.429 46.4543C130.634 46.6173 130.895 46.6987 131.212 46.6987Z" fill="white" fill-opacity="0.92"/>
<path d="M134.39 48.9796V42.6077H135.076V43.3438H135.16C135.212 43.2634 135.285 43.1608 135.377 43.0361C135.471 42.9094 135.606 42.7967 135.78 42.6982C135.957 42.5976 136.195 42.5473 136.496 42.5473C136.885 42.5473 137.228 42.6449 137.525 42.84C137.822 43.0351 138.054 43.3116 138.22 43.6696C138.387 44.0277 138.47 44.45 138.47 44.9368C138.47 45.4275 138.387 45.8529 138.22 46.213C138.054 46.571 137.823 46.8486 137.528 47.0457C137.233 47.2408 136.893 47.3383 136.508 47.3383C136.211 47.3383 135.974 47.289 135.795 47.1905C135.617 47.0899 135.479 46.9763 135.383 46.8496C135.287 46.7208 135.212 46.6142 135.16 46.5298H135.1V48.9796H134.39ZM135.088 44.9247C135.088 45.2747 135.139 45.5834 135.242 45.8509C135.344 46.1164 135.493 46.3246 135.69 46.4755C135.886 46.6243 136.127 46.6987 136.412 46.6987C136.709 46.6987 136.957 46.6203 137.155 46.4634C137.356 46.3045 137.506 46.0913 137.607 45.8238C137.709 45.5543 137.76 45.2546 137.76 44.9247C137.76 44.5989 137.71 44.3052 137.61 44.0438C137.511 43.7803 137.362 43.5721 137.161 43.4192C136.963 43.2644 136.713 43.1869 136.412 43.1869C136.123 43.1869 135.88 43.2603 135.684 43.4072C135.487 43.552 135.339 43.7551 135.239 44.0166C135.138 44.2761 135.088 44.5788 135.088 44.9247Z" fill="white" fill-opacity="0.92"/>
<path d="M139.553 47.2418V42.6077H140.239V43.3317H140.3C140.396 43.0843 140.551 42.8923 140.766 42.7555C140.981 42.6167 141.238 42.5473 141.539 42.5473C141.844 42.5473 142.098 42.6167 142.301 42.7555C142.505 42.8923 142.665 43.0843 142.779 43.3317H142.827C142.945 43.0924 143.123 42.9023 143.36 42.7615C143.596 42.6187 143.88 42.5473 144.211 42.5473C144.624 42.5473 144.962 42.6771 145.225 42.9365C145.488 43.194 145.619 43.5952 145.619 44.1403V47.2418H144.909V44.1403C144.909 43.7984 144.816 43.554 144.629 43.4072C144.443 43.2603 144.223 43.1869 143.97 43.1869C143.646 43.1869 143.394 43.2855 143.215 43.4826C143.037 43.6777 142.947 43.9251 142.947 44.2248V47.2418H142.225V44.0679C142.225 43.8044 142.14 43.5922 141.97 43.4313C141.799 43.2684 141.579 43.1869 141.311 43.1869C141.126 43.1869 140.954 43.2362 140.793 43.3348C140.635 43.4333 140.506 43.5701 140.408 43.7451C140.312 43.918 140.263 44.1182 140.263 44.3455V47.2418H139.553Z" fill="white" fill-opacity="0.92"/>
<path d="M148.856 47.3383C148.41 47.3383 148.026 47.2398 147.703 47.0426C147.382 46.8435 147.134 46.566 146.96 46.21C146.787 45.8519 146.701 45.4356 146.701 44.9609C146.701 44.4862 146.787 44.0679 146.96 43.7058C147.134 43.3418 147.377 43.0582 147.688 42.8551C148.001 42.6499 148.366 42.5473 148.783 42.5473C149.024 42.5473 149.262 42.5875 149.496 42.668C149.731 42.7485 149.945 42.8792 150.137 43.0602C150.33 43.2392 150.483 43.4766 150.598 43.7722C150.712 44.0679 150.769 44.4319 150.769 44.8644V45.1661H147.207V44.5506H150.047C150.047 44.2891 149.995 44.0558 149.891 43.8507C149.788 43.6455 149.642 43.4836 149.451 43.3649C149.263 43.2463 149.04 43.1869 148.783 43.1869C148.5 43.1869 148.256 43.2573 148.049 43.3981C147.845 43.5369 147.687 43.7179 147.577 43.9412C147.466 44.1644 147.411 44.4038 147.411 44.6592V45.0695C147.411 45.4195 147.471 45.7162 147.592 45.9595C147.714 46.2009 147.884 46.3849 148.1 46.5117C148.317 46.6364 148.569 46.6987 148.856 46.6987C149.042 46.6987 149.211 46.6726 149.361 46.6203C149.513 46.566 149.645 46.4855 149.755 46.3789C149.866 46.2703 149.951 46.1355 150.011 45.9746L150.697 46.1677C150.625 46.401 150.503 46.6062 150.333 46.7832C150.162 46.9582 149.952 47.0949 149.701 47.1935C149.45 47.29 149.168 47.3383 148.856 47.3383Z" fill="white" fill-opacity="0.92"/>
<path d="M152.56 44.4541V47.2418H151.849V42.6077H152.535V43.3317H152.596C152.704 43.0964 152.868 42.9074 153.089 42.7645C153.31 42.6197 153.595 42.5473 153.944 42.5473C154.257 42.5473 154.53 42.6117 154.765 42.7404C155 42.8671 155.182 43.0602 155.313 43.3197C155.443 43.5771 155.508 43.903 155.508 44.2972V47.2418H154.798V44.3455C154.798 43.9814 154.704 43.6978 154.515 43.4947C154.327 43.2895 154.068 43.1869 153.739 43.1869C153.512 43.1869 153.31 43.2362 153.131 43.3348C152.955 43.4333 152.815 43.5771 152.713 43.7662C152.611 43.9553 152.56 44.1845 152.56 44.4541Z" fill="white" fill-opacity="0.92"/>
<path d="M158.816 42.6077V43.2111H156.421V42.6077H158.816ZM157.119 41.4974H157.829V45.9143C157.829 46.1154 157.858 46.2663 157.916 46.3668C157.976 46.4654 158.053 46.5318 158.145 46.566C158.239 46.5981 158.338 46.6142 158.443 46.6142C158.521 46.6142 158.585 46.6102 158.635 46.6022C158.686 46.5921 158.726 46.5841 158.756 46.578L158.9 47.2176C158.852 47.2357 158.785 47.2538 158.699 47.2719C158.612 47.2921 158.503 47.3021 158.371 47.3021C158.17 47.3021 157.973 47.2589 157.781 47.1724C157.59 47.0859 157.432 46.9541 157.305 46.7772C157.181 46.6002 157.119 46.3769 157.119 46.1074V41.4974Z" fill="white" fill-opacity="0.92"/>
<path d="M44.1134 51.948C44.0773 51.6423 43.9309 51.4049 43.6741 51.236C43.4174 51.067 43.1024 50.9826 42.7293 50.9826C42.4565 50.9826 42.2178 51.0268 42.0132 51.1153C41.8106 51.2038 41.6521 51.3255 41.5378 51.4804C41.4254 51.6352 41.3693 51.8112 41.3693 52.0083C41.3693 52.1733 41.4084 52.3151 41.4866 52.4337C41.5668 52.5504 41.6691 52.6479 41.7935 52.7264C41.9179 52.8028 42.0483 52.8662 42.1847 52.9165C42.3211 52.9647 42.4465 53.0039 42.5608 53.0341L43.1867 53.2031C43.3471 53.2453 43.5257 53.3036 43.7223 53.3781C43.9208 53.4525 44.1104 53.554 44.2909 53.6828C44.4735 53.8095 44.6239 53.9724 44.7423 54.1715C44.8606 54.3706 44.9198 54.615 44.9198 54.9047C44.9198 55.2385 44.8326 55.5402 44.658 55.8098C44.4855 56.0793 44.2328 56.2935 43.8998 56.4524C43.5688 56.6113 43.1666 56.6907 42.6932 56.6907C42.2519 56.6907 41.8697 56.6193 41.5468 56.4765C41.2258 56.3337 40.9731 56.1346 40.7885 55.8791C40.606 55.6237 40.5027 55.327 40.4786 54.9891H41.2489C41.269 55.2224 41.3472 55.4155 41.4836 55.5684C41.622 55.7192 41.7965 55.8319 42.0072 55.9063C42.2198 55.9787 42.4485 56.0149 42.6932 56.0149C42.978 56.0149 43.2338 55.9686 43.4605 55.8761C43.6872 55.7816 43.8667 55.6509 43.9991 55.4839C44.1315 55.315 44.1977 55.1179 44.1977 54.8926C44.1977 54.6874 44.1405 54.5205 44.0262 54.3918C43.9118 54.263 43.7614 54.1584 43.5748 54.078C43.3883 53.9975 43.1867 53.9271 42.97 53.8668L42.2118 53.6496C41.7303 53.5108 41.3492 53.3127 41.0684 53.0552C40.7875 52.7978 40.6471 52.4609 40.6471 52.0445C40.6471 51.6986 40.7404 51.3969 40.9269 51.1394C41.1155 50.88 41.3683 50.6788 41.6852 50.536C42.0041 50.3912 42.3602 50.3188 42.7534 50.3188C43.1506 50.3188 43.5036 50.3902 43.8125 50.533C44.1214 50.6738 44.3662 50.8669 44.5467 51.1123C44.7293 51.3577 44.8255 51.6362 44.8356 51.948H44.1134Z" fill="white" fill-opacity="0.92"/>
<path d="M46.0504 56.5821V51.948H46.7605V56.5821H46.0504ZM46.4115 51.1756C46.2731 51.1756 46.1537 51.1284 46.0534 51.0338C45.9551 50.9393 45.906 50.8257 45.906 50.6929C45.906 50.5602 45.9551 50.4465 46.0534 50.352C46.1537 50.2575 46.2731 50.2102 46.4115 50.2102C46.5499 50.2102 46.6683 50.2575 46.7666 50.352C46.8669 50.4465 46.917 50.5602 46.917 50.6929C46.917 50.8257 46.8669 50.9393 46.7666 51.0338C46.6683 51.1284 46.5499 51.1756 46.4115 51.1756Z" fill="white" fill-opacity="0.92"/>
<path d="M48.7713 53.7944V56.5821H48.0612V51.948H48.7472V52.6721H48.8074C48.9157 52.4367 49.0802 52.2477 49.3009 52.1049C49.5215 51.9601 49.8064 51.8877 50.1554 51.8877C50.4683 51.8877 50.7421 51.952 50.9768 52.0807C51.2115 52.2075 51.3941 52.4005 51.5245 52.66C51.6549 52.9175 51.72 53.2433 51.72 53.6375V56.5821H51.0099V53.6858C51.0099 53.3217 50.9157 53.0381 50.7271 52.835C50.5385 52.6298 50.2798 52.5273 49.9508 52.5273C49.7241 52.5273 49.5215 52.5765 49.343 52.6751C49.1665 52.7736 49.027 52.9175 48.9247 53.1065C48.8224 53.2956 48.7713 53.5249 48.7713 53.7944Z" fill="white" fill-opacity="0.92"/>
<path d="M54.8832 58.4164C54.5402 58.4164 54.2453 58.3722 53.9986 58.2837C53.7518 58.1972 53.5462 58.0826 53.3817 57.9398C53.2193 57.799 53.0899 57.6481 52.9936 57.4872L53.5593 57.089C53.6235 57.1734 53.7047 57.27 53.803 57.3786C53.9013 57.4892 54.0357 57.5848 54.2062 57.6652C54.3787 57.7477 54.6044 57.7889 54.8832 57.7889C55.2563 57.7889 55.5642 57.6984 55.807 57.5174C56.0497 57.3364 56.171 57.0528 56.171 56.6666V55.7253H56.1109C56.0587 55.8098 55.9845 55.9143 55.8882 56.039C55.7939 56.1617 55.6575 56.2714 55.479 56.3679C55.3025 56.4624 55.0637 56.5097 54.7629 56.5097C54.3897 56.5097 54.0547 56.4212 53.7579 56.2442C53.463 56.0672 53.2293 55.8098 53.0568 55.4718C52.8863 55.1339 52.801 54.7236 52.801 54.2409C52.801 53.7662 52.8843 53.3529 53.0508 53.0009C53.2173 52.6469 53.4489 52.3734 53.7458 52.1803C54.0427 51.9852 54.3857 51.8877 54.7749 51.8877C55.0758 51.8877 55.3145 51.9379 55.491 52.0385C55.6695 52.1371 55.806 52.2497 55.9002 52.3764C55.9965 52.5011 56.0707 52.6037 56.1229 52.6841H56.1951V51.948H56.8812V56.7148C56.8812 57.1131 56.7909 57.4369 56.6103 57.6863C56.4318 57.9377 56.1911 58.1218 55.8882 58.2384C55.5873 58.3571 55.2523 58.4164 54.8832 58.4164ZM54.8591 55.8701C55.144 55.8701 55.3847 55.8047 55.5813 55.674C55.7779 55.5432 55.9273 55.3552 56.0296 55.1098C56.1319 54.8644 56.1831 54.5708 56.1831 54.2288C56.1831 53.895 56.1329 53.6003 56.0326 53.3449C55.9323 53.0894 55.7839 52.8893 55.5873 52.7445C55.3907 52.5997 55.148 52.5273 54.8591 52.5273C54.5582 52.5273 54.3075 52.6037 54.1069 52.7566C53.9083 52.9094 53.7589 53.1146 53.6586 53.372C53.5603 53.6295 53.5111 53.9151 53.5111 54.2288C53.5111 54.5507 53.5613 54.8353 53.6616 55.0827C53.7639 55.328 53.9143 55.5211 54.1129 55.6619C54.3135 55.8007 54.5623 55.8701 54.8591 55.8701Z" fill="white" fill-opacity="0.92"/>
<path d="M59.5411 56.6907C59.2482 56.6907 58.9824 56.6354 58.7437 56.5248C58.505 56.4121 58.3154 56.2502 58.175 56.039C58.0346 55.8258 57.9644 55.5684 57.9644 55.2667C57.9644 55.0012 58.0165 54.786 58.1208 54.6211C58.2252 54.4541 58.3646 54.3234 58.5391 54.2288C58.7136 54.1343 58.9062 54.0639 59.1168 54.0177C59.3294 53.9694 59.5431 53.9312 59.7577 53.903C60.0385 53.8668 60.2662 53.8397 60.4407 53.8215C60.6173 53.8014 60.7456 53.7682 60.8259 53.722C60.9081 53.6757 60.9493 53.5953 60.9493 53.4806V53.4565C60.9493 53.1588 60.868 52.9275 60.7055 52.7626C60.5451 52.5977 60.3013 52.5152 59.9744 52.5152C59.6353 52.5152 59.3696 52.5896 59.177 52.7384C58.9844 52.8873 58.849 53.0462 58.7708 53.2151L58.0968 52.9738C58.2171 52.6922 58.3776 52.473 58.5782 52.3161C58.7808 52.1572 59.0015 52.0466 59.2402 51.9842C59.4809 51.9198 59.7176 51.8877 59.9503 51.8877C60.0987 51.8877 60.2692 51.9058 60.4618 51.942C60.6564 51.9762 60.8439 52.0476 61.0245 52.1562C61.207 52.2648 61.3585 52.4287 61.4788 52.6479C61.5992 52.8672 61.6594 53.1608 61.6594 53.5289V56.5821H60.9493V55.9546H60.9131C60.865 56.0551 60.7848 56.1627 60.6724 56.2774C60.5601 56.392 60.4107 56.4896 60.2241 56.57C60.0375 56.6505 59.8099 56.6907 59.5411 56.6907ZM59.6494 56.0511C59.9302 56.0511 60.1669 55.9958 60.3595 55.8852C60.5541 55.7746 60.7005 55.6317 60.7988 55.4568C60.8991 55.2818 60.9493 55.0977 60.9493 54.9047V54.253C60.9192 54.2892 60.853 54.3224 60.7507 54.3525C60.6504 54.3807 60.534 54.4058 60.4016 54.428C60.2712 54.4481 60.1439 54.4662 60.0195 54.4823C59.8971 54.4964 59.7978 54.5084 59.7216 54.5185C59.5371 54.5426 59.3645 54.5818 59.2041 54.6361C59.0456 54.6884 58.9172 54.7679 58.8189 54.8745C58.7226 54.9791 58.6745 55.1219 58.6745 55.3029C58.6745 55.5503 58.7658 55.7373 58.9483 55.8641C59.1329 55.9888 59.3665 56.0511 59.6494 56.0511Z" fill="white" fill-opacity="0.92"/>
<path d="M62.9555 58.3199V51.948H63.6415V52.6841H63.7258C63.7779 52.6037 63.8501 52.5011 63.9424 52.3764C64.0367 52.2497 64.1711 52.1371 64.3456 52.0385C64.5221 51.9379 64.7608 51.8877 65.0617 51.8877C65.4509 51.8877 65.7939 51.9852 66.0908 52.1803C66.3877 52.3754 66.6194 52.652 66.7859 53.01C66.9524 53.368 67.0356 53.7904 67.0356 54.2771C67.0356 54.7679 66.9524 55.1933 66.7859 55.5533C66.6194 55.9113 66.3887 56.1889 66.0938 56.386C65.7989 56.5811 65.4589 56.6786 65.0738 56.6786C64.7769 56.6786 64.5392 56.6294 64.3607 56.5308C64.1821 56.4302 64.0447 56.3166 63.9484 56.1899C63.8521 56.0612 63.7779 55.9546 63.7258 55.8701H63.6656V58.3199H62.9555ZM63.6535 54.265C63.6535 54.615 63.7047 54.9238 63.807 55.1913C63.9093 55.4568 64.0588 55.6649 64.2553 55.8158C64.4519 55.9646 64.6926 56.039 64.9775 56.039C65.2744 56.039 65.5221 55.9606 65.7207 55.8037C65.9213 55.6448 66.0717 55.4316 66.172 55.1641C66.2743 54.8946 66.3255 54.5949 66.3255 54.265C66.3255 53.9392 66.2753 53.6456 66.1751 53.3841C66.0768 53.1206 65.9273 52.9124 65.7267 52.7596C65.5281 52.6047 65.2784 52.5273 64.9775 52.5273C64.6886 52.5273 64.4459 52.6007 64.2493 52.7475C64.0527 52.8923 63.9043 53.0955 63.804 53.3569C63.7037 53.6164 63.6535 53.9191 63.6535 54.265Z" fill="white" fill-opacity="0.92"/>
<path d="M69.9964 56.6786C69.5792 56.6786 69.2131 56.5791 68.8982 56.38C68.5852 56.1808 68.3405 55.9023 68.164 55.5443C67.9894 55.1862 67.9022 54.7679 67.9022 54.2892C67.9022 53.8065 67.9894 53.3851 68.164 53.0251C68.3405 52.665 68.5852 52.3855 68.8982 52.1863C69.2131 51.9872 69.5792 51.8877 69.9964 51.8877C70.4137 51.8877 70.7787 51.9872 71.0917 52.1863C71.4066 52.3855 71.6513 52.665 71.8259 53.0251C72.0024 53.3851 72.0907 53.8065 72.0907 54.2892C72.0907 54.7679 72.0024 55.1862 71.8259 55.5443C71.6513 55.9023 71.4066 56.1808 71.0917 56.38C70.7787 56.5791 70.4137 56.6786 69.9964 56.6786ZM69.9964 56.039C70.3134 56.039 70.5741 55.9576 70.7787 55.7947C70.9834 55.6317 71.1348 55.4175 71.2331 55.152C71.3314 54.8866 71.3805 54.5989 71.3805 54.2892C71.3805 53.9794 71.3314 53.6908 71.2331 53.4233C71.1348 53.1558 70.9834 52.9396 70.7787 52.7747C70.5741 52.6097 70.3134 52.5273 69.9964 52.5273C69.6795 52.5273 69.4187 52.6097 69.2141 52.7747C69.0095 52.9396 68.858 53.1558 68.7597 53.4233C68.6614 53.6908 68.6123 53.9794 68.6123 54.2892C68.6123 54.5989 68.6614 54.8866 68.7597 55.152C68.858 55.4175 69.0095 55.6317 69.2141 55.7947C69.4187 55.9576 69.6795 56.039 69.9964 56.039Z" fill="white" fill-opacity="0.92"/>
<path d="M73.1746 56.5821V51.948H73.8607V52.6479H73.9088C73.9931 52.4186 74.1455 52.2326 74.3662 52.0898C74.5868 51.947 74.8356 51.8756 75.1124 51.8756C75.1645 51.8756 75.2297 51.8766 75.308 51.8786C75.3862 51.8806 75.4454 51.8836 75.4855 51.8877V52.6117C75.4614 52.6057 75.4063 52.5966 75.32 52.5846C75.2358 52.5705 75.1465 52.5635 75.0522 52.5635C74.8275 52.5635 74.6269 52.6107 74.4504 52.7053C74.2759 52.7978 74.1375 52.9265 74.0352 53.0914C73.9349 53.2544 73.8847 53.4404 73.8847 53.6496V56.5821H73.1746Z" fill="white" fill-opacity="0.92"/>
<path d="M78.1243 56.6786C77.679 56.6786 77.2949 56.5801 76.9719 56.383C76.651 56.1839 76.4032 55.9063 76.2287 55.5503C76.0562 55.1923 75.9699 54.7759 75.9699 54.3013C75.9699 53.8266 76.0562 53.4082 76.2287 53.0462C76.4032 52.6821 76.646 52.3985 76.9569 52.1954C77.2698 51.9902 77.6349 51.8877 78.0521 51.8877C78.2929 51.8877 78.5306 51.9279 78.7653 52.0083C79 52.0888 79.2136 52.2195 79.4062 52.4005C79.5987 52.5796 79.7522 52.8169 79.8665 53.1126C79.9809 53.4082 80.038 53.7723 80.038 54.2047V54.5064H76.4754V53.8909H79.3159C79.3159 53.6295 79.2637 53.3962 79.1594 53.191C79.0571 52.9858 78.9107 52.8239 78.7201 52.7053C78.5316 52.5866 78.3089 52.5273 78.0521 52.5273C77.7693 52.5273 77.5246 52.5977 77.318 52.7384C77.1133 52.8772 76.9559 53.0582 76.8455 53.2815C76.7352 53.5048 76.6801 53.7441 76.6801 53.9996V54.4099C76.6801 54.7598 76.7402 55.0565 76.8606 55.2999C76.983 55.5412 77.1525 55.7253 77.3691 55.852C77.5857 55.9767 77.8375 56.039 78.1243 56.039C78.3109 56.039 78.4794 56.0129 78.6299 55.9606C78.7823 55.9063 78.9137 55.8258 79.024 55.7192C79.1344 55.6106 79.2196 55.4759 79.2798 55.315L79.9658 55.5081C79.8936 55.7414 79.7723 55.9465 79.6017 56.1235C79.4312 56.2985 79.2206 56.4353 78.9699 56.5338C78.7191 56.6304 78.4373 56.6786 78.1243 56.6786Z" fill="white" fill-opacity="0.92"/>
</g>
<defs>
<clipPath id="clip0_921_50171">
<rect width="158.4" height="72" fill="white" transform="translate(0.5)"/>
</clipPath>
</defs>
</svg>
