<svg width="40" height="40" viewBox="0 0 40 40" fill="none" xmlns="http://www.w3.org/2000/svg">
<g id="HiSearchCircle">
<path id="Vector" d="M18 18C18 16.9391 18.4214 15.9217 19.1716 15.1716C19.9217 14.4214 20.9391 14 22 14C23.0609 14 24.0783 14.4214 24.8284 15.1716C25.5786 15.9217 26 16.9391 26 18C26 19.0609 25.5786 20.0783 24.8284 20.8284C24.0783 21.5786 23.0609 22 22 22C20.9391 22 19.9217 21.5786 19.1716 20.8284C18.4214 20.0783 18 19.0609 18 18Z" fill="#8F3BA8"/>
<path id="Vector_2" fill-rule="evenodd" clip-rule="evenodd" d="M20 36C24.2435 36 28.3131 34.3143 31.3137 31.3137C34.3143 28.3131 36 24.2435 36 20C36 15.7565 34.3143 11.6869 31.3137 8.68629C28.3131 5.68571 24.2435 4 20 4C15.7565 4 11.6869 5.68571 8.68629 8.68629C5.68571 11.6869 4 15.7565 4 20C4 24.2435 5.68571 28.3131 8.68629 31.3137C11.6869 34.3143 15.7565 36 20 36ZM22 10C20.5893 9.9998 19.2037 10.3726 17.9836 11.0806C16.7634 11.7887 15.7522 12.8068 15.0525 14.0316C14.3527 15.2565 13.9893 16.6446 13.999 18.0553C14.0088 19.4659 14.3914 20.8489 15.108 22.064L10.586 26.584C10.2107 26.959 9.99978 27.4678 9.99959 27.9983C9.9995 28.261 10.0512 28.5211 10.1516 28.7639C10.252 29.0066 10.3993 29.2272 10.585 29.413C10.7707 29.5988 10.9912 29.7462 11.2338 29.8469C11.4765 29.9475 11.7366 29.9993 11.9993 29.9994C12.5298 29.9996 13.0387 29.789 13.414 29.414L17.936 24.892C18.9957 25.5166 20.1851 25.8884 21.4119 25.9785C22.6386 26.0686 23.8696 25.8747 25.0092 25.4117C26.1488 24.9487 27.1663 24.2292 27.9826 23.309C28.7989 22.3888 29.392 21.2928 29.7158 20.1062C30.0397 18.9195 30.0855 17.6742 29.8498 16.4669C29.6141 15.2596 29.1031 14.123 28.3567 13.1453C27.6103 12.1676 26.6484 11.3753 25.5459 10.8297C24.4435 10.2842 23.2301 10.0003 22 10Z" fill="#8F3BA8"/>
</g>
</svg>
