<svg width="40" height="40" viewBox="0 0 40 40" fill="none" xmlns="http://www.w3.org/2000/svg">
<g id="HiShieldCheck">
<path id="Vector" fill-rule="evenodd" clip-rule="evenodd" d="M4.332 9.99794C10.1223 9.92594 15.6896 7.75486 20 3.88794C24.3101 7.75558 29.8775 9.92739 35.668 9.99994C35.888 11.2999 36 12.6399 36 14.0019C36 24.4519 29.32 33.3419 20 36.6359C10.68 33.3399 4 24.4499 4 13.9999C4 12.6359 4.114 11.2999 4.332 9.99794ZM27.414 17.4139C27.7783 17.0367 27.9799 16.5315 27.9753 16.0071C27.9708 15.4827 27.7605 14.9811 27.3896 14.6103C27.0188 14.2395 26.5172 14.0291 25.9928 14.0246C25.4684 14.02 24.9632 14.2216 24.586 14.5859L18 21.1719L15.414 18.5859C15.0368 18.2216 14.5316 18.02 14.0072 18.0246C13.4828 18.0291 12.9812 18.2395 12.6104 18.6103C12.2395 18.9811 12.0292 19.4827 12.0247 20.0071C12.0201 20.5315 12.2217 21.0367 12.586 21.4139L16.586 25.4139C16.9611 25.7889 17.4697 25.9995 18 25.9995C18.5303 25.9995 19.0389 25.7889 19.414 25.4139L27.414 17.4139Z" fill="#8F3BA8"/>
</g>
</svg>
